<svg xmlns="http://www.w3.org/2000/svg" width="58.054" height="58.053" viewBox="0 0 58.054 58.053">
  <path id="Trazado_787598" data-name="Trazado 787598" d="M501.767,58.768,519.7,40.911l-2.963-2.963L501.767,52.842l-6.778-6.7-2.963,2.963ZM505.9,77.415a28.287,28.287,0,0,1-11.26-2.266,29.154,29.154,0,0,1-15.5-15.5,29.189,29.189,0,0,1,0-22.557,29.265,29.265,0,0,1,15.5-15.466,29.2,29.2,0,0,1,22.557,0,29.367,29.367,0,0,1,15.465,15.457,29.189,29.189,0,0,1,0,22.557A29.268,29.268,0,0,1,517.2,75.149a28.211,28.211,0,0,1-11.3,2.266m-.005-4.146a24.775,24.775,0,0,0,24.88-24.88,24.88,24.88,0,1,0-49.759,0,24.775,24.775,0,0,0,24.88,24.88" transform="translate(-476.869 -19.362)" fill="#fff"/>
</svg>
