<svg xmlns="http://www.w3.org/2000/svg" width="257.064" height="216.856" viewBox="0 0 257.064 216.856">
  <g id="Grupo_1043385" data-name="Grupo 1043385" transform="translate(-675.523 -10806.64)">
    <path id="Trazado_787589" data-name="Trazado 787589" d="M45,0A45,45,0,1,1,0,45,45,45,0,0,1,45,0Z" transform="translate(800.342 11023.496) rotate(-90)" fill="#f6f6f6"/>
    <path id="Trazado_787477" data-name="Trazado 787477" d="M542.61,239.175l1.231,1.231,4.3-4.3,1.231-1.231-1.231-1.231-4.3-4.3-1.231,1.231,4.3,4.3Z" transform="translate(345.096 10717.073)" fill="#ffca00"/>
    <path id="Trazado_787476" data-name="Trazado 787476" d="M531.841,234.879l-4.3,4.3,1.231,1.231,4.3-4.3,1.231-1.231-1.231-1.231-4.3-4.3-1.231,1.231Z" transform="translate(354.555 10717.073)" fill="#ffca00"/>
    <path id="Trazado_787590" data-name="Trazado 787590" d="M42.852,0H3.867V-7.734l18.4-19.609a45.389,45.389,0,0,0,5.605-7.227,11.61,11.61,0,0,0,1.816-5.859,8.688,8.688,0,0,0-1.914-5.957A6.909,6.909,0,0,0,22.3-48.555a7.452,7.452,0,0,0-6.035,2.637,10.444,10.444,0,0,0-2.207,6.934H2.734a18.646,18.646,0,0,1,2.48-9.492,17.482,17.482,0,0,1,7.012-6.738A21.312,21.312,0,0,1,22.5-57.656q8.789,0,13.652,4.219t4.863,11.914a19.123,19.123,0,0,1-2.187,8.594,47.757,47.757,0,0,1-7.5,10.2L18.4-9.1H42.852ZM50.82-5.547a5.683,5.683,0,0,1,1.816-4.375,6.445,6.445,0,0,1,4.551-1.68,6.5,6.5,0,0,1,4.59,1.68,5.683,5.683,0,0,1,1.816,4.375A5.606,5.606,0,0,1,61.8-1.23,6.525,6.525,0,0,1,57.188.43a6.472,6.472,0,0,1-4.57-1.66A5.606,5.606,0,0,1,50.82-5.547Z" transform="translate(771 11011)" fill="#2d54fe"/>
    <path id="Trazado_787591" data-name="Trazado 787591" d="M4.648,8.535H2.08L1.592,10H.034L2.681,2.891H4.038L6.7,10H5.142ZM2.476,7.349H4.253L3.359,4.688ZM8.335,4.717l.044.61A1.845,1.845,0,0,1,9.9,4.619a1.533,1.533,0,0,1,1.25.493,2.3,2.3,0,0,1,.42,1.475V10H10.156V6.613a.919.919,0,0,0-.2-.653.873.873,0,0,0-.649-.2.97.97,0,0,0-.894.509V10H7.007V4.717ZM15.7,10a1.567,1.567,0,0,1-.142-.474,1.707,1.707,0,0,1-1.333.571,1.876,1.876,0,0,1-1.287-.449,1.445,1.445,0,0,1-.51-1.133,1.493,1.493,0,0,1,.623-1.289,3.072,3.072,0,0,1,1.8-.454H15.5v-.3a.871.871,0,0,0-.188-.586.74.74,0,0,0-.593-.22.841.841,0,0,0-.559.171.581.581,0,0,0-.2.469H12.544a1.417,1.417,0,0,1,.283-.85,1.872,1.872,0,0,1,.8-.613,2.918,2.918,0,0,1,1.162-.222,2.306,2.306,0,0,1,1.55.491,1.717,1.717,0,0,1,.574,1.379v2.29a2.526,2.526,0,0,0,.21,1.138V10Zm-1.167-.981a1.215,1.215,0,0,0,.576-.139.914.914,0,0,0,.391-.374V7.6h-.527q-1.06,0-1.128.732l0,.083a.565.565,0,0,0,.186.435A.721.721,0,0,0,14.531,9.019ZM15.068,2.5h1.538L15.254,4.014H14.106ZM19.487,10H18.071V2.5h1.416Zm2.651,0H20.723V4.717h1.416Zm-1.5-6.65a.7.7,0,0,1,.212-.522.915.915,0,0,1,1.155,0,.691.691,0,0,1,.215.522A.693.693,0,0,1,22,3.877a.905.905,0,0,1-1.147,0A.693.693,0,0,1,20.64,3.35Zm5.522,5.19a.455.455,0,0,0-.256-.408,2.912,2.912,0,0,0-.823-.266q-1.885-.4-1.885-1.6a1.452,1.452,0,0,1,.583-1.174,2.354,2.354,0,0,1,1.526-.471,2.533,2.533,0,0,1,1.609.474,1.493,1.493,0,0,1,.6,1.23H26.108a.683.683,0,0,0-.2-.5.827.827,0,0,0-.61-.2.845.845,0,0,0-.552.161.509.509,0,0,0-.2.41.435.435,0,0,0,.222.378,2.285,2.285,0,0,0,.75.249,6.122,6.122,0,0,1,.889.237,1.46,1.46,0,0,1,1.118,1.421,1.378,1.378,0,0,1-.62,1.169,2.675,2.675,0,0,1-1.6.447,2.794,2.794,0,0,1-1.179-.237,1.979,1.979,0,0,1-.808-.649,1.509,1.509,0,0,1-.293-.891H24.37a.737.737,0,0,0,.278.576,1.1,1.1,0,0,0,.693.2,1.022,1.022,0,0,0,.613-.154A.479.479,0,0,0,26.162,8.54ZM29.932,10H28.516V4.717h1.416Zm-1.5-6.65a.7.7,0,0,1,.212-.522.915.915,0,0,1,1.155,0,.691.691,0,0,1,.215.522.693.693,0,0,1-.217.527.905.905,0,0,1-1.147,0A.693.693,0,0,1,28.433,3.35Zm5.522,5.19a.455.455,0,0,0-.256-.408,2.912,2.912,0,0,0-.823-.266q-1.885-.4-1.885-1.6a1.452,1.452,0,0,1,.583-1.174A2.354,2.354,0,0,1,33.1,4.619a2.533,2.533,0,0,1,1.609.474,1.493,1.493,0,0,1,.6,1.23H33.9a.683.683,0,0,0-.2-.5.827.827,0,0,0-.61-.2.845.845,0,0,0-.552.161.509.509,0,0,0-.2.41.435.435,0,0,0,.222.378,2.286,2.286,0,0,0,.75.249,6.122,6.122,0,0,1,.889.237,1.46,1.46,0,0,1,1.118,1.421,1.378,1.378,0,0,1-.62,1.169,2.675,2.675,0,0,1-1.6.447,2.794,2.794,0,0,1-1.179-.237,1.979,1.979,0,0,1-.808-.649,1.509,1.509,0,0,1-.293-.891h1.338a.737.737,0,0,0,.278.576,1.1,1.1,0,0,0,.693.2,1.022,1.022,0,0,0,.613-.154A.479.479,0,0,0,33.955,8.54Zm7.2,1.558a2.594,2.594,0,0,1-1.892-.713,2.534,2.534,0,0,1-.73-1.9V7.349a3.192,3.192,0,0,1,.308-1.423,2.258,2.258,0,0,1,.872-.967A2.446,2.446,0,0,1,41,4.619a2.193,2.193,0,0,1,1.707.684,2.778,2.778,0,0,1,.623,1.938v.576H39.966a1.311,1.311,0,0,0,.413.83,1.247,1.247,0,0,0,.872.313,1.523,1.523,0,0,0,1.274-.591l.693.776a2.118,2.118,0,0,1-.859.7A2.819,2.819,0,0,1,41.157,10.1ZM41,5.757a.882.882,0,0,0-.681.284,1.473,1.473,0,0,0-.334.814h1.963V6.743a1.051,1.051,0,0,0-.254-.728A.91.91,0,0,0,41,5.757ZM2.031,24H.615V18.717H2.031Zm-1.5-6.65a.7.7,0,0,1,.212-.522.8.8,0,0,1,.579-.205.8.8,0,0,1,.576.205.746.746,0,0,1,0,1.05.8.8,0,0,1-.574.205.8.8,0,0,1-.574-.205A.693.693,0,0,1,.532,17.35Zm3.96,1.367.044.61a1.845,1.845,0,0,1,1.519-.708,1.533,1.533,0,0,1,1.25.493,2.3,2.3,0,0,1,.42,1.475V24H6.313V20.613a.919.919,0,0,0-.2-.653.873.873,0,0,0-.649-.2.97.97,0,0,0-.894.509V24H3.164V18.717Zm5.991-1.3v1.3h.9v1.035h-.9v2.637a.63.63,0,0,0,.112.42.564.564,0,0,0,.43.127,2.25,2.25,0,0,0,.415-.034v1.069a2.905,2.905,0,0,1-.854.127,1.347,1.347,0,0,1-1.514-1.5V19.752H8.3V18.717h.771v-1.3ZM14.6,24.1a2.594,2.594,0,0,1-1.892-.713,2.534,2.534,0,0,1-.73-1.9v-.137a3.192,3.192,0,0,1,.308-1.423,2.258,2.258,0,0,1,.872-.967,2.446,2.446,0,0,1,1.287-.339,2.193,2.193,0,0,1,1.707.684,2.778,2.778,0,0,1,.623,1.938v.576H13.413a1.311,1.311,0,0,0,.413.83,1.247,1.247,0,0,0,.872.313,1.523,1.523,0,0,0,1.274-.591l.693.776a2.118,2.118,0,0,1-.859.7A2.819,2.819,0,0,1,14.6,24.1Zm-.161-4.341a.882.882,0,0,0-.681.284,1.473,1.473,0,0,0-.334.814h1.963v-.113a1.051,1.051,0,0,0-.254-.728A.91.91,0,0,0,14.443,19.757Zm6.1.283A3.834,3.834,0,0,0,20.039,20a1.034,1.034,0,0,0-1.05.542V24H17.578V18.717h1.333l.039.63a1.308,1.308,0,0,1,1.177-.728,1.479,1.479,0,0,1,.439.063Zm5.435,1.367a3.169,3.169,0,0,1-.554,1.956,1.777,1.777,0,0,1-1.5.735,1.646,1.646,0,0,1-1.294-.557v2.49H21.226V18.717h1.309l.049.518a1.659,1.659,0,0,1,1.338-.615,1.789,1.789,0,0,1,1.519.723,3.254,3.254,0,0,1,.542,1.992ZM24.57,21.3a2.091,2.091,0,0,0-.261-1.141.85.85,0,0,0-.759-.4.924.924,0,0,0-.913.509v2.17a.939.939,0,0,0,.923.524Q24.57,22.96,24.57,21.3Zm5.254-1.26A3.834,3.834,0,0,0,29.316,20a1.034,1.034,0,0,0-1.05.542V24H26.855V18.717h1.333l.039.63a1.308,1.308,0,0,1,1.177-.728,1.479,1.479,0,0,1,.439.063ZM32.842,24.1a2.594,2.594,0,0,1-1.892-.713,2.534,2.534,0,0,1-.73-1.9v-.137a3.192,3.192,0,0,1,.308-1.423,2.258,2.258,0,0,1,.872-.967,2.446,2.446,0,0,1,1.287-.339,2.193,2.193,0,0,1,1.707.684,2.778,2.778,0,0,1,.623,1.938v.576H31.65a1.311,1.311,0,0,0,.413.83,1.247,1.247,0,0,0,.872.313,1.523,1.523,0,0,0,1.274-.591l.693.776a2.118,2.118,0,0,1-.859.7A2.819,2.819,0,0,1,32.842,24.1Zm-.161-4.341a.882.882,0,0,0-.681.284,1.473,1.473,0,0,0-.334.814h1.963v-.113a1.051,1.051,0,0,0-.254-.728A.91.91,0,0,0,32.681,19.757ZM37.5,17.418v1.3h.9v1.035h-.9v2.637a.63.63,0,0,0,.112.42.564.564,0,0,0,.43.127,2.25,2.25,0,0,0,.415-.034v1.069a2.905,2.905,0,0,1-.854.127,1.347,1.347,0,0,1-1.514-1.5V19.752h-.771V18.717h.771v-1.3ZM42.256,24a1.567,1.567,0,0,1-.142-.474,1.707,1.707,0,0,1-1.333.571,1.876,1.876,0,0,1-1.287-.449,1.445,1.445,0,0,1-.51-1.133,1.493,1.493,0,0,1,.623-1.289,3.072,3.072,0,0,1,1.8-.454h.649v-.3a.871.871,0,0,0-.188-.586.74.74,0,0,0-.593-.22.841.841,0,0,0-.559.171.581.581,0,0,0-.2.469H39.1a1.418,1.418,0,0,1,.283-.85,1.872,1.872,0,0,1,.8-.613,2.918,2.918,0,0,1,1.162-.222,2.306,2.306,0,0,1,1.55.491,1.717,1.717,0,0,1,.574,1.379v2.29a2.526,2.526,0,0,0,.21,1.138V24Zm-1.167-.981a1.215,1.215,0,0,0,.576-.139.914.914,0,0,0,.391-.374V21.6h-.527q-1.06,0-1.128.732l0,.083a.565.565,0,0,0,.186.435A.721.721,0,0,0,41.089,23.019Zm5.664-.059a.926.926,0,0,0,.635-.215.753.753,0,0,0,.254-.571h1.323a1.81,1.81,0,0,1-.293.984,1.933,1.933,0,0,1-.789.693,2.468,2.468,0,0,1-1.106.247,2.294,2.294,0,0,1-1.787-.72,2.85,2.85,0,0,1-.654-1.99v-.093a2.817,2.817,0,0,1,.649-1.948,2.267,2.267,0,0,1,1.782-.728,2.222,2.222,0,0,1,1.589.564,2,2,0,0,1,.608,1.5H47.642a.97.97,0,0,0-.254-.67.944.944,0,0,0-1.389.1,2.083,2.083,0,0,0-.251,1.166v.147A2.109,2.109,0,0,0,46,22.6.861.861,0,0,0,46.753,22.96ZM51.26,24H49.844V18.717H51.26Zm-1.5-6.65a.7.7,0,0,1,.212-.522.915.915,0,0,1,1.155,0,.746.746,0,0,1,0,1.05.905.905,0,0,1-1.147,0A.693.693,0,0,1,49.761,17.35ZM52.2,21.31a3.133,3.133,0,0,1,.3-1.4,2.216,2.216,0,0,1,.872-.952,2.543,2.543,0,0,1,1.321-.337,2.406,2.406,0,0,1,1.746.654,2.626,2.626,0,0,1,.754,1.777l.01.361a2.761,2.761,0,0,1-.679,1.951,2.631,2.631,0,0,1-3.645,0,2.81,2.81,0,0,1-.681-1.992Zm1.411.1a1.975,1.975,0,0,0,.283,1.152,1.017,1.017,0,0,0,1.611,0,2.161,2.161,0,0,0,.288-1.259,1.955,1.955,0,0,0-.288-1.144.936.936,0,0,0-.811-.406.921.921,0,0,0-.8.4A2.2,2.2,0,0,0,53.613,21.41Zm1.362-4.91h1.538l-1.353,1.514H54.014Zm4.4,2.217.044.61a1.845,1.845,0,0,1,1.519-.708,1.533,1.533,0,0,1,1.25.493,2.3,2.3,0,0,1,.42,1.475V24H61.2V20.613a.919.919,0,0,0-.2-.653.873.873,0,0,0-.649-.2.97.97,0,0,0-.894.509V24H58.047V18.717Zm6.572,2.6a3.184,3.184,0,0,1,.554-1.968,1.8,1.8,0,0,1,1.516-.732,1.618,1.618,0,0,1,1.274.576V16.5h1.416V24H69.434l-.068-.562a1.661,1.661,0,0,1-1.357.659,1.793,1.793,0,0,1-1.5-.735A3.286,3.286,0,0,1,65.947,21.319Zm1.411.1a2.1,2.1,0,0,0,.259,1.143.842.842,0,0,0,.752.4.944.944,0,0,0,.923-.554V20.311a.93.93,0,0,0-.913-.554Q67.358,19.757,67.358,21.42ZM74.233,24.1a2.594,2.594,0,0,1-1.892-.713,2.534,2.534,0,0,1-.73-1.9v-.137a3.192,3.192,0,0,1,.308-1.423,2.258,2.258,0,0,1,.872-.967,2.446,2.446,0,0,1,1.287-.339,2.193,2.193,0,0,1,1.707.684,2.778,2.778,0,0,1,.623,1.938v.576H73.042a1.311,1.311,0,0,0,.413.83,1.247,1.247,0,0,0,.872.313,1.523,1.523,0,0,0,1.274-.591l.693.776a2.118,2.118,0,0,1-.859.7A2.819,2.819,0,0,1,74.233,24.1Zm-.161-4.341a.882.882,0,0,0-.681.284,1.473,1.473,0,0,0-.334.814H75.02v-.113a1.051,1.051,0,0,0-.254-.728A.91.91,0,0,0,74.072,19.757ZM81.187,24H79.771V16.5h1.416Zm4.224,0a1.567,1.567,0,0,1-.142-.474,1.707,1.707,0,0,1-1.333.571,1.876,1.876,0,0,1-1.287-.449,1.445,1.445,0,0,1-.51-1.133,1.493,1.493,0,0,1,.623-1.289,3.072,3.072,0,0,1,1.8-.454h.649v-.3a.871.871,0,0,0-.188-.586.74.74,0,0,0-.593-.22.841.841,0,0,0-.559.171.581.581,0,0,0-.2.469H82.256a1.417,1.417,0,0,1,.283-.85,1.872,1.872,0,0,1,.8-.613,2.918,2.918,0,0,1,1.162-.222,2.306,2.306,0,0,1,1.55.491,1.717,1.717,0,0,1,.574,1.379v2.29a2.526,2.526,0,0,0,.21,1.138V24Zm-1.167-.981a1.215,1.215,0,0,0,.576-.139.914.914,0,0,0,.391-.374V21.6h-.527q-1.06,0-1.128.732l0,.083a.565.565,0,0,0,.186.435A.721.721,0,0,0,84.243,23.019ZM2.031,38H.615V32.717H2.031Zm-1.5-6.65a.7.7,0,0,1,.212-.522.8.8,0,0,1,.579-.205.8.8,0,0,1,.576.205.746.746,0,0,1,0,1.05.8.8,0,0,1-.574.205.8.8,0,0,1-.574-.205A.693.693,0,0,1,.532,31.35Zm3.96,1.367.044.61a1.845,1.845,0,0,1,1.519-.708,1.533,1.533,0,0,1,1.25.493,2.3,2.3,0,0,1,.42,1.475V38H6.313V34.613a.919.919,0,0,0-.2-.653.873.873,0,0,0-.649-.2.97.97,0,0,0-.894.509V38H3.164V32.717ZM9.18,38V33.752H8.394V32.717H9.18v-.449a1.824,1.824,0,0,1,.51-1.379,1.976,1.976,0,0,1,1.428-.491,3.326,3.326,0,0,1,.718.1l-.015,1.085a1.8,1.8,0,0,0-.43-.044q-.8,0-.8.753v.428h1.05v1.035H10.6V38Zm2.979-2.69a3.133,3.133,0,0,1,.3-1.4,2.216,2.216,0,0,1,.872-.952,2.543,2.543,0,0,1,1.321-.337,2.406,2.406,0,0,1,1.746.654,2.626,2.626,0,0,1,.754,1.777l.01.361a2.761,2.761,0,0,1-.679,1.951,2.359,2.359,0,0,1-1.821.735,2.371,2.371,0,0,1-1.824-.732,2.81,2.81,0,0,1-.681-1.992Zm1.411.1a1.975,1.975,0,0,0,.283,1.152,1.017,1.017,0,0,0,1.611,0,2.161,2.161,0,0,0,.288-1.259,1.955,1.955,0,0,0-.288-1.144.936.936,0,0,0-.811-.406.921.921,0,0,0-.8.4A2.2,2.2,0,0,0,13.569,35.41ZM21,34.04A3.833,3.833,0,0,0,20.493,34a1.034,1.034,0,0,0-1.05.542V38H18.032V32.717h1.333l.039.63a1.308,1.308,0,0,1,1.177-.728,1.479,1.479,0,0,1,.439.063Zm2-1.323.044.591a1.857,1.857,0,0,1,1.519-.688,1.409,1.409,0,0,1,1.4.806,1.814,1.814,0,0,1,1.587-.806,1.576,1.576,0,0,1,1.279.5,2.3,2.3,0,0,1,.42,1.506V38H27.837V34.623a1.01,1.01,0,0,0-.176-.658.778.778,0,0,0-.62-.208.881.881,0,0,0-.879.607l0,3.636H24.756V34.628a1,1,0,0,0-.181-.666.786.786,0,0,0-.615-.206.914.914,0,0,0-.869.5V38H21.68V32.717ZM33.4,38a1.567,1.567,0,0,1-.142-.474,1.707,1.707,0,0,1-1.333.571,1.876,1.876,0,0,1-1.287-.449,1.445,1.445,0,0,1-.51-1.133,1.493,1.493,0,0,1,.623-1.289,3.072,3.072,0,0,1,1.8-.454H33.2v-.3a.871.871,0,0,0-.188-.586.74.74,0,0,0-.593-.22.841.841,0,0,0-.559.171.581.581,0,0,0-.2.469H30.244a1.417,1.417,0,0,1,.283-.85,1.872,1.872,0,0,1,.8-.613,2.918,2.918,0,0,1,1.162-.222,2.306,2.306,0,0,1,1.55.491,1.717,1.717,0,0,1,.574,1.379v2.29a2.526,2.526,0,0,0,.21,1.138V38Zm-1.167-.981a1.215,1.215,0,0,0,.576-.139.914.914,0,0,0,.391-.374V35.6h-.527q-1.06,0-1.128.732l0,.083a.565.565,0,0,0,.186.435A.721.721,0,0,0,32.231,37.019ZM37.9,36.96a.926.926,0,0,0,.635-.215.753.753,0,0,0,.254-.571h1.323a1.81,1.81,0,0,1-.293.984,1.933,1.933,0,0,1-.789.693,2.468,2.468,0,0,1-1.106.247,2.294,2.294,0,0,1-1.787-.72,2.85,2.85,0,0,1-.654-1.99v-.093a2.817,2.817,0,0,1,.649-1.948,2.267,2.267,0,0,1,1.782-.728,2.222,2.222,0,0,1,1.589.564,2,2,0,0,1,.608,1.5H38.784a.97.97,0,0,0-.254-.67.944.944,0,0,0-1.389.1,2.083,2.083,0,0,0-.251,1.166v.147a2.109,2.109,0,0,0,.249,1.174A.861.861,0,0,0,37.9,36.96ZM42.4,38H40.986V32.717H42.4Zm-1.5-6.65a.7.7,0,0,1,.212-.522.915.915,0,0,1,1.155,0,.746.746,0,0,1,0,1.05.905.905,0,0,1-1.147,0A.693.693,0,0,1,40.9,31.35Zm2.441,3.96a3.133,3.133,0,0,1,.3-1.4,2.216,2.216,0,0,1,.872-.952,2.543,2.543,0,0,1,1.321-.337,2.406,2.406,0,0,1,1.746.654,2.626,2.626,0,0,1,.754,1.777l.01.361a2.761,2.761,0,0,1-.679,1.951,2.631,2.631,0,0,1-3.645,0,2.81,2.81,0,0,1-.681-1.992Zm1.411.1a1.975,1.975,0,0,0,.283,1.152,1.017,1.017,0,0,0,1.611,0,2.161,2.161,0,0,0,.288-1.259,1.955,1.955,0,0,0-.288-1.144.936.936,0,0,0-.811-.406.921.921,0,0,0-.8.4A2.2,2.2,0,0,0,44.756,35.41Zm1.362-4.91h1.538L46.3,32.014H45.156Zm4.4,2.217.044.61a1.845,1.845,0,0,1,1.519-.708,1.533,1.533,0,0,1,1.25.493,2.3,2.3,0,0,1,.42,1.475V38H52.339V34.613a.919.919,0,0,0-.2-.653.873.873,0,0,0-.649-.2.97.97,0,0,0-.894.509V38H49.189V32.717ZM3.511,48.04A3.833,3.833,0,0,0,3,48a1.034,1.034,0,0,0-1.05.542V52H.542V46.717H1.875l.039.63a1.308,1.308,0,0,1,1.177-.728,1.479,1.479,0,0,1,.439.063ZM6.528,52.1a2.594,2.594,0,0,1-1.892-.713,2.534,2.534,0,0,1-.73-1.9v-.137a3.192,3.192,0,0,1,.308-1.423,2.258,2.258,0,0,1,.872-.967,2.446,2.446,0,0,1,1.287-.339,2.193,2.193,0,0,1,1.707.684A2.778,2.778,0,0,1,8.7,49.241v.576H5.337a1.311,1.311,0,0,0,.413.83,1.247,1.247,0,0,0,.872.313A1.523,1.523,0,0,0,7.9,50.369l.693.776a2.118,2.118,0,0,1-.859.7A2.819,2.819,0,0,1,6.528,52.1Zm-.161-4.341a.882.882,0,0,0-.681.284,1.473,1.473,0,0,0-.334.814H7.314v-.113a1.051,1.051,0,0,0-.254-.728A.91.91,0,0,0,6.367,47.757Zm5.332,3.2a.926.926,0,0,0,.635-.215.753.753,0,0,0,.254-.571h1.323a1.81,1.81,0,0,1-.293.984,1.933,1.933,0,0,1-.789.693,2.468,2.468,0,0,1-1.106.247,2.294,2.294,0,0,1-1.787-.72,2.85,2.85,0,0,1-.654-1.99v-.093a2.817,2.817,0,0,1,.649-1.948,2.267,2.267,0,0,1,1.782-.728,2.222,2.222,0,0,1,1.589.564,2,2,0,0,1,.608,1.5H12.588a.97.97,0,0,0-.254-.67.944.944,0,0,0-1.389.1,2.083,2.083,0,0,0-.251,1.166v.147a2.109,2.109,0,0,0,.249,1.174A.861.861,0,0,0,11.7,50.96Zm2.8-1.65a3.133,3.133,0,0,1,.3-1.4,2.216,2.216,0,0,1,.872-.952,2.543,2.543,0,0,1,1.321-.337,2.406,2.406,0,0,1,1.746.654,2.626,2.626,0,0,1,.754,1.777l.01.361a2.761,2.761,0,0,1-.679,1.951A2.359,2.359,0,0,1,17,52.1a2.371,2.371,0,0,1-1.824-.732,2.81,2.81,0,0,1-.681-1.992Zm1.411.1a1.975,1.975,0,0,0,.283,1.152,1.017,1.017,0,0,0,1.611,0,2.161,2.161,0,0,0,.288-1.259,1.955,1.955,0,0,0-.288-1.144.936.936,0,0,0-.811-.406.921.921,0,0,0-.8.4A2.2,2.2,0,0,0,15.908,49.41ZM21.86,52H20.444V44.5H21.86Zm3.594.1a2.594,2.594,0,0,1-1.892-.713,2.534,2.534,0,0,1-.73-1.9v-.137a3.192,3.192,0,0,1,.308-1.423,2.258,2.258,0,0,1,.872-.967,2.446,2.446,0,0,1,1.287-.339A2.193,2.193,0,0,1,27,47.3a2.778,2.778,0,0,1,.623,1.938v.576H24.263a1.311,1.311,0,0,0,.413.83,1.247,1.247,0,0,0,.872.313,1.523,1.523,0,0,0,1.274-.591l.693.776a2.118,2.118,0,0,1-.859.7A2.819,2.819,0,0,1,25.454,52.1Zm-.161-4.341a.882.882,0,0,0-.681.284,1.473,1.473,0,0,0-.334.814H26.24v-.113a1.051,1.051,0,0,0-.254-.728A.91.91,0,0,0,25.293,47.757Zm5.332,3.2a.926.926,0,0,0,.635-.215.753.753,0,0,0,.254-.571h1.323a1.81,1.81,0,0,1-.293.984,1.933,1.933,0,0,1-.789.693,2.468,2.468,0,0,1-1.106.247,2.294,2.294,0,0,1-1.787-.72,2.85,2.85,0,0,1-.654-1.99v-.093a2.817,2.817,0,0,1,.649-1.948,2.267,2.267,0,0,1,1.782-.728,2.222,2.222,0,0,1,1.589.564,2,2,0,0,1,.608,1.5H31.514a.97.97,0,0,0-.254-.67.944.944,0,0,0-1.389.1,2.083,2.083,0,0,0-.251,1.166v.147a2.109,2.109,0,0,0,.249,1.174A.861.861,0,0,0,30.625,50.96Zm4.707-5.542v1.3h.9v1.035h-.9v2.637a.63.63,0,0,0,.112.42.564.564,0,0,0,.43.127,2.25,2.25,0,0,0,.415-.034v1.069a2.9,2.9,0,0,1-.854.127,1.347,1.347,0,0,1-1.514-1.5V47.752h-.771V46.717h.771v-1.3ZM40.083,52a1.567,1.567,0,0,1-.142-.474,1.707,1.707,0,0,1-1.333.571,1.876,1.876,0,0,1-1.287-.449,1.445,1.445,0,0,1-.51-1.133,1.493,1.493,0,0,1,.623-1.289,3.072,3.072,0,0,1,1.8-.454h.649v-.3a.871.871,0,0,0-.188-.586.74.74,0,0,0-.593-.22.841.841,0,0,0-.559.171.581.581,0,0,0-.2.469H36.929a1.418,1.418,0,0,1,.283-.85,1.872,1.872,0,0,1,.8-.613,2.918,2.918,0,0,1,1.162-.222,2.306,2.306,0,0,1,1.55.491,1.717,1.717,0,0,1,.574,1.379v2.29a2.526,2.526,0,0,0,.21,1.138V52Zm-1.167-.981a1.215,1.215,0,0,0,.576-.139.914.914,0,0,0,.391-.374V49.6h-.527q-1.06,0-1.128.732l0,.083a.565.565,0,0,0,.186.435A.721.721,0,0,0,38.916,51.019Zm3.247-1.7a3.184,3.184,0,0,1,.554-1.968,1.8,1.8,0,0,1,1.516-.732,1.618,1.618,0,0,1,1.274.576V44.5h1.416V52H45.649l-.068-.562a1.661,1.661,0,0,1-1.357.659,1.793,1.793,0,0,1-1.5-.735A3.286,3.286,0,0,1,42.163,49.319Zm1.411.1a2.1,2.1,0,0,0,.259,1.143.842.842,0,0,0,.752.4.944.944,0,0,0,.923-.554V48.311a.93.93,0,0,0-.913-.554Q43.574,47.757,43.574,49.42Zm7.5,2.58a1.567,1.567,0,0,1-.142-.474A1.707,1.707,0,0,1,49.6,52.1a1.876,1.876,0,0,1-1.287-.449,1.445,1.445,0,0,1-.51-1.133,1.493,1.493,0,0,1,.623-1.289,3.072,3.072,0,0,1,1.8-.454h.649v-.3a.871.871,0,0,0-.188-.586.74.74,0,0,0-.593-.22.841.841,0,0,0-.559.171.581.581,0,0,0-.2.469H47.925a1.418,1.418,0,0,1,.283-.85,1.872,1.872,0,0,1,.8-.613,2.918,2.918,0,0,1,1.162-.222,2.306,2.306,0,0,1,1.55.491,1.717,1.717,0,0,1,.574,1.379v2.29a2.526,2.526,0,0,0,.21,1.138V52Zm-1.167-.981a1.215,1.215,0,0,0,.576-.139.914.914,0,0,0,.391-.374V49.6h-.527q-1.06,0-1.128.732l0,.083a.565.565,0,0,0,.186.435A.721.721,0,0,0,49.912,51.019Zm3.54.288a.71.71,0,0,1,.227-.547.882.882,0,0,1,1.143,0,.71.71,0,0,1,.227.547.7.7,0,0,1-.225.54.9.9,0,0,1-1.147,0A.7.7,0,0,1,53.452,51.307Z" transform="translate(820.664 10941)" fill="#12263f"/>
    <path id="Trazado_787586" data-name="Trazado 787586" d="M15.352-33.437h6.016q4.3,0,6.367-2.148a7.872,7.872,0,0,0,2.07-5.7,6.961,6.961,0,0,0-2.051-5.352,7.948,7.948,0,0,0-5.645-1.914,8.331,8.331,0,0,0-5.43,1.777,5.683,5.683,0,0,0-2.187,4.629H3.2a13.883,13.883,0,0,1,2.4-7.988,16.008,16.008,0,0,1,6.719-5.527,22.423,22.423,0,0,1,9.512-1.992q9.023,0,14.141,4.316t5.117,11.895a11.968,11.968,0,0,1-2.383,7.188,15.481,15.481,0,0,1-6.25,5.039,14.132,14.132,0,0,1,7.168,5.156,13.987,13.987,0,0,1,2.363,8.125A14.971,14.971,0,0,1,36.465-3.789Q30.937.781,21.836.781,13.32.781,7.91-3.711A14.671,14.671,0,0,1,2.5-15.586H13.789a6.54,6.54,0,0,0,2.4,5.234A8.853,8.853,0,0,0,22.109-8.32a8.894,8.894,0,0,0,6.309-2.129A7.349,7.349,0,0,0,30.7-16.094q0-8.516-9.375-8.516H15.352ZM50.82-5.547a5.683,5.683,0,0,1,1.816-4.375,6.445,6.445,0,0,1,4.551-1.68,6.5,6.5,0,0,1,4.59,1.68,5.683,5.683,0,0,1,1.816,4.375A5.606,5.606,0,0,1,61.8-1.23,6.525,6.525,0,0,1,57.188.43a6.472,6.472,0,0,1-4.57-1.66A5.606,5.606,0,0,1,50.82-5.547Z" transform="translate(868.994 10888.972)" fill="#fe502d"/>
    <path id="Trazado_787588" data-name="Trazado 787588" d="M45,0A45,45,0,1,1,0,45,45,45,0,0,1,45,0Z" transform="translate(702.256 10896.64) rotate(-90)" fill="#f6f6f6"/>
    <g id="Grupo_1043325" data-name="Grupo 1043325" transform="translate(739.903 10880.004)">
      <path id="Trazado_707742" data-name="Trazado 707742" d="M250.809,168.175l1.231,1.231,4.3-4.3,1.231-1.231-1.231-1.231-4.3-4.3-1.231,1.231,4.3,4.3Z" transform="translate(-228.384 -158.351)" fill="#fe502d"/>
      <path id="Trazado_707743" data-name="Trazado 707743" d="M235.743,168.175l1.231,1.231,4.3-4.3,1.231-1.231-1.231-1.231-4.3-4.3-1.231,1.231,4.3,4.3Z" transform="translate(-218.924 -158.351)" fill="#fe502d"/>
      <path id="Trazado_707744" data-name="Trazado 707744" d="M220.677,168.175l1.231,1.231,4.3-4.3,1.231-1.231-1.231-1.231-4.3-4.3-1.231,1.231,4.3,4.3Z" transform="translate(-209.465 -158.351)" fill="#fe502d"/>
      <path id="Trazado_707745" data-name="Trazado 707745" d="M205.61,168.175l1.231,1.231,4.3-4.3,1.231-1.231-1.231-1.231-4.3-4.3-1.231,1.231,4.3,4.3Z" transform="translate(-200.004 -158.351)" fill="#fe502d"/>
      <path id="Trazado_707746" data-name="Trazado 707746" d="M194.841,163.879l-4.3,4.3,1.231,1.231,4.3-4.3,1.231-1.231-1.231-1.231-4.3-4.3-1.231,1.231Z" transform="translate(-190.544 -158.351)" fill="#fe502d"/>
    </g>
    <path id="Trazado_787592" data-name="Trazado 787592" d="M31.289,0H20V-43.575L6.523-39.414v-9.1l23.555-8.437h1.211ZM50.82-5.547a5.683,5.683,0,0,1,1.816-4.375,6.445,6.445,0,0,1,4.551-1.68,6.5,6.5,0,0,1,4.59,1.68,5.683,5.683,0,0,1,1.816,4.375A5.606,5.606,0,0,1,61.8-1.23,6.525,6.525,0,0,1,57.188.43a6.472,6.472,0,0,1-4.57-1.66A5.606,5.606,0,0,1,50.82-5.547Z" transform="translate(669 10888.972)" fill="#ffca00"/>
    <path id="Trazado_787587" data-name="Trazado 787587" d="M2.192,10H.728V2.891H2.192ZM4.756,4.717l.044.61a1.845,1.845,0,0,1,1.519-.708,1.533,1.533,0,0,1,1.25.493,2.3,2.3,0,0,1,.42,1.475V10H6.577V6.613a.919.919,0,0,0-.2-.653.873.873,0,0,0-.649-.2.97.97,0,0,0-.894.509V10H3.428V4.717Zm6.279,3.56.981-3.56h1.475L11.709,10H10.361L8.579,4.717h1.475ZM16.479,10.1a2.594,2.594,0,0,1-1.892-.713,2.534,2.534,0,0,1-.73-1.9V7.349a3.192,3.192,0,0,1,.308-1.423,2.258,2.258,0,0,1,.872-.967,2.446,2.446,0,0,1,1.287-.339A2.193,2.193,0,0,1,18.03,5.3a2.778,2.778,0,0,1,.623,1.938v.576H15.288a1.311,1.311,0,0,0,.413.83,1.247,1.247,0,0,0,.872.313,1.523,1.523,0,0,0,1.274-.591l.693.776a2.118,2.118,0,0,1-.859.7A2.819,2.819,0,0,1,16.479,10.1Zm-.161-4.341a.882.882,0,0,0-.681.284,1.473,1.473,0,0,0-.334.814h1.963V6.743a1.051,1.051,0,0,0-.254-.728A.91.91,0,0,0,16.318,5.757Zm6,2.783a.455.455,0,0,0-.256-.408,2.912,2.912,0,0,0-.823-.266q-1.885-.4-1.885-1.6a1.452,1.452,0,0,1,.583-1.174,2.354,2.354,0,0,1,1.526-.471,2.533,2.533,0,0,1,1.609.474,1.493,1.493,0,0,1,.6,1.23H22.261a.683.683,0,0,0-.2-.5.827.827,0,0,0-.61-.2.845.845,0,0,0-.552.161.509.509,0,0,0-.2.41.435.435,0,0,0,.222.378,2.285,2.285,0,0,0,.75.249,6.122,6.122,0,0,1,.889.237,1.46,1.46,0,0,1,1.118,1.421,1.378,1.378,0,0,1-.62,1.169,2.675,2.675,0,0,1-1.6.447,2.794,2.794,0,0,1-1.179-.237,1.979,1.979,0,0,1-.808-.649,1.509,1.509,0,0,1-.293-.891h1.338A.737.737,0,0,0,20.8,8.9a1.1,1.1,0,0,0,.693.2,1.022,1.022,0,0,0,.613-.154A.479.479,0,0,0,22.314,8.54Zm3.97-5.122v1.3h.9V5.752h-.9V8.389a.63.63,0,0,0,.112.42.564.564,0,0,0,.43.127,2.25,2.25,0,0,0,.415-.034V9.971a2.905,2.905,0,0,1-.854.127,1.347,1.347,0,0,1-1.514-1.5V5.752H24.1V4.717h.771v-1.3ZM29.463,10H28.047V4.717h1.416Zm-1.5-6.65a.7.7,0,0,1,.212-.522.915.915,0,0,1,1.155,0,.691.691,0,0,1,.215.522.693.693,0,0,1-.217.527.905.905,0,0,1-1.147,0A.693.693,0,0,1,27.964,3.35Zm2.456,3.97A3.1,3.1,0,0,1,31,5.361a1.875,1.875,0,0,1,1.56-.742,1.644,1.644,0,0,1,1.353.6l.059-.5h1.279V9.824a2.258,2.258,0,0,1-.315,1.206,2.023,2.023,0,0,1-.886.781,3.116,3.116,0,0,1-1.338.269,2.9,2.9,0,0,1-1.133-.232,2.011,2.011,0,0,1-.835-.6l.625-.859a1.653,1.653,0,0,0,1.279.591,1.21,1.21,0,0,0,.874-.3,1.126,1.126,0,0,0,.313-.852V9.546a1.632,1.632,0,0,1-1.284.552,1.87,1.87,0,0,1-1.541-.745,3.1,3.1,0,0,1-.588-1.975Zm1.411.1a1.938,1.938,0,0,0,.288,1.131.916.916,0,0,0,.791.41.979.979,0,0,0,.923-.486V6.242a.977.977,0,0,0-.913-.486.921.921,0,0,0-.8.417A2.185,2.185,0,0,0,31.831,7.42ZM39.395,10a1.567,1.567,0,0,1-.142-.474,1.707,1.707,0,0,1-1.333.571,1.876,1.876,0,0,1-1.287-.449,1.445,1.445,0,0,1-.51-1.133,1.493,1.493,0,0,1,.623-1.289,3.072,3.072,0,0,1,1.8-.454h.649v-.3a.871.871,0,0,0-.188-.586.74.74,0,0,0-.593-.22.841.841,0,0,0-.559.171.581.581,0,0,0-.2.469H36.24a1.418,1.418,0,0,1,.283-.85,1.872,1.872,0,0,1,.8-.613,2.918,2.918,0,0,1,1.162-.222,2.306,2.306,0,0,1,1.55.491,1.717,1.717,0,0,1,.574,1.379v2.29a2.526,2.526,0,0,0,.21,1.138V10Zm-1.167-.981a1.215,1.215,0,0,0,.576-.139.914.914,0,0,0,.391-.374V7.6h-.527q-1.06,0-1.128.732l0,.083a.565.565,0,0,0,.186.435A.721.721,0,0,0,38.228,9.019Zm5.664-.059a.926.926,0,0,0,.635-.215.753.753,0,0,0,.254-.571H46.1a1.81,1.81,0,0,1-.293.984,1.933,1.933,0,0,1-.789.693,2.468,2.468,0,0,1-1.106.247,2.294,2.294,0,0,1-1.787-.72,2.85,2.85,0,0,1-.654-1.99V7.295a2.817,2.817,0,0,1,.649-1.948,2.267,2.267,0,0,1,1.782-.728,2.222,2.222,0,0,1,1.589.564,2,2,0,0,1,.608,1.5H44.78a.97.97,0,0,0-.254-.67.944.944,0,0,0-1.389.1,2.083,2.083,0,0,0-.251,1.166v.147A2.109,2.109,0,0,0,43.135,8.6.861.861,0,0,0,43.892,8.96ZM48.4,10H46.982V4.717H48.4ZM46.9,3.35a.7.7,0,0,1,.212-.522.915.915,0,0,1,1.155,0,.691.691,0,0,1,.215.522.693.693,0,0,1-.217.527.905.905,0,0,1-1.147,0A.693.693,0,0,1,46.9,3.35Zm2.441,3.96a3.133,3.133,0,0,1,.3-1.4,2.216,2.216,0,0,1,.872-.952,2.543,2.543,0,0,1,1.321-.337,2.406,2.406,0,0,1,1.746.654,2.626,2.626,0,0,1,.754,1.777l.01.361a2.761,2.761,0,0,1-.679,1.951,2.631,2.631,0,0,1-3.645,0,2.81,2.81,0,0,1-.681-1.992Zm1.411.1a1.975,1.975,0,0,0,.283,1.152,1.017,1.017,0,0,0,1.611,0,2.161,2.161,0,0,0,.288-1.259,1.955,1.955,0,0,0-.288-1.144.936.936,0,0,0-.811-.406.921.921,0,0,0-.8.4A2.2,2.2,0,0,0,50.752,7.41ZM52.114,2.5h1.538L52.3,4.014H51.152Zm4.4,2.217.044.61a1.845,1.845,0,0,1,1.519-.708,1.533,1.533,0,0,1,1.25.493,2.3,2.3,0,0,1,.42,1.475V10H58.335V6.613a.919.919,0,0,0-.2-.653.873.873,0,0,0-.649-.2.97.97,0,0,0-.894.509V10H55.186V4.717Zm11.548,2.69a3.169,3.169,0,0,1-.554,1.956,1.777,1.777,0,0,1-1.5.735,1.646,1.646,0,0,1-1.294-.557v2.49H63.306V4.717h1.309l.049.518A1.658,1.658,0,0,1,66,4.619a1.789,1.789,0,0,1,1.519.723,3.254,3.254,0,0,1,.542,1.992ZM66.65,7.3a2.091,2.091,0,0,0-.261-1.141.85.85,0,0,0-.759-.4.924.924,0,0,0-.913.509v2.17a.939.939,0,0,0,.923.524Q66.65,8.96,66.65,7.3ZM71.9,6.04A3.834,3.834,0,0,0,71.4,6a1.034,1.034,0,0,0-1.05.542V10H68.936V4.717h1.333l.039.63a1.308,1.308,0,0,1,1.177-.728,1.479,1.479,0,0,1,.439.063ZM74.922,10.1a2.594,2.594,0,0,1-1.892-.713,2.534,2.534,0,0,1-.73-1.9V7.349a3.192,3.192,0,0,1,.308-1.423,2.258,2.258,0,0,1,.872-.967,2.446,2.446,0,0,1,1.287-.339,2.193,2.193,0,0,1,1.707.684,2.778,2.778,0,0,1,.623,1.938v.576H73.73a1.311,1.311,0,0,0,.413.83,1.247,1.247,0,0,0,.872.313,1.523,1.523,0,0,0,1.274-.591l.693.776a2.118,2.118,0,0,1-.859.7A2.819,2.819,0,0,1,74.922,10.1Zm-.161-4.341a.882.882,0,0,0-.681.284,1.473,1.473,0,0,0-.334.814h1.963V6.743a1.051,1.051,0,0,0-.254-.728A.91.91,0,0,0,74.761,5.757ZM79.385,10H77.969V2.5h1.416Zm2.651,0H80.62V4.717h1.416Zm-1.5-6.65a.7.7,0,0,1,.212-.522.915.915,0,0,1,1.155,0,.691.691,0,0,1,.215.522.693.693,0,0,1-.217.527.905.905,0,0,1-1.147,0A.693.693,0,0,1,80.537,3.35Zm3.984,1.367.044.591a1.857,1.857,0,0,1,1.519-.688,1.409,1.409,0,0,1,1.4.806,1.814,1.814,0,0,1,1.587-.806,1.576,1.576,0,0,1,1.279.5,2.3,2.3,0,0,1,.42,1.506V10H89.355V6.623a1.01,1.01,0,0,0-.176-.658.778.778,0,0,0-.62-.208.881.881,0,0,0-.879.607l0,3.636H86.274V6.628a1,1,0,0,0-.181-.666.786.786,0,0,0-.615-.206.914.914,0,0,0-.869.5V10H83.2V4.717ZM93.345,10H91.929V4.717h1.416Zm-1.5-6.65a.7.7,0,0,1,.212-.522.915.915,0,0,1,1.155,0,.691.691,0,0,1,.215.522.693.693,0,0,1-.217.527.905.905,0,0,1-1.147,0A.693.693,0,0,1,91.846,3.35Zm3.96,1.367.044.61a1.845,1.845,0,0,1,1.519-.708,1.533,1.533,0,0,1,1.25.493,2.3,2.3,0,0,1,.42,1.475V10H97.627V6.613a.919.919,0,0,0-.2-.653.873.873,0,0,0-.649-.2.97.97,0,0,0-.894.509V10H94.478V4.717ZM103.169,10a1.567,1.567,0,0,1-.142-.474,1.707,1.707,0,0,1-1.333.571,1.876,1.876,0,0,1-1.287-.449,1.445,1.445,0,0,1-.51-1.133,1.493,1.493,0,0,1,.623-1.289,3.072,3.072,0,0,1,1.8-.454h.649v-.3a.871.871,0,0,0-.188-.586.74.74,0,0,0-.593-.22.841.841,0,0,0-.559.171.581.581,0,0,0-.2.469h-1.411a1.417,1.417,0,0,1,.283-.85,1.872,1.872,0,0,1,.8-.613,2.918,2.918,0,0,1,1.162-.222,2.306,2.306,0,0,1,1.55.491,1.717,1.717,0,0,1,.574,1.379v2.29a2.526,2.526,0,0,0,.21,1.138V10ZM102,9.019a1.215,1.215,0,0,0,.576-.139.914.914,0,0,0,.391-.374V7.6h-.527q-1.06,0-1.128.732l0,.083a.565.565,0,0,0,.186.435A.721.721,0,0,0,102,9.019Zm6.436-2.979A3.834,3.834,0,0,0,107.93,6a1.034,1.034,0,0,0-1.05.542V10h-1.411V4.717H106.8l.039.63a1.308,1.308,0,0,1,1.177-.728,1.479,1.479,0,0,1,.439.063ZM3.4,22.54a.455.455,0,0,0-.256-.408,2.912,2.912,0,0,0-.823-.266q-1.885-.4-1.885-1.6a1.452,1.452,0,0,1,.583-1.174,2.354,2.354,0,0,1,1.526-.471,2.533,2.533,0,0,1,1.609.474,1.493,1.493,0,0,1,.6,1.23H3.35a.683.683,0,0,0-.2-.5.827.827,0,0,0-.61-.2.845.845,0,0,0-.552.161.509.509,0,0,0-.2.41.435.435,0,0,0,.222.378,2.285,2.285,0,0,0,.75.249,6.122,6.122,0,0,1,.889.237,1.46,1.46,0,0,1,1.118,1.421,1.378,1.378,0,0,1-.62,1.169,2.675,2.675,0,0,1-1.6.447,2.794,2.794,0,0,1-1.179-.237,1.979,1.979,0,0,1-.808-.649,1.509,1.509,0,0,1-.293-.891H1.611a.737.737,0,0,0,.278.576,1.1,1.1,0,0,0,.693.2,1.022,1.022,0,0,0,.613-.154A.479.479,0,0,0,3.4,22.54Zm2.061-1.23a3.133,3.133,0,0,1,.3-1.4,2.216,2.216,0,0,1,.872-.952,2.543,2.543,0,0,1,1.321-.337,2.406,2.406,0,0,1,1.746.654,2.626,2.626,0,0,1,.754,1.777l.01.361a2.761,2.761,0,0,1-.679,1.951,2.359,2.359,0,0,1-1.821.735,2.371,2.371,0,0,1-1.824-.732,2.81,2.81,0,0,1-.681-1.992Zm1.411.1a1.975,1.975,0,0,0,.283,1.152.934.934,0,0,0,.811.4.936.936,0,0,0,.8-.394,2.161,2.161,0,0,0,.288-1.259,1.955,1.955,0,0,0-.288-1.144.936.936,0,0,0-.811-.406.921.921,0,0,0-.8.4A2.2,2.2,0,0,0,6.875,21.41Zm9.224,0a3.2,3.2,0,0,1-.542,1.98,1.8,1.8,0,0,1-1.514.71,1.649,1.649,0,0,1-1.372-.659L12.607,24h-1.27V16.5h1.411v2.69a1.607,1.607,0,0,1,1.284-.571,1.81,1.81,0,0,1,1.516.71,3.2,3.2,0,0,1,.549,2ZM14.688,21.3a2.113,2.113,0,0,0-.254-1.173.858.858,0,0,0-.757-.37.931.931,0,0,0-.928.553V22.4a.943.943,0,0,0,.938.558.872.872,0,0,0,.9-.676A3.5,3.5,0,0,0,14.688,21.3Zm5.249-1.26A3.834,3.834,0,0,0,19.429,20a1.034,1.034,0,0,0-1.05.542V24H16.968V18.717H18.3l.039.63a1.308,1.308,0,0,1,1.177-.728,1.479,1.479,0,0,1,.439.063ZM22.954,24.1a2.594,2.594,0,0,1-1.892-.713,2.534,2.534,0,0,1-.73-1.9v-.137a3.192,3.192,0,0,1,.308-1.423,2.258,2.258,0,0,1,.872-.967,2.446,2.446,0,0,1,1.287-.339A2.193,2.193,0,0,1,24.5,19.3a2.778,2.778,0,0,1,.623,1.938v.576H21.763a1.311,1.311,0,0,0,.413.83,1.247,1.247,0,0,0,.872.313,1.523,1.523,0,0,0,1.274-.591l.693.776a2.118,2.118,0,0,1-.859.7A2.819,2.819,0,0,1,22.954,24.1Zm-.161-4.341a.882.882,0,0,0-.681.284,1.473,1.473,0,0,0-.334.814H23.74v-.113a1.051,1.051,0,0,0-.254-.728A.91.91,0,0,0,22.793,19.757ZM29.907,24H28.491V16.5h1.416Zm4.224,0a1.567,1.567,0,0,1-.142-.474,1.707,1.707,0,0,1-1.333.571,1.876,1.876,0,0,1-1.287-.449,1.445,1.445,0,0,1-.51-1.133,1.493,1.493,0,0,1,.623-1.289,3.072,3.072,0,0,1,1.8-.454h.649v-.3a.871.871,0,0,0-.188-.586.74.74,0,0,0-.593-.22.841.841,0,0,0-.559.171.581.581,0,0,0-.2.469H30.977a1.417,1.417,0,0,1,.283-.85,1.872,1.872,0,0,1,.8-.613,2.918,2.918,0,0,1,1.162-.222,2.306,2.306,0,0,1,1.55.491,1.717,1.717,0,0,1,.574,1.379v2.29a2.526,2.526,0,0,0,.21,1.138V24Zm-1.167-.981a1.215,1.215,0,0,0,.576-.139.914.914,0,0,0,.391-.374V21.6H33.4q-1.06,0-1.128.732l0,.083a.565.565,0,0,0,.186.435A.721.721,0,0,0,32.964,23.019ZM40.41,24H38.994V18.717H40.41Zm-1.5-6.65a.7.7,0,0,1,.212-.522.915.915,0,0,1,1.155,0,.746.746,0,0,1,0,1.05.905.905,0,0,1-1.147,0A.693.693,0,0,1,38.911,17.35Zm3.96,1.367.044.61a1.845,1.845,0,0,1,1.519-.708,1.533,1.533,0,0,1,1.25.493,2.3,2.3,0,0,1,.42,1.475V24H44.692V20.613a.919.919,0,0,0-.2-.653.873.873,0,0,0-.649-.2.97.97,0,0,0-.894.509V24H41.543V18.717Zm7.163,3.823a.455.455,0,0,0-.256-.408,2.912,2.912,0,0,0-.823-.266q-1.885-.4-1.885-1.6a1.452,1.452,0,0,1,.583-1.174,2.354,2.354,0,0,1,1.526-.471,2.533,2.533,0,0,1,1.609.474,1.493,1.493,0,0,1,.6,1.23H49.98a.683.683,0,0,0-.2-.5.827.827,0,0,0-.61-.2.845.845,0,0,0-.552.161.509.509,0,0,0-.2.41.435.435,0,0,0,.222.378,2.285,2.285,0,0,0,.75.249,6.122,6.122,0,0,1,.889.237,1.46,1.46,0,0,1,1.118,1.421,1.378,1.378,0,0,1-.62,1.169,2.675,2.675,0,0,1-1.6.447,2.794,2.794,0,0,1-1.179-.237,1.978,1.978,0,0,1-.808-.649,1.509,1.509,0,0,1-.293-.891h1.338a.737.737,0,0,0,.278.576,1.1,1.1,0,0,0,.693.2,1.022,1.022,0,0,0,.613-.154A.479.479,0,0,0,50.034,22.54ZM54,17.418v1.3h.9v1.035H54v2.637a.63.63,0,0,0,.112.42.564.564,0,0,0,.43.127,2.25,2.25,0,0,0,.415-.034v1.069a2.905,2.905,0,0,1-.854.127,1.347,1.347,0,0,1-1.514-1.5V19.752h-.771V18.717h.771v-1.3ZM57.183,24H55.767V18.717h1.416Zm-1.5-6.65a.7.7,0,0,1,.212-.522.915.915,0,0,1,1.155,0,.746.746,0,0,1,0,1.05.905.905,0,0,1-1.147,0A.693.693,0,0,1,55.684,17.35Zm4.351.068v1.3h.9v1.035h-.9v2.637a.63.63,0,0,0,.112.42.564.564,0,0,0,.43.127,2.25,2.25,0,0,0,.415-.034v1.069a2.905,2.905,0,0,1-.854.127,1.347,1.347,0,0,1-1.514-1.5V19.752h-.771V18.717h.771v-1.3Zm4.854,6.045a1.77,1.77,0,0,1-1.445.635,1.669,1.669,0,0,1-1.3-.488,2.084,2.084,0,0,1-.457-1.431V18.717H63.1v3.417q0,.826.752.826a1.019,1.019,0,0,0,.986-.5V18.717h1.416V24H64.927Zm4.629-.5a.926.926,0,0,0,.635-.215.753.753,0,0,0,.254-.571h1.323a1.81,1.81,0,0,1-.293.984,1.933,1.933,0,0,1-.789.693,2.468,2.468,0,0,1-1.106.247,2.294,2.294,0,0,1-1.787-.72,2.85,2.85,0,0,1-.654-1.99v-.093a2.817,2.817,0,0,1,.649-1.948,2.267,2.267,0,0,1,1.782-.728,2.222,2.222,0,0,1,1.589.564,2,2,0,0,1,.608,1.5H70.405a.97.97,0,0,0-.254-.67.944.944,0,0,0-1.389.1,2.083,2.083,0,0,0-.251,1.166v.147A2.109,2.109,0,0,0,68.76,22.6.861.861,0,0,0,69.517,22.96ZM74.023,24H72.607V18.717h1.416Zm-1.5-6.65a.7.7,0,0,1,.212-.522.915.915,0,0,1,1.155,0,.746.746,0,0,1,0,1.05.905.905,0,0,1-1.147,0A.693.693,0,0,1,72.524,17.35Zm2.441,3.96a3.133,3.133,0,0,1,.3-1.4,2.216,2.216,0,0,1,.872-.952,2.543,2.543,0,0,1,1.321-.337,2.406,2.406,0,0,1,1.746.654,2.626,2.626,0,0,1,.754,1.777l.01.361a2.761,2.761,0,0,1-.679,1.951,2.631,2.631,0,0,1-3.645,0,2.81,2.81,0,0,1-.681-1.992Zm1.411.1a1.975,1.975,0,0,0,.283,1.152,1.017,1.017,0,0,0,1.611,0,2.161,2.161,0,0,0,.288-1.259,1.955,1.955,0,0,0-.288-1.144.936.936,0,0,0-.811-.406.921.921,0,0,0-.8.4A2.2,2.2,0,0,0,76.377,21.41Zm1.362-4.91h1.538l-1.353,1.514H76.777Zm4.4,2.217.044.61a1.845,1.845,0,0,1,1.519-.708,1.533,1.533,0,0,1,1.25.493,2.3,2.3,0,0,1,.42,1.475V24H83.96V20.613a.919.919,0,0,0-.2-.653.873.873,0,0,0-.649-.2.97.97,0,0,0-.894.509V24H80.811V18.717ZM90.9,22l.977-3.286h1.514l-2.124,6.1-.117.278a1.61,1.61,0,0,1-1.562,1.035,2.22,2.22,0,0,1-.625-.093V24.972l.215,0a1.161,1.161,0,0,0,.6-.122.8.8,0,0,0,.31-.405l.166-.435-1.851-5.3h1.519ZM.928,38V33.752H.142V32.717H.928v-.449a1.824,1.824,0,0,1,.51-1.379A1.976,1.976,0,0,1,2.866,30.4a3.326,3.326,0,0,1,.718.1l-.015,1.085a1.8,1.8,0,0,0-.43-.044q-.8,0-.8.753v.428h1.05v1.035H2.344V38Zm6.362-.537a1.77,1.77,0,0,1-1.445.635,1.669,1.669,0,0,1-1.3-.488,2.084,2.084,0,0,1-.457-1.431V32.717H5.5v3.417q0,.826.752.826a1.019,1.019,0,0,0,.986-.5V32.717H8.657V38H7.329Zm4.863.635a2.594,2.594,0,0,1-1.892-.713,2.534,2.534,0,0,1-.73-1.9v-.137a3.192,3.192,0,0,1,.308-1.423,2.258,2.258,0,0,1,.872-.967A2.446,2.446,0,0,1,12,32.619,2.193,2.193,0,0,1,13.7,33.3a2.778,2.778,0,0,1,.623,1.938v.576H10.962a1.311,1.311,0,0,0,.413.83,1.247,1.247,0,0,0,.872.313,1.523,1.523,0,0,0,1.274-.591l.693.776a2.118,2.118,0,0,1-.859.7A2.819,2.819,0,0,1,12.153,38.1Zm-.161-4.341a.882.882,0,0,0-.681.284,1.473,1.473,0,0,0-.334.814h1.963v-.113a1.051,1.051,0,0,0-.254-.728A.91.91,0,0,0,11.992,33.757Zm4.434-1.04.044.61a1.845,1.845,0,0,1,1.519-.708,1.533,1.533,0,0,1,1.25.493,2.3,2.3,0,0,1,.42,1.475V38H18.247V34.613a.919.919,0,0,0-.2-.653.873.873,0,0,0-.649-.2.97.97,0,0,0-.894.509V38H15.1V32.717Zm5.991-1.3v1.3h.9v1.035h-.9v2.637a.63.63,0,0,0,.112.42.564.564,0,0,0,.43.127,2.25,2.25,0,0,0,.415-.034v1.069a2.9,2.9,0,0,1-.854.127,1.347,1.347,0,0,1-1.514-1.5V33.752h-.771V32.717h.771v-1.3Zm4.121,6.68a2.594,2.594,0,0,1-1.892-.713,2.534,2.534,0,0,1-.73-1.9v-.137a3.192,3.192,0,0,1,.308-1.423,2.258,2.258,0,0,1,.872-.967,2.446,2.446,0,0,1,1.287-.339,2.193,2.193,0,0,1,1.707.684,2.778,2.778,0,0,1,.623,1.938v.576H25.347a1.311,1.311,0,0,0,.413.83,1.247,1.247,0,0,0,.872.313,1.523,1.523,0,0,0,1.274-.591l.693.776a2.118,2.118,0,0,1-.859.7A2.819,2.819,0,0,1,26.538,38.1Zm-.161-4.341a.882.882,0,0,0-.681.284,1.473,1.473,0,0,0-.334.814h1.963v-.113a1.051,1.051,0,0,0-.254-.728A.91.91,0,0,0,26.377,33.757Zm6,2.783a.455.455,0,0,0-.256-.408,2.912,2.912,0,0,0-.823-.266q-1.885-.4-1.885-1.6a1.452,1.452,0,0,1,.583-1.174,2.354,2.354,0,0,1,1.526-.471,2.533,2.533,0,0,1,1.609.474,1.493,1.493,0,0,1,.6,1.23H32.319a.683.683,0,0,0-.2-.5.827.827,0,0,0-.61-.2.845.845,0,0,0-.552.161.509.509,0,0,0-.2.41.435.435,0,0,0,.222.378,2.286,2.286,0,0,0,.75.249,6.122,6.122,0,0,1,.889.237,1.46,1.46,0,0,1,1.118,1.421,1.378,1.378,0,0,1-.62,1.169,2.675,2.675,0,0,1-1.6.447,2.794,2.794,0,0,1-1.179-.237,1.979,1.979,0,0,1-.808-.649,1.509,1.509,0,0,1-.293-.891h1.338a.737.737,0,0,0,.278.576,1.1,1.1,0,0,0,.693.2,1.022,1.022,0,0,0,.613-.154A.479.479,0,0,0,32.373,36.54Zm4.551-1.221a3.184,3.184,0,0,1,.554-1.968,1.8,1.8,0,0,1,1.516-.732,1.618,1.618,0,0,1,1.274.576V30.5h1.416V38H40.41l-.068-.562a1.661,1.661,0,0,1-1.357.659,1.793,1.793,0,0,1-1.5-.735A3.286,3.286,0,0,1,36.924,35.319Zm1.411.1a2.1,2.1,0,0,0,.259,1.143.842.842,0,0,0,.752.4.944.944,0,0,0,.923-.554V34.311a.93.93,0,0,0-.913-.554Q38.335,33.757,38.335,35.42Zm4.224-.11a3.133,3.133,0,0,1,.3-1.4,2.216,2.216,0,0,1,.872-.952,2.543,2.543,0,0,1,1.321-.337,2.406,2.406,0,0,1,1.746.654,2.626,2.626,0,0,1,.754,1.777l.01.361a2.761,2.761,0,0,1-.679,1.951,2.631,2.631,0,0,1-3.645,0,2.81,2.81,0,0,1-.681-1.992Zm1.411.1a1.975,1.975,0,0,0,.283,1.152,1.017,1.017,0,0,0,1.611,0,2.161,2.161,0,0,0,.288-1.259,1.955,1.955,0,0,0-.288-1.144.936.936,0,0,0-.811-.406.921.921,0,0,0-.8.4A2.2,2.2,0,0,0,43.97,35.41Zm6.66,1.55a.926.926,0,0,0,.635-.215.753.753,0,0,0,.254-.571h1.323a1.81,1.81,0,0,1-.293.984,1.933,1.933,0,0,1-.789.693,2.468,2.468,0,0,1-1.106.247,2.294,2.294,0,0,1-1.787-.72,2.85,2.85,0,0,1-.654-1.99v-.093a2.817,2.817,0,0,1,.649-1.948,2.267,2.267,0,0,1,1.782-.728,2.222,2.222,0,0,1,1.589.564,2,2,0,0,1,.608,1.5H51.519a.97.97,0,0,0-.254-.67.944.944,0,0,0-1.389.1,2.083,2.083,0,0,0-.251,1.166v.147a2.109,2.109,0,0,0,.249,1.174A.861.861,0,0,0,50.63,36.96Zm6.182.5a1.77,1.77,0,0,1-1.445.635,1.669,1.669,0,0,1-1.3-.488,2.084,2.084,0,0,1-.457-1.431V32.717h1.411v3.417q0,.826.752.826a1.019,1.019,0,0,0,.986-.5V32.717h1.416V38H56.851Zm3.755-4.746.044.591a1.857,1.857,0,0,1,1.519-.688,1.409,1.409,0,0,1,1.4.806,1.814,1.814,0,0,1,1.587-.806,1.576,1.576,0,0,1,1.279.5,2.3,2.3,0,0,1,.42,1.506V38H65.4V34.623a1.01,1.01,0,0,0-.176-.658.778.778,0,0,0-.62-.208.881.881,0,0,0-.879.607l0,3.636H62.319V34.628a1,1,0,0,0-.181-.666.786.786,0,0,0-.615-.206.914.914,0,0,0-.869.5V38H59.243V32.717ZM70.332,38.1a2.594,2.594,0,0,1-1.892-.713,2.534,2.534,0,0,1-.73-1.9v-.137a3.192,3.192,0,0,1,.308-1.423,2.258,2.258,0,0,1,.872-.967,2.446,2.446,0,0,1,1.287-.339,2.193,2.193,0,0,1,1.707.684,2.778,2.778,0,0,1,.623,1.938v.576H69.141a1.311,1.311,0,0,0,.413.83,1.247,1.247,0,0,0,.872.313,1.523,1.523,0,0,0,1.274-.591l.693.776a2.118,2.118,0,0,1-.859.7A2.819,2.819,0,0,1,70.332,38.1Zm-.161-4.341a.882.882,0,0,0-.681.284,1.473,1.473,0,0,0-.334.814h1.963v-.113a1.051,1.051,0,0,0-.254-.728A.91.91,0,0,0,70.171,33.757Zm4.434-1.04.044.61a1.845,1.845,0,0,1,1.519-.708,1.533,1.533,0,0,1,1.25.493,2.3,2.3,0,0,1,.42,1.475V38H76.426V34.613a.919.919,0,0,0-.2-.653.873.873,0,0,0-.649-.2.97.97,0,0,0-.894.509V38H73.276V32.717Zm5.991-1.3v1.3h.9v1.035h-.9v2.637a.63.63,0,0,0,.112.42.564.564,0,0,0,.43.127,2.25,2.25,0,0,0,.415-.034v1.069a2.9,2.9,0,0,1-.854.127,1.347,1.347,0,0,1-1.514-1.5V33.752h-.771V32.717h.771v-1.3ZM85.347,38a1.567,1.567,0,0,1-.142-.474,1.707,1.707,0,0,1-1.333.571,1.876,1.876,0,0,1-1.287-.449,1.445,1.445,0,0,1-.51-1.133,1.493,1.493,0,0,1,.623-1.289,3.072,3.072,0,0,1,1.8-.454h.649v-.3a.871.871,0,0,0-.188-.586.74.74,0,0,0-.593-.22.841.841,0,0,0-.559.171.581.581,0,0,0-.2.469H82.192a1.417,1.417,0,0,1,.283-.85,1.872,1.872,0,0,1,.8-.613,2.918,2.918,0,0,1,1.162-.222,2.306,2.306,0,0,1,1.55.491,1.717,1.717,0,0,1,.574,1.379v2.29a2.526,2.526,0,0,0,.21,1.138V38Zm-1.167-.981a1.215,1.215,0,0,0,.576-.139.914.914,0,0,0,.391-.374V35.6h-.527q-1.06,0-1.128.732l0,.083a.565.565,0,0,0,.186.435A.721.721,0,0,0,84.18,37.019ZM89.136,38H87.72V30.5h1.416Zm3.594.1a2.594,2.594,0,0,1-1.892-.713,2.534,2.534,0,0,1-.73-1.9v-.137a3.192,3.192,0,0,1,.308-1.423,2.258,2.258,0,0,1,.872-.967,2.446,2.446,0,0,1,1.287-.339,2.193,2.193,0,0,1,1.707.684,2.778,2.778,0,0,1,.623,1.938v.576H91.538a1.311,1.311,0,0,0,.413.83,1.247,1.247,0,0,0,.872.313,1.523,1.523,0,0,0,1.274-.591l.693.776a2.118,2.118,0,0,1-.859.7A2.819,2.819,0,0,1,92.729,38.1Zm-.161-4.341a.882.882,0,0,0-.681.284,1.473,1.473,0,0,0-.334.814h1.963v-.113a1.051,1.051,0,0,0-.254-.728A.91.91,0,0,0,92.568,33.757Zm6,2.783a.455.455,0,0,0-.256-.408,2.912,2.912,0,0,0-.823-.266q-1.885-.4-1.885-1.6a1.452,1.452,0,0,1,.583-1.174,2.354,2.354,0,0,1,1.526-.471,2.533,2.533,0,0,1,1.609.474,1.493,1.493,0,0,1,.6,1.23H98.511a.683.683,0,0,0-.2-.5.827.827,0,0,0-.61-.2.845.845,0,0,0-.552.161.509.509,0,0,0-.2.41.435.435,0,0,0,.222.378,2.286,2.286,0,0,0,.75.249,6.122,6.122,0,0,1,.889.237,1.46,1.46,0,0,1,1.118,1.421,1.378,1.378,0,0,1-.62,1.169,2.675,2.675,0,0,1-1.6.447,2.794,2.794,0,0,1-1.179-.237,1.979,1.979,0,0,1-.808-.649,1.509,1.509,0,0,1-.293-.891h1.338a.737.737,0,0,0,.278.576,1.1,1.1,0,0,0,.693.2,1.022,1.022,0,0,0,.613-.154A.479.479,0,0,0,98.564,36.54Zm2.354.767a.71.71,0,0,1,.227-.547.882.882,0,0,1,1.143,0,.71.71,0,0,1,.227.547.7.7,0,0,1-.225.54.9.9,0,0,1-1.147,0A.7.7,0,0,1,100.918,37.307Z" transform="translate(721.192 10813.396)" fill="#12263f"/>
  </g>
</svg>
