<svg xmlns="http://www.w3.org/2000/svg" width="331.113" height="293.685" viewBox="0 0 331.113 293.685">
  <g id="Grupo_1043386" data-name="Grupo 1043386" transform="translate(11771.113 9143.728)">
    <path id="Trazado_787635" data-name="Trazado 787635" d="M0,0H114.987V10.209H0Z" transform="translate(-11742.129 -9087.002) rotate(90)" fill="#0d2380"/>
    <path id="Trazado_787598" data-name="Trazado 787598" d="M67.165,0c37.094,0,67.165,29.83,67.165,66.628s-30.071,66.628-67.165,66.628S0,103.426,0,66.628,30.071,0,67.165,0Z" transform="translate(-11771.113 -9009.396) rotate(-90)" fill="#fff7d9"/>
    <path id="Trazado_787599" data-name="Trazado 787599" d="M1.517,0A1.517,1.517,0,1,1,0,1.517,1.517,1.517,0,0,1,1.517,0Z" transform="translate(-11683.755 -9140.693) rotate(-90)" fill="#2d54fe"/>
    <path id="Trazado_787600" data-name="Trazado 787600" d="M1.517,0A1.517,1.517,0,1,1,0,1.517,1.517,1.517,0,0,1,1.517,0Z" transform="translate(-11683.755 -9125.32) rotate(-90)" fill="#2d54fe"/>
    <path id="Trazado_787601" data-name="Trazado 787601" d="M1.517,0A1.517,1.517,0,1,1,0,1.517,1.517,1.517,0,0,1,1.517,0Z" transform="translate(-11683.755 -9109.947) rotate(-90)" fill="#2d54fe"/>
    <path id="Trazado_787602" data-name="Trazado 787602" d="M1.517,0A1.517,1.517,0,1,1,0,1.517,1.517,1.517,0,0,1,1.517,0Z" transform="translate(-11683.755 -9094.574) rotate(-90)" fill="#2d54fe"/>
    <path id="Trazado_787603" data-name="Trazado 787603" d="M1.517,0A1.517,1.517,0,1,1,0,1.517,1.517,1.517,0,0,1,1.517,0Z" transform="translate(-11683.755 -9079.201) rotate(-90)" fill="#2d54fe"/>
    <path id="Trazado_787604" data-name="Trazado 787604" d="M1.517,0A1.517,1.517,0,1,1,0,1.517,1.517,1.517,0,0,1,1.517,0Z" transform="translate(-11683.755 -9063.424) rotate(-90)" fill="#2d54fe"/>
    <path id="Trazado_787605" data-name="Trazado 787605" d="M1.517,0A1.517,1.517,0,1,1,0,1.517,1.517,1.517,0,0,1,1.517,0Z" transform="translate(-11699.937 -9140.693) rotate(-90)" fill="#2d54fe"/>
    <path id="Trazado_787606" data-name="Trazado 787606" d="M1.517,0A1.517,1.517,0,1,1,0,1.517,1.517,1.517,0,0,1,1.517,0Z" transform="translate(-11699.937 -9125.32) rotate(-90)" fill="#2d54fe"/>
    <path id="Trazado_787607" data-name="Trazado 787607" d="M1.517,0A1.517,1.517,0,1,1,0,1.517,1.517,1.517,0,0,1,1.517,0Z" transform="translate(-11699.937 -9109.947) rotate(-90)" fill="#2d54fe"/>
    <path id="Trazado_787608" data-name="Trazado 787608" d="M1.517,0A1.517,1.517,0,1,1,0,1.517,1.517,1.517,0,0,1,1.517,0Z" transform="translate(-11699.937 -9094.574) rotate(-90)" fill="#2d54fe"/>
    <path id="Trazado_787609" data-name="Trazado 787609" d="M1.517,0A1.517,1.517,0,1,1,0,1.517,1.517,1.517,0,0,1,1.517,0Z" transform="translate(-11699.937 -9079.201) rotate(-90)" fill="#2d54fe"/>
    <path id="Trazado_787610" data-name="Trazado 787610" d="M1.517,0A1.517,1.517,0,1,1,0,1.517,1.517,1.517,0,0,1,1.517,0Z" transform="translate(-11699.937 -9063.424) rotate(-90)" fill="#2d54fe"/>
    <path id="Trazado_787611" data-name="Trazado 787611" d="M1.517,0A1.517,1.517,0,1,1,0,1.517,1.517,1.517,0,0,1,1.517,0Z" transform="translate(-11716.119 -9140.693) rotate(-90)" fill="#2d54fe"/>
    <path id="Trazado_787612" data-name="Trazado 787612" d="M1.517,0A1.517,1.517,0,1,1,0,1.517,1.517,1.517,0,0,1,1.517,0Z" transform="translate(-11716.119 -9125.32) rotate(-90)" fill="#2d54fe"/>
    <path id="Trazado_787613" data-name="Trazado 787613" d="M1.517,0A1.517,1.517,0,1,1,0,1.517,1.517,1.517,0,0,1,1.517,0Z" transform="translate(-11716.119 -9109.947) rotate(-90)" fill="#2d54fe"/>
    <path id="Trazado_787614" data-name="Trazado 787614" d="M1.517,0A1.517,1.517,0,1,1,0,1.517,1.517,1.517,0,0,1,1.517,0Z" transform="translate(-11716.119 -9094.574) rotate(-90)" fill="#2d54fe"/>
    <path id="Trazado_787615" data-name="Trazado 787615" d="M1.517,0A1.517,1.517,0,1,1,0,1.517,1.517,1.517,0,0,1,1.517,0Z" transform="translate(-11716.119 -9079.201) rotate(-90)" fill="#2d54fe"/>
    <path id="Trazado_787616" data-name="Trazado 787616" d="M1.517,0A1.517,1.517,0,1,1,0,1.517,1.517,1.517,0,0,1,1.517,0Z" transform="translate(-11716.119 -9063.424) rotate(-90)" fill="#2d54fe"/>
    <path id="Trazado_787617" data-name="Trazado 787617" d="M1.517,0A1.517,1.517,0,1,1,0,1.517,1.517,1.517,0,0,1,1.517,0Z" transform="translate(-11732.301 -9140.693) rotate(-90)" fill="#2d54fe"/>
    <path id="Trazado_787618" data-name="Trazado 787618" d="M1.517,0A1.517,1.517,0,1,1,0,1.517,1.517,1.517,0,0,1,1.517,0Z" transform="translate(-11732.301 -9125.32) rotate(-90)" fill="#2d54fe"/>
    <path id="Trazado_787619" data-name="Trazado 787619" d="M1.517,0A1.517,1.517,0,1,1,0,1.517,1.517,1.517,0,0,1,1.517,0Z" transform="translate(-11732.301 -9109.947) rotate(-90)" fill="#2d54fe"/>
    <path id="Trazado_787620" data-name="Trazado 787620" d="M1.517,0A1.517,1.517,0,1,1,0,1.517,1.517,1.517,0,0,1,1.517,0Z" transform="translate(-11732.301 -9094.574) rotate(-90)" fill="#2d54fe"/>
    <path id="Trazado_787621" data-name="Trazado 787621" d="M1.517,0A1.517,1.517,0,1,1,0,1.517,1.517,1.517,0,0,1,1.517,0Z" transform="translate(-11732.301 -9079.201) rotate(-90)" fill="#2d54fe"/>
    <path id="Trazado_787622" data-name="Trazado 787622" d="M1.517,0A1.517,1.517,0,1,1,0,1.517,1.517,1.517,0,0,1,1.517,0Z" transform="translate(-11732.301 -9063.424) rotate(-90)" fill="#2d54fe"/>
    <path id="Trazado_787623" data-name="Trazado 787623" d="M1.517,0A1.517,1.517,0,1,1,0,1.517,1.517,1.517,0,0,1,1.517,0Z" transform="translate(-11748.483 -9140.693) rotate(-90)" fill="#2d54fe"/>
    <path id="Trazado_787624" data-name="Trazado 787624" d="M1.517,0A1.517,1.517,0,1,1,0,1.517,1.517,1.517,0,0,1,1.517,0Z" transform="translate(-11748.483 -9125.32) rotate(-90)" fill="#2d54fe"/>
    <path id="Trazado_787625" data-name="Trazado 787625" d="M1.517,0A1.517,1.517,0,1,1,0,1.517,1.517,1.517,0,0,1,1.517,0Z" transform="translate(-11748.483 -9109.947) rotate(-90)" fill="#2d54fe"/>
    <path id="Trazado_787626" data-name="Trazado 787626" d="M1.517,0A1.517,1.517,0,1,1,0,1.517,1.517,1.517,0,0,1,1.517,0Z" transform="translate(-11748.483 -9094.574) rotate(-90)" fill="#2d54fe"/>
    <path id="Trazado_787627" data-name="Trazado 787627" d="M1.517,0A1.517,1.517,0,1,1,0,1.517,1.517,1.517,0,0,1,1.517,0Z" transform="translate(-11748.483 -9079.201) rotate(-90)" fill="#2d54fe"/>
    <path id="Trazado_787628" data-name="Trazado 787628" d="M1.517,0A1.517,1.517,0,1,1,0,1.517,1.517,1.517,0,0,1,1.517,0Z" transform="translate(-11748.483 -9063.424) rotate(-90)" fill="#2d54fe"/>
    <path id="Trazado_787629" data-name="Trazado 787629" d="M1.517,0A1.517,1.517,0,1,1,0,1.517,1.517,1.517,0,0,1,1.517,0Z" transform="translate(-11764.665 -9140.693) rotate(-90)" fill="#2d54fe"/>
    <path id="Trazado_787630" data-name="Trazado 787630" d="M1.517,0A1.517,1.517,0,1,1,0,1.517,1.517,1.517,0,0,1,1.517,0Z" transform="translate(-11764.665 -9125.32) rotate(-90)" fill="#2d54fe"/>
    <path id="Trazado_787631" data-name="Trazado 787631" d="M1.517,0A1.517,1.517,0,1,1,0,1.517,1.517,1.517,0,0,1,1.517,0Z" transform="translate(-11764.665 -9109.947) rotate(-90)" fill="#2d54fe"/>
    <path id="Trazado_787632" data-name="Trazado 787632" d="M1.517,0A1.517,1.517,0,1,1,0,1.517,1.517,1.517,0,0,1,1.517,0Z" transform="translate(-11764.665 -9094.574) rotate(-90)" fill="#2d54fe"/>
    <path id="Trazado_787633" data-name="Trazado 787633" d="M1.517,0A1.517,1.517,0,1,1,0,1.517,1.517,1.517,0,0,1,1.517,0Z" transform="translate(-11764.665 -9079.201) rotate(-90)" fill="#2d54fe"/>
    <path id="Trazado_787634" data-name="Trazado 787634" d="M1.517,0A1.517,1.517,0,1,1,0,1.517,1.517,1.517,0,0,1,1.517,0Z" transform="translate(-11764.665 -9063.424) rotate(-90)" fill="#2d54fe"/>
    <path id="Trazado_787648" data-name="Trazado 787648" d="M1.517,0A1.517,1.517,0,1,1,0,1.517,1.517,1.517,0,0,1,1.517,0Z" transform="translate(-11443.035 -8927.313) rotate(-90)" fill="#fe502d"/>
    <path id="Trazado_787649" data-name="Trazado 787649" d="M1.517,0A1.517,1.517,0,1,1,0,1.517,1.517,1.517,0,0,1,1.517,0Z" transform="translate(-11443.035 -8911.939) rotate(-90)" fill="#fe502d"/>
    <path id="Trazado_787650" data-name="Trazado 787650" d="M1.517,0A1.517,1.517,0,1,1,0,1.517,1.517,1.517,0,0,1,1.517,0Z" transform="translate(-11443.035 -8896.566) rotate(-90)" fill="#fe502d"/>
    <path id="Trazado_787651" data-name="Trazado 787651" d="M1.517,0A1.517,1.517,0,1,1,0,1.517,1.517,1.517,0,0,1,1.517,0Z" transform="translate(-11443.035 -8881.193) rotate(-90)" fill="#fe502d"/>
    <path id="Trazado_787652" data-name="Trazado 787652" d="M1.517,0A1.517,1.517,0,1,1,0,1.517,1.517,1.517,0,0,1,1.517,0Z" transform="translate(-11443.035 -8865.82) rotate(-90)" fill="#fe502d"/>
    <path id="Trazado_787653" data-name="Trazado 787653" d="M1.517,0A1.517,1.517,0,1,1,0,1.517,1.517,1.517,0,0,1,1.517,0Z" transform="translate(-11443.035 -8850.043) rotate(-90)" fill="#fe502d"/>
    <path id="Trazado_787654" data-name="Trazado 787654" d="M1.517,0A1.517,1.517,0,1,1,0,1.517,1.517,1.517,0,0,1,1.517,0Z" transform="translate(-11459.217 -8927.313) rotate(-90)" fill="#fe502d"/>
    <path id="Trazado_787655" data-name="Trazado 787655" d="M1.517,0A1.517,1.517,0,1,1,0,1.517,1.517,1.517,0,0,1,1.517,0Z" transform="translate(-11459.217 -8911.939) rotate(-90)" fill="#fe502d"/>
    <path id="Trazado_787656" data-name="Trazado 787656" d="M1.517,0A1.517,1.517,0,1,1,0,1.517,1.517,1.517,0,0,1,1.517,0Z" transform="translate(-11459.217 -8896.566) rotate(-90)" fill="#fe502d"/>
    <path id="Trazado_787657" data-name="Trazado 787657" d="M1.517,0A1.517,1.517,0,1,1,0,1.517,1.517,1.517,0,0,1,1.517,0Z" transform="translate(-11459.217 -8881.193) rotate(-90)" fill="#fe502d"/>
    <path id="Trazado_787658" data-name="Trazado 787658" d="M1.517,0A1.517,1.517,0,1,1,0,1.517,1.517,1.517,0,0,1,1.517,0Z" transform="translate(-11459.217 -8865.82) rotate(-90)" fill="#fe502d"/>
    <path id="Trazado_787659" data-name="Trazado 787659" d="M1.517,0A1.517,1.517,0,1,1,0,1.517,1.517,1.517,0,0,1,1.517,0Z" transform="translate(-11459.217 -8850.043) rotate(-90)" fill="#fe502d"/>
    <path id="Trazado_787660" data-name="Trazado 787660" d="M1.517,0A1.517,1.517,0,1,1,0,1.517,1.517,1.517,0,0,1,1.517,0Z" transform="translate(-11475.399 -8927.313) rotate(-90)" fill="#fe502d"/>
    <path id="Trazado_787661" data-name="Trazado 787661" d="M1.517,0A1.517,1.517,0,1,1,0,1.517,1.517,1.517,0,0,1,1.517,0Z" transform="translate(-11475.399 -8911.939) rotate(-90)" fill="#fe502d"/>
    <path id="Trazado_787662" data-name="Trazado 787662" d="M1.517,0A1.517,1.517,0,1,1,0,1.517,1.517,1.517,0,0,1,1.517,0Z" transform="translate(-11475.399 -8896.566) rotate(-90)" fill="#fe502d"/>
    <path id="Trazado_787663" data-name="Trazado 787663" d="M1.517,0A1.517,1.517,0,1,1,0,1.517,1.517,1.517,0,0,1,1.517,0Z" transform="translate(-11475.399 -8881.193) rotate(-90)" fill="#fe502d"/>
    <path id="Trazado_787664" data-name="Trazado 787664" d="M1.517,0A1.517,1.517,0,1,1,0,1.517,1.517,1.517,0,0,1,1.517,0Z" transform="translate(-11475.399 -8865.82) rotate(-90)" fill="#fe502d"/>
    <path id="Trazado_787665" data-name="Trazado 787665" d="M1.517,0A1.517,1.517,0,1,1,0,1.517,1.517,1.517,0,0,1,1.517,0Z" transform="translate(-11475.399 -8850.043) rotate(-90)" fill="#fe502d"/>
    <path id="Trazado_787666" data-name="Trazado 787666" d="M1.517,0A1.517,1.517,0,1,1,0,1.517,1.517,1.517,0,0,1,1.517,0Z" transform="translate(-11491.581 -8927.313) rotate(-90)" fill="#fe502d"/>
    <path id="Trazado_787667" data-name="Trazado 787667" d="M1.517,0A1.517,1.517,0,1,1,0,1.517,1.517,1.517,0,0,1,1.517,0Z" transform="translate(-11491.581 -8911.939) rotate(-90)" fill="#fe502d"/>
    <path id="Trazado_787668" data-name="Trazado 787668" d="M1.517,0A1.517,1.517,0,1,1,0,1.517,1.517,1.517,0,0,1,1.517,0Z" transform="translate(-11491.581 -8896.566) rotate(-90)" fill="#fe502d"/>
    <path id="Trazado_787669" data-name="Trazado 787669" d="M1.517,0A1.517,1.517,0,1,1,0,1.517,1.517,1.517,0,0,1,1.517,0Z" transform="translate(-11491.581 -8881.193) rotate(-90)" fill="#fe502d"/>
    <path id="Trazado_787670" data-name="Trazado 787670" d="M1.517,0A1.517,1.517,0,1,1,0,1.517,1.517,1.517,0,0,1,1.517,0Z" transform="translate(-11491.581 -8865.82) rotate(-90)" fill="#fe502d"/>
    <path id="Trazado_787671" data-name="Trazado 787671" d="M1.517,0A1.517,1.517,0,1,1,0,1.517,1.517,1.517,0,0,1,1.517,0Z" transform="translate(-11491.581 -8850.043) rotate(-90)" fill="#fe502d"/>
    <path id="Trazado_787672" data-name="Trazado 787672" d="M1.517,0A1.517,1.517,0,1,1,0,1.517,1.517,1.517,0,0,1,1.517,0Z" transform="translate(-11507.764 -8927.313) rotate(-90)" fill="#fe502d"/>
    <path id="Trazado_787673" data-name="Trazado 787673" d="M1.517,0A1.517,1.517,0,1,1,0,1.517,1.517,1.517,0,0,1,1.517,0Z" transform="translate(-11507.764 -8911.939) rotate(-90)" fill="#fe502d"/>
    <path id="Trazado_787674" data-name="Trazado 787674" d="M1.517,0A1.517,1.517,0,1,1,0,1.517,1.517,1.517,0,0,1,1.517,0Z" transform="translate(-11507.764 -8896.566) rotate(-90)" fill="#fe502d"/>
    <path id="Trazado_787675" data-name="Trazado 787675" d="M1.517,0A1.517,1.517,0,1,1,0,1.517,1.517,1.517,0,0,1,1.517,0Z" transform="translate(-11507.764 -8881.193) rotate(-90)" fill="#fe502d"/>
    <path id="Trazado_787676" data-name="Trazado 787676" d="M1.517,0A1.517,1.517,0,1,1,0,1.517,1.517,1.517,0,0,1,1.517,0Z" transform="translate(-11507.764 -8865.82) rotate(-90)" fill="#fe502d"/>
    <path id="Trazado_787677" data-name="Trazado 787677" d="M1.517,0A1.517,1.517,0,1,1,0,1.517,1.517,1.517,0,0,1,1.517,0Z" transform="translate(-11507.764 -8850.043) rotate(-90)" fill="#fe502d"/>
    <path id="Trazado_787678" data-name="Trazado 787678" d="M1.517,0A1.517,1.517,0,1,1,0,1.517,1.517,1.517,0,0,1,1.517,0Z" transform="translate(-11523.945 -8927.313) rotate(-90)" fill="#fe502d"/>
    <path id="Trazado_787679" data-name="Trazado 787679" d="M1.517,0A1.517,1.517,0,1,1,0,1.517,1.517,1.517,0,0,1,1.517,0Z" transform="translate(-11523.945 -8911.939) rotate(-90)" fill="#fe502d"/>
    <path id="Trazado_787680" data-name="Trazado 787680" d="M1.517,0A1.517,1.517,0,1,1,0,1.517,1.517,1.517,0,0,1,1.517,0Z" transform="translate(-11523.945 -8896.566) rotate(-90)" fill="#fe502d"/>
    <path id="Trazado_787681" data-name="Trazado 787681" d="M1.517,0A1.517,1.517,0,1,1,0,1.517,1.517,1.517,0,0,1,1.517,0Z" transform="translate(-11523.945 -8881.193) rotate(-90)" fill="#fe502d"/>
    <path id="Trazado_787682" data-name="Trazado 787682" d="M1.517,0A1.517,1.517,0,1,1,0,1.517,1.517,1.517,0,0,1,1.517,0Z" transform="translate(-11523.945 -8865.82) rotate(-90)" fill="#fe502d"/>
    <path id="Trazado_787683" data-name="Trazado 787683" d="M1.517,0A1.517,1.517,0,1,1,0,1.517,1.517,1.517,0,0,1,1.517,0Z" transform="translate(-11523.945 -8850.043) rotate(-90)" fill="#fe502d"/>
    <path id="Trazado_787684" data-name="Trazado 787684" d="M0,0H69.852V12.9H0Z" transform="translate(-11509.853 -8949.447)" fill="#ffca00" style="mix-blend-mode: multiply;isolation: isolate"/>
    <path id="Trazado_100597" data-name="Trazado 100597" d="M0,28.376l3.555,3.555,12.41-12.41,3.555-3.555L15.966,12.41,3.555,0,0,3.555l12.41,12.41Z" transform="translate(-11440 -9053.941) rotate(90)" fill="#fe502d"/>
    <path id="Trazado_100598" data-name="Trazado 100598" d="M0,28.376l3.555,3.555,12.41-12.41,3.555-3.555L15.966,12.41,3.555,0,0,3.555l12.41,12.41Z" transform="translate(-11440 -9070.132) rotate(90)" fill="#fe502d"/>
    <path id="Trazado_100599" data-name="Trazado 100599" d="M0,28.376l3.555,3.555,12.41-12.41,3.555-3.555L15.966,12.41,3.555,0,0,3.555l12.41,12.41Z" transform="translate(-11440 -9086.323) rotate(90)" fill="#fe502d"/>
    <path id="Trazado_100600" data-name="Trazado 100600" d="M0,28.376l3.555,3.555,12.41-12.41,3.555-3.555L15.966,12.41,3.555,0,0,3.555l12.41,12.41Z" transform="translate(-11440 -9102.514) rotate(90)" fill="#fe502d"/>
    <path id="Trazado_100601" data-name="Trazado 100601" d="M12.41,15.966,0,28.376l3.555,3.555,12.41-12.41,3.555-3.555L15.966,12.41,3.555,0,0,3.555Z" transform="translate(-11440 -9118.705) rotate(90)" fill="#fe502d"/>
    <path id="Trazado_707662" data-name="Trazado 707662" d="M112.98,125.842H12.862A12.862,12.862,0,0,1,0,112.98V12.862A12.862,12.862,0,0,1,12.862,0H112.98a12.862,12.862,0,0,1,12.862,12.862V112.98a12.862,12.862,0,0,1-12.862,12.862" transform="translate(-11737.545 -9123.15)" fill="#3357f0"/>
    <path id="Trazado_787636" data-name="Trazado 787636" d="M0,0H125.842V3.143H0Z" transform="translate(-11737.545 -9027.767)" fill="#fff"/>
    <path id="Trazado_787637" data-name="Trazado 787637" d="M0,0H13.273V54.875H0Z" transform="translate(-11681.261 -9100.604)" fill="#f7f7f7"/>
    <path id="Trazado_707663" data-name="Trazado 707663" d="M0,117.576v14.136a12.862,12.862,0,0,0,12.862,12.862H112.98a12.862,12.862,0,0,0,12.862-12.862V117.576Z" transform="translate(-11737.545 -9141.883)" fill="#0d2380"/>
    <path id="Trazado_787638" data-name="Trazado 787638" d="M0,0H1.708V10.581H0Z" transform="translate(-11729.58 -9017.16)" fill="#fff"/>
    <path id="Trazado_707664" data-name="Trazado 707664" d="M22.524,136.66H20.816l-5.141-7.808v7.808H13.967V126.095h1.708l5.141,7.838v-7.838h1.708Z" transform="translate(-11739.771 -9143.24)" fill="#fff"/>
    <path id="Trazado_707665" data-name="Trazado 707665" d="M33.257,126.077v1.379H30.3v9.2H28.581v-9.2H25.644v-1.379Z" transform="translate(-11741.631 -9143.237)" fill="#fff"/>
    <path id="Trazado_707666" data-name="Trazado 707666" d="M37.923,127.456v3.207h3.9v1.319h-3.9v3.282h4.346v1.394H36.215V126.077h6.055v1.379Z" transform="translate(-11743.314 -9143.237)" fill="#fff"/>
    <path id="Trazado_707667" data-name="Trazado 707667" d="M50.956,136.658l-2.638-4.226H47.1v4.226H45.4V126.077h3.732a3.865,3.865,0,0,1,2.75.884,3.065,3.065,0,0,1,.937,2.338,2.976,2.976,0,0,1-.7,2.039,3.316,3.316,0,0,1-2.016,1.019l2.773,4.3Zm-3.852-5.44h1.888q2.068,0,2.068-1.828a1.8,1.8,0,0,0-.5-1.356,2.18,2.18,0,0,0-1.566-.488H47.1Z" transform="translate(-11744.777 -9143.237)" fill="#fff"/>
    <path id="Trazado_707668" data-name="Trazado 707668" d="M64.613,136.66H62.905l-5.141-7.808v7.808H56.056V126.095h1.708l5.141,7.838v-7.838h1.708Z" transform="translate(-11746.476 -9143.24)" fill="#fff"/>
    <path id="Trazado_707669" data-name="Trazado 707669" d="M74.854,134.4H70.388l-.81,2.293H67.75l3.9-10.415H73.61l3.881,10.415H75.663Zm-.479-1.319-1.754-4.946-1.754,4.946Z" transform="translate(-11748.339 -9143.269)" fill="#fff"/>
    <path id="Trazado_707670" data-name="Trazado 707670" d="M87.5,126.077v1.379H84.551v9.2H82.828v-9.2H79.891v-1.379Z" transform="translate(-11750.273 -9143.237)" fill="#fff"/>
    <path id="Trazado_787639" data-name="Trazado 787639" d="M0,0H1.708V10.581H0Z" transform="translate(-11661.495 -9017.16)" fill="#fff"/>
    <path id="Trazado_707671" data-name="Trazado 707671" d="M102.45,126.606a4.928,4.928,0,0,1,1.874,1.926,6.069,6.069,0,0,1,0,5.59,4.987,4.987,0,0,1-1.874,1.934,5.453,5.453,0,0,1-5.335,0,5.034,5.034,0,0,1-1.881-1.934,6.01,6.01,0,0,1,0-5.59,4.973,4.973,0,0,1,1.881-1.926,5.506,5.506,0,0,1,5.335,0m-4.473,1.364A3.164,3.164,0,0,0,96.74,129.3a4.849,4.849,0,0,0,0,4.046,3.174,3.174,0,0,0,1.237,1.334,3.528,3.528,0,0,0,1.813.464,3.458,3.458,0,0,0,1.791-.464,3.184,3.184,0,0,0,1.229-1.334,4.849,4.849,0,0,0,0-4.046,3.174,3.174,0,0,0-1.229-1.334,3.458,3.458,0,0,0-1.791-.465,3.528,3.528,0,0,0-1.813.465" transform="translate(-11752.608 -9143.212)" fill="#fff"/>
    <path id="Trazado_707672" data-name="Trazado 707672" d="M117.595,136.66h-1.708l-5.141-7.808v7.808h-1.708V126.095h1.708l5.141,7.838v-7.838h1.708Z" transform="translate(-11754.917 -9143.24)" fill="#fff"/>
    <path id="Trazado_707673" data-name="Trazado 707673" d="M127.836,134.4H123.37l-.81,2.293h-1.828l3.9-10.415h1.964l3.881,10.415h-1.828Zm-.479-1.319-1.754-4.946-1.754,4.946Z" transform="translate(-11756.78 -9143.269)" fill="#fff"/>
    <path id="Trazado_707674" data-name="Trazado 707674" d="M135.543,135.324H139.2v1.334h-5.365V126.077h1.708Z" transform="translate(-11758.867 -9143.237)" fill="#fff"/>
    <path id="Trazado_787640" data-name="Trazado 787640" d="M0,0H1.708V10.581H0Z" transform="translate(-11729.58 -9017.16)" fill="#fff"/>
    <path id="Trazado_707675" data-name="Trazado 707675" d="M22.524,136.66H20.816l-5.141-7.808v7.808H13.967V126.095h1.708l5.141,7.838v-7.838h1.708Z" transform="translate(-11739.771 -9143.24)" fill="#fff"/>
    <path id="Trazado_707676" data-name="Trazado 707676" d="M33.257,126.077v1.379H30.3v9.2H28.581v-9.2H25.644v-1.379Z" transform="translate(-11741.631 -9143.237)" fill="#fff"/>
    <path id="Trazado_707677" data-name="Trazado 707677" d="M37.923,127.456v3.207h3.9v1.319h-3.9v3.282h4.346v1.394H36.215V126.077h6.055v1.379Z" transform="translate(-11743.314 -9143.237)" fill="#fff"/>
    <path id="Trazado_707678" data-name="Trazado 707678" d="M50.956,136.658l-2.638-4.226H47.1v4.226H45.4V126.077h3.732a3.865,3.865,0,0,1,2.75.884,3.065,3.065,0,0,1,.937,2.338,2.976,2.976,0,0,1-.7,2.039,3.316,3.316,0,0,1-2.016,1.019l2.773,4.3Zm-3.852-5.44h1.888q2.068,0,2.068-1.828a1.8,1.8,0,0,0-.5-1.356,2.18,2.18,0,0,0-1.566-.488H47.1Z" transform="translate(-11744.777 -9143.237)" fill="#fff"/>
    <path id="Trazado_707679" data-name="Trazado 707679" d="M64.613,136.66H62.905l-5.141-7.808v7.808H56.056V126.095h1.708l5.141,7.838v-7.838h1.708Z" transform="translate(-11746.476 -9143.24)" fill="#fff"/>
    <path id="Trazado_707680" data-name="Trazado 707680" d="M74.854,134.4H70.388l-.81,2.293H67.75l3.9-10.415H73.61l3.881,10.415H75.663Zm-.479-1.319-1.754-4.946-1.754,4.946Z" transform="translate(-11748.339 -9143.269)" fill="#fff"/>
    <path id="Trazado_707681" data-name="Trazado 707681" d="M87.5,126.077v1.379H84.551v9.2H82.828v-9.2H79.891v-1.379Z" transform="translate(-11750.273 -9143.237)" fill="#fff"/>
    <path id="Trazado_787641" data-name="Trazado 787641" d="M0,0H1.708V10.581H0Z" transform="translate(-11661.495 -9017.16)" fill="#fff"/>
    <path id="Trazado_707682" data-name="Trazado 707682" d="M102.45,126.606a4.928,4.928,0,0,1,1.874,1.926,6.069,6.069,0,0,1,0,5.59,4.987,4.987,0,0,1-1.874,1.934,5.453,5.453,0,0,1-5.335,0,5.034,5.034,0,0,1-1.881-1.934,6.01,6.01,0,0,1,0-5.59,4.973,4.973,0,0,1,1.881-1.926,5.506,5.506,0,0,1,5.335,0m-4.473,1.364A3.164,3.164,0,0,0,96.74,129.3a4.849,4.849,0,0,0,0,4.046,3.174,3.174,0,0,0,1.237,1.334,3.528,3.528,0,0,0,1.813.464,3.458,3.458,0,0,0,1.791-.464,3.184,3.184,0,0,0,1.229-1.334,4.849,4.849,0,0,0,0-4.046,3.174,3.174,0,0,0-1.229-1.334,3.458,3.458,0,0,0-1.791-.465,3.528,3.528,0,0,0-1.813.465" transform="translate(-11752.608 -9143.212)" fill="#fff"/>
    <path id="Trazado_707683" data-name="Trazado 707683" d="M117.595,136.66h-1.708l-5.141-7.808v7.808h-1.708V126.095h1.708l5.141,7.838v-7.838h1.708Z" transform="translate(-11754.917 -9143.24)" fill="#fff"/>
    <path id="Trazado_707684" data-name="Trazado 707684" d="M127.836,134.4H123.37l-.81,2.293h-1.828l3.9-10.415h1.964l3.881,10.415h-1.828Zm-.479-1.319-1.754-4.946-1.754,4.946Z" transform="translate(-11756.78 -9143.269)" fill="#fff"/>
    <path id="Trazado_707685" data-name="Trazado 707685" d="M135.543,135.324H139.2v1.334h-5.365V126.077h1.708Z" transform="translate(-11758.867 -9143.237)" fill="#fff"/>
    <path id="Trazado_707686" data-name="Trazado 707686" d="M268.675,125.842H168.557a12.862,12.862,0,0,1-12.862-12.862V12.862A12.862,12.862,0,0,1,168.557,0H268.675a12.862,12.862,0,0,1,12.862,12.862V112.98a12.862,12.862,0,0,1-12.862,12.862" transform="translate(-11762.351 -9123.15)" fill="#ffca00"/>
    <path id="Trazado_787642" data-name="Trazado 787642" d="M0,0H125.842V3.143H0Z" transform="translate(-11606.655 -9027.767)" fill="#fff"/>
    <path id="Trazado_707687" data-name="Trazado 707687" d="M235.488,71.525H214.92l-3.415,10.013H197.534l20.1-54.488h15.291l20.1,54.488H238.9Zm-3.415-10.09-6.831-20.18-6.908,20.18Z" transform="translate(-11769.017 -9127.46)" fill="#f7f7f7"/>
    <path id="Trazado_707688" data-name="Trazado 707688" d="M155.695,117.576v14.136a12.862,12.862,0,0,0,12.862,12.862H268.675a12.862,12.862,0,0,0,12.862-12.862V117.576Z" transform="translate(-11762.351 -9141.883)" fill="#0d2380"/>
    <path id="Trazado_707689" data-name="Trazado 707689" d="M178.949,134.4h-4.466l-.81,2.293h-1.828l3.9-10.415h1.964l3.881,10.415h-1.828Zm-.479-1.319-1.754-4.946-1.754,4.946Z" transform="translate(-11764.924 -9143.269)" fill="#fff"/>
    <path id="Trazado_707690" data-name="Trazado 707690" d="M192.841,126.941a4.833,4.833,0,0,1,1.738,2.683h-1.812a3.225,3.225,0,0,0-1.192-1.521,3.444,3.444,0,0,0-2-.562,3.109,3.109,0,0,0-1.687.465,3.2,3.2,0,0,0-1.169,1.326,4.936,4.936,0,0,0,0,4.017,3.192,3.192,0,0,0,1.169,1.327,3.116,3.116,0,0,0,1.687.464,3.444,3.444,0,0,0,2-.562,3.237,3.237,0,0,0,1.192-1.507h1.812a4.8,4.8,0,0,1-1.738,2.675,5.189,5.189,0,0,1-3.238.982,5.117,5.117,0,0,1-2.652-.682,4.617,4.617,0,0,1-1.783-1.9,6.519,6.519,0,0,1,0-5.591,4.673,4.673,0,0,1,1.783-1.911,5.081,5.081,0,0,1,2.652-.689,5.167,5.167,0,0,1,3.238.989" transform="translate(-11766.945 -9143.217)" fill="#fff"/>
    <path id="Trazado_707691" data-name="Trazado 707691" d="M206.408,126.941a4.834,4.834,0,0,1,1.739,2.683h-1.813a3.223,3.223,0,0,0-1.191-1.521,3.445,3.445,0,0,0-2-.562,3.106,3.106,0,0,0-1.686.465,3.189,3.189,0,0,0-1.169,1.326,4.936,4.936,0,0,0,0,4.017,3.186,3.186,0,0,0,1.169,1.327,3.113,3.113,0,0,0,1.686.464,3.445,3.445,0,0,0,2-.562,3.235,3.235,0,0,0,1.191-1.507h1.813a4.8,4.8,0,0,1-1.739,2.675,5.187,5.187,0,0,1-3.237.982,5.113,5.113,0,0,1-2.652-.682,4.617,4.617,0,0,1-1.783-1.9,6.519,6.519,0,0,1,0-5.591,4.673,4.673,0,0,1,1.783-1.911,5.077,5.077,0,0,1,2.652-.689,5.164,5.164,0,0,1,3.237.989" transform="translate(-11769.107 -9143.217)" fill="#fff"/>
    <path id="Trazado_707692" data-name="Trazado 707692" d="M219.576,126.606a4.928,4.928,0,0,1,1.874,1.926,6.069,6.069,0,0,1,0,5.59,4.987,4.987,0,0,1-1.874,1.934,5.453,5.453,0,0,1-5.335,0,5.034,5.034,0,0,1-1.881-1.934,6.01,6.01,0,0,1,0-5.59,4.973,4.973,0,0,1,1.881-1.926,5.506,5.506,0,0,1,5.335,0M215.1,127.97a3.164,3.164,0,0,0-1.237,1.334,4.849,4.849,0,0,0,0,4.046,3.174,3.174,0,0,0,1.237,1.334,3.528,3.528,0,0,0,1.813.464,3.458,3.458,0,0,0,1.791-.464,3.184,3.184,0,0,0,1.229-1.334,4.849,4.849,0,0,0,0-4.046,3.174,3.174,0,0,0-1.229-1.334,3.458,3.458,0,0,0-1.791-.465,3.528,3.528,0,0,0-1.813.465" transform="translate(-11771.269 -9143.212)" fill="#fff"/>
    <path id="Trazado_707693" data-name="Trazado 707693" d="M227.783,126.077v6.28a3.05,3.05,0,0,0,.622,2.1,2.537,2.537,0,0,0,3.477,0,3.05,3.05,0,0,0,.622-2.1v-6.28h1.708v6.28a4.445,4.445,0,0,1-1.124,3.29,4.029,4.029,0,0,1-2.968,1.116,3.956,3.956,0,0,1-2.937-1.116,4.478,4.478,0,0,1-1.109-3.29v-6.28Z" transform="translate(-11773.563 -9143.237)" fill="#fff"/>
    <path id="Trazado_707694" data-name="Trazado 707694" d="M246.683,136.66h-1.708l-5.141-7.808v7.808h-1.708V126.095h1.708l5.141,7.838v-7.838h1.708Z" transform="translate(-11775.483 -9143.24)" fill="#fff"/>
    <path id="Trazado_707695" data-name="Trazado 707695" d="M257.416,126.077v1.379h-2.952v9.2H252.74v-9.2H249.8v-1.379Z" transform="translate(-11777.344 -9143.237)" fill="#fff"/>
    <path id="Trazado_787643" data-name="Trazado 787643" d="M0,0H1.708V10.581H0Z" transform="translate(-11518.654 -9017.16)" fill="#fff"/>
    <path id="Trazado_707696" data-name="Trazado 707696" d="M273.424,136.66h-1.708l-5.141-7.808v7.808h-1.708V126.095h1.708l5.141,7.838v-7.838h1.708Z" transform="translate(-11779.744 -9143.24)" fill="#fff"/>
    <path id="Trazado_707697" data-name="Trazado 707697" d="M285.428,126.9a4.371,4.371,0,0,1,1.664,2.533h-1.8a2.872,2.872,0,0,0-1.132-1.364,3.358,3.358,0,0,0-1.866-.51,3.429,3.429,0,0,0-1.776.465,3.2,3.2,0,0,0-1.229,1.319,4.309,4.309,0,0,0-.442,2.008,4.482,4.482,0,0,0,.45,2.083,3.118,3.118,0,0,0,1.266,1.326,3.815,3.815,0,0,0,1.9.457,3.343,3.343,0,0,0,2.263-.817,3.459,3.459,0,0,0,1.139-2.24h-3.881V130.9h5.32v1.633a5.06,5.06,0,0,1-.831,2.121,4.765,4.765,0,0,1-1.723,1.521,5.14,5.14,0,0,1-2.451.569,5.315,5.315,0,0,1-2.727-.689,4.7,4.7,0,0,1-1.828-1.911,6.38,6.38,0,0,1,0-5.59,4.674,4.674,0,0,1,1.821-1.9,5.322,5.322,0,0,1,2.72-.682,5.154,5.154,0,0,1,3.148.929" transform="translate(-11781.692 -9143.22)" fill="#fff"/>
    <path id="Trazado_707698" data-name="Trazado 707698" d="M178.949,134.4h-4.466l-.81,2.293h-1.828l3.9-10.415h1.964l3.881,10.415h-1.828Zm-.479-1.319-1.754-4.946-1.754,4.946Z" transform="translate(-11764.924 -9143.269)" fill="#fff"/>
    <path id="Trazado_707699" data-name="Trazado 707699" d="M192.841,126.941a4.833,4.833,0,0,1,1.738,2.683h-1.812a3.225,3.225,0,0,0-1.192-1.521,3.444,3.444,0,0,0-2-.562,3.109,3.109,0,0,0-1.687.465,3.2,3.2,0,0,0-1.169,1.326,4.936,4.936,0,0,0,0,4.017,3.192,3.192,0,0,0,1.169,1.327,3.116,3.116,0,0,0,1.687.464,3.444,3.444,0,0,0,2-.562,3.237,3.237,0,0,0,1.192-1.507h1.812a4.8,4.8,0,0,1-1.738,2.675,5.189,5.189,0,0,1-3.238.982,5.117,5.117,0,0,1-2.652-.682,4.617,4.617,0,0,1-1.783-1.9,6.519,6.519,0,0,1,0-5.591,4.673,4.673,0,0,1,1.783-1.911,5.081,5.081,0,0,1,2.652-.689,5.167,5.167,0,0,1,3.238.989" transform="translate(-11766.945 -9143.217)" fill="#fff"/>
    <path id="Trazado_707700" data-name="Trazado 707700" d="M206.408,126.941a4.834,4.834,0,0,1,1.739,2.683h-1.813a3.223,3.223,0,0,0-1.191-1.521,3.445,3.445,0,0,0-2-.562,3.106,3.106,0,0,0-1.686.465,3.189,3.189,0,0,0-1.169,1.326,4.936,4.936,0,0,0,0,4.017,3.186,3.186,0,0,0,1.169,1.327,3.113,3.113,0,0,0,1.686.464,3.445,3.445,0,0,0,2-.562,3.235,3.235,0,0,0,1.191-1.507h1.813a4.8,4.8,0,0,1-1.739,2.675,5.187,5.187,0,0,1-3.237.982,5.113,5.113,0,0,1-2.652-.682,4.617,4.617,0,0,1-1.783-1.9,6.519,6.519,0,0,1,0-5.591,4.673,4.673,0,0,1,1.783-1.911,5.077,5.077,0,0,1,2.652-.689,5.164,5.164,0,0,1,3.237.989" transform="translate(-11769.107 -9143.217)" fill="#fff"/>
    <path id="Trazado_707701" data-name="Trazado 707701" d="M219.576,126.606a4.928,4.928,0,0,1,1.874,1.926,6.069,6.069,0,0,1,0,5.59,4.987,4.987,0,0,1-1.874,1.934,5.453,5.453,0,0,1-5.335,0,5.034,5.034,0,0,1-1.881-1.934,6.01,6.01,0,0,1,0-5.59,4.973,4.973,0,0,1,1.881-1.926,5.506,5.506,0,0,1,5.335,0M215.1,127.97a3.164,3.164,0,0,0-1.237,1.334,4.849,4.849,0,0,0,0,4.046,3.174,3.174,0,0,0,1.237,1.334,3.528,3.528,0,0,0,1.813.464,3.458,3.458,0,0,0,1.791-.464,3.184,3.184,0,0,0,1.229-1.334,4.849,4.849,0,0,0,0-4.046,3.174,3.174,0,0,0-1.229-1.334,3.458,3.458,0,0,0-1.791-.465,3.528,3.528,0,0,0-1.813.465" transform="translate(-11771.269 -9143.212)" fill="#fff"/>
    <path id="Trazado_707702" data-name="Trazado 707702" d="M227.783,126.077v6.28a3.05,3.05,0,0,0,.622,2.1,2.537,2.537,0,0,0,3.477,0,3.05,3.05,0,0,0,.622-2.1v-6.28h1.708v6.28a4.445,4.445,0,0,1-1.124,3.29,4.029,4.029,0,0,1-2.968,1.116,3.956,3.956,0,0,1-2.937-1.116,4.478,4.478,0,0,1-1.109-3.29v-6.28Z" transform="translate(-11773.563 -9143.237)" fill="#fff"/>
    <path id="Trazado_707703" data-name="Trazado 707703" d="M246.683,136.66h-1.708l-5.141-7.808v7.808h-1.708V126.095h1.708l5.141,7.838v-7.838h1.708Z" transform="translate(-11775.483 -9143.24)" fill="#fff"/>
    <path id="Trazado_707704" data-name="Trazado 707704" d="M257.416,126.077v1.379h-2.952v9.2H252.74v-9.2H249.8v-1.379Z" transform="translate(-11777.344 -9143.237)" fill="#fff"/>
    <path id="Trazado_787644" data-name="Trazado 787644" d="M0,0H1.708V10.581H0Z" transform="translate(-11518.654 -9017.16)" fill="#fff"/>
    <path id="Trazado_707705" data-name="Trazado 707705" d="M273.424,136.66h-1.708l-5.141-7.808v7.808h-1.708V126.095h1.708l5.141,7.838v-7.838h1.708Z" transform="translate(-11779.744 -9143.24)" fill="#fff"/>
    <path id="Trazado_707706" data-name="Trazado 707706" d="M285.428,126.9a4.371,4.371,0,0,1,1.664,2.533h-1.8a2.872,2.872,0,0,0-1.132-1.364,3.358,3.358,0,0,0-1.866-.51,3.429,3.429,0,0,0-1.776.465,3.2,3.2,0,0,0-1.229,1.319,4.309,4.309,0,0,0-.442,2.008,4.482,4.482,0,0,0,.45,2.083,3.118,3.118,0,0,0,1.266,1.326,3.815,3.815,0,0,0,1.9.457,3.343,3.343,0,0,0,2.263-.817,3.459,3.459,0,0,0,1.139-2.24h-3.881V130.9h5.32v1.633a5.06,5.06,0,0,1-.831,2.121,4.765,4.765,0,0,1-1.723,1.521,5.14,5.14,0,0,1-2.451.569,5.315,5.315,0,0,1-2.727-.689,4.7,4.7,0,0,1-1.828-1.911,6.38,6.38,0,0,1,0-5.59,4.674,4.674,0,0,1,1.821-1.9,5.322,5.322,0,0,1,2.72-.682,5.154,5.154,0,0,1,3.148.929" transform="translate(-11781.692 -9143.22)" fill="#fff"/>
    <path id="Trazado_707707" data-name="Trazado 707707" d="M112.98,281.842H12.862A12.862,12.862,0,0,1,0,268.98V168.862A12.862,12.862,0,0,1,12.862,156H112.98a12.862,12.862,0,0,1,12.862,12.862V268.98a12.862,12.862,0,0,1-12.862,12.862" transform="translate(-11737.545 -9148.005)" fill="#fe502d"/>
    <path id="Trazado_787645" data-name="Trazado 787645" d="M0,0H125.842V3.143H0Z" transform="translate(-11737.545 -8896.62)" fill="#fff"/>
    <path id="Trazado_707708" data-name="Trazado 707708" d="M89.273,230.268a15.591,15.591,0,0,1-6.519,5.822,22.98,22.98,0,0,1-10.44,2.173q-9.238,0-15.213-4.5a16.3,16.3,0,0,1-6.52-12.574H64.707a7.445,7.445,0,0,0,2.212,4.889,6.8,6.8,0,0,0,4.851,1.786,5.63,5.63,0,0,0,4.036-1.4,4.893,4.893,0,0,0,1.475-3.726,4.813,4.813,0,0,0-1.359-3.492,10.672,10.672,0,0,0-3.376-2.29q-2.02-.892-5.589-2.134a68.451,68.451,0,0,1-8.5-3.454,15.638,15.638,0,0,1-5.665-4.968,16.171,16.171,0,0,1,.116-17.037,15.8,15.8,0,0,1,6.869-5.472,25.052,25.052,0,0,1,10.051-1.9q9.158,0,14.553,4.346a16.588,16.588,0,0,1,6.093,11.953H76.117a7.381,7.381,0,0,0-1.98-4.308,5.824,5.824,0,0,0-4.308-1.591,5.555,5.555,0,0,0-3.765,1.242,4.56,4.56,0,0,0-1.436,3.648,4.63,4.63,0,0,0,1.281,3.3,9.726,9.726,0,0,0,3.221,2.212q1.939.855,5.589,2.173a61.579,61.579,0,0,1,8.615,3.532,16.494,16.494,0,0,1,5.744,5.084,14.529,14.529,0,0,1,2.406,8.693,15.128,15.128,0,0,1-2.212,7.995" transform="translate(-11745.579 -9152.146)" fill="#f7f7f7"/>
    <path id="Trazado_707709" data-name="Trazado 707709" d="M0,273.576v14.136a12.862,12.862,0,0,0,12.862,12.862H112.98a12.862,12.862,0,0,0,12.862-12.862V273.576Z" transform="translate(-11737.545 -9166.737)" fill="#0d2380"/>
    <path id="Trazado_707710" data-name="Trazado 707710" d="M30.812,291.27a2.725,2.725,0,0,1-1.139,1.072,3.963,3.963,0,0,1-1.873.4,4.687,4.687,0,0,1-1.934-.382,3.362,3.362,0,0,1-1.364-1.071,3.041,3.041,0,0,1-.584-1.589h1.828a1.877,1.877,0,0,0,.593,1.184,1.918,1.918,0,0,0,1.386.5,1.653,1.653,0,0,0,1.206-.419,1.45,1.45,0,0,0,.427-1.079,1.386,1.386,0,0,0-.315-.937,2.207,2.207,0,0,0-.779-.578q-.464-.209-1.274-.479a11.105,11.105,0,0,1-1.611-.63,2.918,2.918,0,0,1-1.057-.914,2.617,2.617,0,0,1-.435-1.574,2.684,2.684,0,0,1,.419-1.5,2.727,2.727,0,0,1,1.2-1,4.331,4.331,0,0,1,1.8-.352,3.937,3.937,0,0,1,2.571.779,2.938,2.938,0,0,1,1.086,2.038H29.119a1.806,1.806,0,0,0-.562-1.026,1.761,1.761,0,0,0-1.252-.427,1.727,1.727,0,0,0-1.153.367,1.3,1.3,0,0,0-.435,1.057,1.324,1.324,0,0,0,.3.891,2.074,2.074,0,0,0,.757.555q.456.2,1.251.472a10.994,10.994,0,0,1,1.641.636,2.982,2.982,0,0,1,1.079.936,2.718,2.718,0,0,1,.442,1.619,2.9,2.9,0,0,1-.375,1.446" transform="translate(-11741.351 -9168.067)" fill="#fff"/>
    <path id="Trazado_707711" data-name="Trazado 707711" d="M41.252,282.086v1.379H38.3v9.2H36.576v-9.2H33.639v-1.379Z" transform="translate(-11742.904 -9168.093)" fill="#fff"/>
    <path id="Trazado_707712" data-name="Trazado 707712" d="M50.369,290.4H45.9l-.81,2.293H43.265l3.9-10.416h1.964L53.007,292.7H51.178Zm-.479-1.319-1.754-4.946-1.754,4.946Z" transform="translate(-11744.438 -9168.124)" fill="#fff"/>
    <path id="Trazado_707713" data-name="Trazado 707713" d="M64.925,292.669H63.217l-5.141-7.808v7.808H56.368V282.1h1.708l5.141,7.838V282.1h1.708Z" transform="translate(-11746.525 -9168.096)" fill="#fff"/>
    <path id="Trazado_707714" data-name="Trazado 707714" d="M77.437,290.156a4.5,4.5,0,0,1-1.9,1.85,6.336,6.336,0,0,1-2.99.66H69.007V282.086h3.537a6.4,6.4,0,0,1,2.99.652,4.477,4.477,0,0,1,1.9,1.836,6.306,6.306,0,0,1,0,5.583m-2.106-.023a4.282,4.282,0,0,0,0-5.545,4.028,4.028,0,0,0-2.922-.989H70.715v7.524h1.694a4.028,4.028,0,0,0,2.922-.989" transform="translate(-11748.539 -9168.093)" fill="#fff"/>
    <path id="Trazado_707715" data-name="Trazado 707715" d="M88.019,290.4H83.553l-.81,2.293H80.915l3.9-10.416h1.964L90.657,292.7H88.828Zm-.479-1.319-1.754-4.946-1.754,4.946Z" transform="translate(-11750.437 -9168.124)" fill="#fff"/>
    <path id="Trazado_707716" data-name="Trazado 707716" d="M99.579,292.667l-2.638-4.226H95.727v4.226H94.019V282.086h3.732a3.865,3.865,0,0,1,2.75.884,3.066,3.066,0,0,1,.937,2.338,2.976,2.976,0,0,1-.7,2.039,3.316,3.316,0,0,1-2.016,1.019l2.773,4.3Zm-3.852-5.44h1.888q2.068,0,2.068-1.828a1.8,1.8,0,0,0-.5-1.356,2.18,2.18,0,0,0-1.566-.488H95.727Z" transform="translate(-11752.524 -9168.093)" fill="#fff"/>
    <path id="Trazado_707717" data-name="Trazado 707717" d="M113.109,290.156a4.5,4.5,0,0,1-1.9,1.85,6.336,6.336,0,0,1-2.99.66h-3.537V282.086h3.537a6.4,6.4,0,0,1,2.99.652,4.477,4.477,0,0,1,1.9,1.836,6.306,6.306,0,0,1,0,5.583M111,290.134a4.282,4.282,0,0,0,0-5.545,4.028,4.028,0,0,0-2.922-.989h-1.694v7.524h1.694a4.028,4.028,0,0,0,2.922-.989" transform="translate(-11754.223 -9168.093)" fill="#fff"/>
    <path id="Trazado_707718" data-name="Trazado 707718" d="M124.046,291.27a2.725,2.725,0,0,1-1.139,1.072,3.963,3.963,0,0,1-1.873.4,4.689,4.689,0,0,1-1.934-.382,3.362,3.362,0,0,1-1.364-1.071,3.041,3.041,0,0,1-.584-1.589h1.828a1.877,1.877,0,0,0,.593,1.184,1.918,1.918,0,0,0,1.386.5,1.653,1.653,0,0,0,1.206-.419,1.45,1.45,0,0,0,.427-1.079,1.386,1.386,0,0,0-.315-.937,2.207,2.207,0,0,0-.779-.578q-.464-.209-1.274-.479a11.1,11.1,0,0,1-1.611-.63,2.918,2.918,0,0,1-1.057-.914,2.617,2.617,0,0,1-.435-1.574,2.684,2.684,0,0,1,.42-1.5,2.727,2.727,0,0,1,1.2-1,4.331,4.331,0,0,1,1.8-.352,3.937,3.937,0,0,1,2.571.779,2.938,2.938,0,0,1,1.086,2.038h-1.843a1.806,1.806,0,0,0-.562-1.026,1.761,1.761,0,0,0-1.252-.427,1.727,1.727,0,0,0-1.153.367,1.3,1.3,0,0,0-.435,1.057,1.324,1.324,0,0,0,.3.891,2.074,2.074,0,0,0,.757.555q.456.2,1.251.472a10.994,10.994,0,0,1,1.641.636,2.982,2.982,0,0,1,1.079.936,2.718,2.718,0,0,1,.442,1.619,2.9,2.9,0,0,1-.375,1.446" transform="translate(-11756.205 -9168.067)" fill="#fff"/>
    <path id="Trazado_707719" data-name="Trazado 707719" d="M30.812,291.27a2.725,2.725,0,0,1-1.139,1.072,3.963,3.963,0,0,1-1.873.4,4.687,4.687,0,0,1-1.934-.382,3.362,3.362,0,0,1-1.364-1.071,3.041,3.041,0,0,1-.584-1.589h1.828a1.877,1.877,0,0,0,.593,1.184,1.918,1.918,0,0,0,1.386.5,1.653,1.653,0,0,0,1.206-.419,1.45,1.45,0,0,0,.427-1.079,1.386,1.386,0,0,0-.315-.937,2.207,2.207,0,0,0-.779-.578q-.464-.209-1.274-.479a11.105,11.105,0,0,1-1.611-.63,2.918,2.918,0,0,1-1.057-.914,2.617,2.617,0,0,1-.435-1.574,2.684,2.684,0,0,1,.419-1.5,2.727,2.727,0,0,1,1.2-1,4.331,4.331,0,0,1,1.8-.352,3.937,3.937,0,0,1,2.571.779,2.938,2.938,0,0,1,1.086,2.038H29.119a1.806,1.806,0,0,0-.562-1.026,1.761,1.761,0,0,0-1.252-.427,1.727,1.727,0,0,0-1.153.367,1.3,1.3,0,0,0-.435,1.057,1.324,1.324,0,0,0,.3.891,2.074,2.074,0,0,0,.757.555q.456.2,1.251.472a10.994,10.994,0,0,1,1.641.636,2.982,2.982,0,0,1,1.079.936,2.718,2.718,0,0,1,.442,1.619,2.9,2.9,0,0,1-.375,1.446" transform="translate(-11741.351 -9168.067)" fill="#fff"/>
    <path id="Trazado_707720" data-name="Trazado 707720" d="M41.252,282.086v1.379H38.3v9.2H36.576v-9.2H33.639v-1.379Z" transform="translate(-11742.904 -9168.093)" fill="#fff"/>
    <path id="Trazado_707721" data-name="Trazado 707721" d="M50.369,290.4H45.9l-.81,2.293H43.265l3.9-10.416h1.964L53.007,292.7H51.178Zm-.479-1.319-1.754-4.946-1.754,4.946Z" transform="translate(-11744.438 -9168.124)" fill="#fff"/>
    <path id="Trazado_707722" data-name="Trazado 707722" d="M64.925,292.669H63.217l-5.141-7.808v7.808H56.368V282.1h1.708l5.141,7.838V282.1h1.708Z" transform="translate(-11746.525 -9168.096)" fill="#fff"/>
    <path id="Trazado_707723" data-name="Trazado 707723" d="M77.437,290.156a4.5,4.5,0,0,1-1.9,1.85,6.336,6.336,0,0,1-2.99.66H69.007V282.086h3.537a6.4,6.4,0,0,1,2.99.652,4.477,4.477,0,0,1,1.9,1.836,6.306,6.306,0,0,1,0,5.583m-2.106-.023a4.282,4.282,0,0,0,0-5.545,4.028,4.028,0,0,0-2.922-.989H70.715v7.524h1.694a4.028,4.028,0,0,0,2.922-.989" transform="translate(-11748.539 -9168.093)" fill="#fff"/>
    <path id="Trazado_707724" data-name="Trazado 707724" d="M88.019,290.4H83.553l-.81,2.293H80.915l3.9-10.416h1.964L90.657,292.7H88.828Zm-.479-1.319-1.754-4.946-1.754,4.946Z" transform="translate(-11750.437 -9168.124)" fill="#fff"/>
    <path id="Trazado_707725" data-name="Trazado 707725" d="M99.579,292.667l-2.638-4.226H95.727v4.226H94.019V282.086h3.732a3.865,3.865,0,0,1,2.75.884,3.066,3.066,0,0,1,.937,2.338,2.976,2.976,0,0,1-.7,2.039,3.316,3.316,0,0,1-2.016,1.019l2.773,4.3Zm-3.852-5.44h1.888q2.068,0,2.068-1.828a1.8,1.8,0,0,0-.5-1.356,2.18,2.18,0,0,0-1.566-.488H95.727Z" transform="translate(-11752.524 -9168.093)" fill="#fff"/>
    <path id="Trazado_707726" data-name="Trazado 707726" d="M113.109,290.156a4.5,4.5,0,0,1-1.9,1.85,6.336,6.336,0,0,1-2.99.66h-3.537V282.086h3.537a6.4,6.4,0,0,1,2.99.652,4.477,4.477,0,0,1,1.9,1.836,6.306,6.306,0,0,1,0,5.583M111,290.134a4.282,4.282,0,0,0,0-5.545,4.028,4.028,0,0,0-2.922-.989h-1.694v7.524h1.694a4.028,4.028,0,0,0,2.922-.989" transform="translate(-11754.223 -9168.093)" fill="#fff"/>
    <path id="Trazado_707727" data-name="Trazado 707727" d="M124.046,291.27a2.725,2.725,0,0,1-1.139,1.072,3.963,3.963,0,0,1-1.873.4,4.689,4.689,0,0,1-1.934-.382,3.362,3.362,0,0,1-1.364-1.071,3.041,3.041,0,0,1-.584-1.589h1.828a1.877,1.877,0,0,0,.593,1.184,1.918,1.918,0,0,0,1.386.5,1.653,1.653,0,0,0,1.206-.419,1.45,1.45,0,0,0,.427-1.079,1.386,1.386,0,0,0-.315-.937,2.207,2.207,0,0,0-.779-.578q-.464-.209-1.274-.479a11.1,11.1,0,0,1-1.611-.63,2.918,2.918,0,0,1-1.057-.914,2.617,2.617,0,0,1-.435-1.574,2.684,2.684,0,0,1,.42-1.5,2.727,2.727,0,0,1,1.2-1,4.331,4.331,0,0,1,1.8-.352,3.937,3.937,0,0,1,2.571.779,2.938,2.938,0,0,1,1.086,2.038h-1.843a1.806,1.806,0,0,0-.562-1.026,1.761,1.761,0,0,0-1.252-.427,1.727,1.727,0,0,0-1.153.367,1.3,1.3,0,0,0-.435,1.057,1.324,1.324,0,0,0,.3.891,2.074,2.074,0,0,0,.757.555q.456.2,1.251.472a10.994,10.994,0,0,1,1.641.636,2.982,2.982,0,0,1,1.079.936,2.718,2.718,0,0,1,.442,1.619,2.9,2.9,0,0,1-.375,1.446" transform="translate(-11756.205 -9168.067)" fill="#fff"/>
    <path id="Trazado_707728" data-name="Trazado 707728" d="M268.675,281.842H168.557a12.862,12.862,0,0,1-12.862-12.862V168.862A12.862,12.862,0,0,1,168.557,156H268.675a12.862,12.862,0,0,1,12.862,12.862V268.98a12.862,12.862,0,0,1-12.862,12.862" transform="translate(-11762.351 -9148.005)" fill="#3357f0"/>
    <path id="Trazado_787646" data-name="Trazado 787646" d="M0,0H125.842V3.143H0Z" transform="translate(-11606.655 -8896.62)" fill="#fff"/>
    <path id="Trazado_707729" data-name="Trazado 707729" d="M245.338,214.255a13.177,13.177,0,0,1,2.91,8.461q0,7.064-4.7,11.021T230.086,237.7H204.55V182.82h24.915q8.383,0,12.962,3.648t4.579,10.4a12.816,12.816,0,0,1-2.639,8.266,12.156,12.156,0,0,1-6.908,4.308,13.747,13.747,0,0,1,7.878,4.812m-27.515-9h8.693q6.907,0,6.908-5.9t-7.063-5.9h-8.538Zm16.843,15.6a5.77,5.77,0,0,0-1.94-4.618,8.208,8.208,0,0,0-5.511-1.67h-9.392v12.341h9.469q7.373,0,7.374-6.054" transform="translate(-11770.134 -9152.277)" fill="#f7f7f7"/>
    <path id="Trazado_707730" data-name="Trazado 707730" d="M155.695,273.576v14.136a12.862,12.862,0,0,0,12.862,12.862H268.675a12.862,12.862,0,0,0,12.862-12.862V273.576Z" transform="translate(-11762.351 -9166.737)" fill="#0d2380"/>
    <path id="Trazado_707731" data-name="Trazado 707731" d="M208.246,288.116a2.56,2.56,0,0,1,.593,1.679,2.634,2.634,0,0,1-.884,2.091,3.789,3.789,0,0,1-2.563.772H201.18V282.077h4.136a3.685,3.685,0,0,1,2.435.712,2.724,2.724,0,0,1,.322,3.581,2.545,2.545,0,0,1-1.379.832,2.616,2.616,0,0,1,1.551.914m-5.358-1.484H205a2,2,0,0,0,1.371-.419,1.484,1.484,0,0,0,.472-1.169,1.465,1.465,0,0,0-.472-1.153,2.1,2.1,0,0,0-1.431-.42h-2.054Zm3.664,4.174a1.7,1.7,0,0,0-.008-2.48,2.3,2.3,0,0,0-1.513-.45h-2.144v3.372h2.158a2.293,2.293,0,0,0,1.506-.442" transform="translate(-11769.597 -9168.091)" fill="#fff"/>
    <path id="Trazado_707732" data-name="Trazado 707732" d="M219.692,282.606a4.928,4.928,0,0,1,1.874,1.926,6.069,6.069,0,0,1,0,5.59,4.987,4.987,0,0,1-1.874,1.934,5.453,5.453,0,0,1-5.335,0,5.033,5.033,0,0,1-1.881-1.934,6.01,6.01,0,0,1,0-5.59,4.973,4.973,0,0,1,1.881-1.926,5.506,5.506,0,0,1,5.335,0m-4.473,1.364a3.164,3.164,0,0,0-1.237,1.334,4.849,4.849,0,0,0,0,4.046,3.174,3.174,0,0,0,1.237,1.334,3.528,3.528,0,0,0,1.813.464,3.458,3.458,0,0,0,1.791-.464,3.184,3.184,0,0,0,1.229-1.334,4.849,4.849,0,0,0,0-4.046,3.174,3.174,0,0,0-1.229-1.334,3.459,3.459,0,0,0-1.791-.465,3.529,3.529,0,0,0-1.813.465" transform="translate(-11771.287 -9168.065)" fill="#fff"/>
    <path id="Trazado_707733" data-name="Trazado 707733" d="M232.439,290.4h-4.466l-.81,2.293h-1.828l3.9-10.415H231.2l3.881,10.415h-1.828Zm-.479-1.319-1.754-4.946-1.754,4.946Z" transform="translate(-11773.445 -9168.123)" fill="#fff"/>
    <path id="Trazado_707734" data-name="Trazado 707734" d="M244,292.658l-2.638-4.226h-1.214v4.226h-1.708V282.077h3.732a3.865,3.865,0,0,1,2.75.884,3.065,3.065,0,0,1,.937,2.338,2.976,2.976,0,0,1-.7,2.039,3.316,3.316,0,0,1-2.016,1.019l2.773,4.3Zm-3.852-5.44h1.888q2.068,0,2.068-1.828a1.8,1.8,0,0,0-.5-1.356,2.18,2.18,0,0,0-1.566-.488h-1.888Z" transform="translate(-11775.533 -9168.091)" fill="#fff"/>
    <path id="Trazado_707735" data-name="Trazado 707735" d="M257.528,290.148a4.5,4.5,0,0,1-1.9,1.85,6.336,6.336,0,0,1-2.99.66H249.1V282.077h3.537a6.4,6.4,0,0,1,2.99.652,4.477,4.477,0,0,1,1.9,1.836,6.306,6.306,0,0,1,0,5.583m-2.106-.023a4.282,4.282,0,0,0,0-5.545,4.028,4.028,0,0,0-2.922-.989h-1.694v7.524H252.5a4.028,4.028,0,0,0,2.922-.989" transform="translate(-11777.231 -9168.091)" fill="#fff"/>
    <path id="Trazado_707736" data-name="Trazado 707736" d="M208.246,288.116a2.56,2.56,0,0,1,.593,1.679,2.634,2.634,0,0,1-.884,2.091,3.789,3.789,0,0,1-2.563.772H201.18V282.077h4.136a3.685,3.685,0,0,1,2.435.712,2.724,2.724,0,0,1,.322,3.581,2.545,2.545,0,0,1-1.379.832,2.616,2.616,0,0,1,1.551.914m-5.358-1.484H205a2,2,0,0,0,1.371-.419,1.484,1.484,0,0,0,.472-1.169,1.465,1.465,0,0,0-.472-1.153,2.1,2.1,0,0,0-1.431-.42h-2.054Zm3.664,4.174a1.7,1.7,0,0,0-.008-2.48,2.3,2.3,0,0,0-1.513-.45h-2.144v3.372h2.158a2.293,2.293,0,0,0,1.506-.442" transform="translate(-11769.597 -9168.091)" fill="#fff"/>
    <path id="Trazado_707737" data-name="Trazado 707737" d="M219.692,282.606a4.928,4.928,0,0,1,1.874,1.926,6.069,6.069,0,0,1,0,5.59,4.987,4.987,0,0,1-1.874,1.934,5.453,5.453,0,0,1-5.335,0,5.033,5.033,0,0,1-1.881-1.934,6.01,6.01,0,0,1,0-5.59,4.973,4.973,0,0,1,1.881-1.926,5.506,5.506,0,0,1,5.335,0m-4.473,1.364a3.164,3.164,0,0,0-1.237,1.334,4.849,4.849,0,0,0,0,4.046,3.174,3.174,0,0,0,1.237,1.334,3.528,3.528,0,0,0,1.813.464,3.458,3.458,0,0,0,1.791-.464,3.184,3.184,0,0,0,1.229-1.334,4.849,4.849,0,0,0,0-4.046,3.174,3.174,0,0,0-1.229-1.334,3.459,3.459,0,0,0-1.791-.465,3.529,3.529,0,0,0-1.813.465" transform="translate(-11771.287 -9168.065)" fill="#fff"/>
    <path id="Trazado_707738" data-name="Trazado 707738" d="M232.439,290.4h-4.466l-.81,2.293h-1.828l3.9-10.415H231.2l3.881,10.415h-1.828Zm-.479-1.319-1.754-4.946-1.754,4.946Z" transform="translate(-11773.445 -9168.123)" fill="#fff"/>
    <path id="Trazado_707739" data-name="Trazado 707739" d="M244,292.658l-2.638-4.226h-1.214v4.226h-1.708V282.077h3.732a3.865,3.865,0,0,1,2.75.884,3.065,3.065,0,0,1,.937,2.338,2.976,2.976,0,0,1-.7,2.039,3.316,3.316,0,0,1-2.016,1.019l2.773,4.3Zm-3.852-5.44h1.888q2.068,0,2.068-1.828a1.8,1.8,0,0,0-.5-1.356,2.18,2.18,0,0,0-1.566-.488h-1.888Z" transform="translate(-11775.533 -9168.091)" fill="#fff"/>
    <path id="Trazado_707740" data-name="Trazado 707740" d="M257.528,290.148a4.5,4.5,0,0,1-1.9,1.85,6.336,6.336,0,0,1-2.99.66H249.1V282.077h3.537a6.4,6.4,0,0,1,2.99.652,4.477,4.477,0,0,1,1.9,1.836,6.306,6.306,0,0,1,0,5.583m-2.106-.023a4.282,4.282,0,0,0,0-5.545,4.028,4.028,0,0,0-2.922-.989h-1.694v7.524H252.5a4.028,4.028,0,0,0,2.922-.989" transform="translate(-11777.231 -9168.091)" fill="#fff"/>
    <path id="Trazado_787647" data-name="Trazado 787647" d="M0,0H256.732V256.988H0Z" transform="translate(-11737.545 -9123.15)" fill="none"/>
  </g>
</svg>
