<svg xmlns="http://www.w3.org/2000/svg" xmlns:xlink="http://www.w3.org/1999/xlink" width="420" height="311.318" viewBox="0 0 420 311.318">
  <defs>
    <filter id="Trazado_787587" x="49.123" y="18.007" width="169.877" height="77.178" filterUnits="userSpaceOnUse">
      <feOffset dy="3" input="SourceAlpha"/>
      <feGaussianBlur stdDeviation="3" result="blur"/>
      <feFlood flood-opacity="0.161"/>
      <feComposite operator="in" in2="blur"/>
      <feComposite in="SourceGraphic"/>
    </filter>
    <filter id="Trazado_787593" x="221" y="174.832" width="169.877" height="77.178" filterUnits="userSpaceOnUse">
      <feOffset dy="3" input="SourceAlpha"/>
      <feGaussianBlur stdDeviation="3" result="blur-2"/>
      <feFlood flood-opacity="0.161"/>
      <feComposite operator="in" in2="blur-2"/>
      <feComposite in="SourceGraphic"/>
    </filter>
    <filter id="Trazado_787588" x="49.123" y="93.518" width="169.877" height="159.806" filterUnits="userSpaceOnUse">
      <feOffset dy="3" input="SourceAlpha"/>
      <feGaussianBlur stdDeviation="3" result="blur-3"/>
      <feFlood flood-opacity="0.161"/>
      <feComposite operator="in" in2="blur-3"/>
      <feComposite in="SourceGraphic"/>
    </filter>
    <filter id="Trazado_787594" x="221" y="19.686" width="169.877" height="159.806" filterUnits="userSpaceOnUse">
      <feOffset dy="3" input="SourceAlpha"/>
      <feGaussianBlur stdDeviation="3" result="blur-4"/>
      <feFlood flood-opacity="0.161"/>
      <feComposite operator="in" in2="blur-4"/>
      <feComposite in="SourceGraphic"/>
    </filter>
    <filter id="Trazado_787591" x="135.988" y="252.318" width="167.516" height="59" filterUnits="userSpaceOnUse">
      <feOffset dy="3" input="SourceAlpha"/>
      <feGaussianBlur stdDeviation="3" result="blur-5"/>
      <feFlood flood-opacity="0.161"/>
      <feComposite operator="in" in2="blur-5"/>
      <feComposite in="SourceGraphic"/>
    </filter>
  </defs>
  <g id="Grupo_1043385" data-name="Grupo 1043385" transform="translate(-265 -2549.439)">
    <path id="Trazado_787586" data-name="Trazado 787586" d="M62.5,0C97.018,0,125,27.758,125,62s-27.982,62-62.5,62S0,96.242,0,62,27.982,0,62.5,0Z" transform="translate(285 2677.457) rotate(-90)" fill="#fff7d9"/>
    <path id="Trazado_787597" data-name="Trazado 787597" d="M62.5,0C97.018,0,125,27.758,125,62s-27.982,62-62.5,62S0,96.242,0,62,27.982,0,62.5,0Z" transform="translate(561 2857.457) rotate(-90)" fill="#fff7d9"/>
    <g id="Grupo_117245" data-name="Grupo 117245" transform="translate(308.385 2648.183) rotate(-90)">
      <circle id="Elipse_4053" data-name="Elipse 4053" cx="1.412" cy="1.412" r="1.412" transform="translate(71.902 75.29)" fill="#2d54fe"/>
      <circle id="Elipse_4064" data-name="Elipse 4064" cx="1.412" cy="1.412" r="1.412" transform="translate(57.597 75.29)" fill="#2d54fe"/>
      <circle id="Elipse_4070" data-name="Elipse 4070" cx="1.412" cy="1.412" r="1.412" transform="translate(43.292 75.29)" fill="#2d54fe"/>
      <circle id="Elipse_4076" data-name="Elipse 4076" cx="1.412" cy="1.412" r="1.412" transform="translate(28.987 75.29)" fill="#2d54fe"/>
      <circle id="Elipse_4082" data-name="Elipse 4082" cx="1.412" cy="1.412" r="1.412" transform="translate(14.682 75.29)" fill="#2d54fe"/>
      <circle id="Elipse_4088" data-name="Elipse 4088" cx="1.412" cy="1.412" r="1.412" transform="translate(0 75.29)" fill="#2d54fe"/>
      <circle id="Elipse_4054" data-name="Elipse 4054" cx="1.412" cy="1.412" r="1.412" transform="translate(71.902 60.232)" fill="#2d54fe"/>
      <circle id="Elipse_4063" data-name="Elipse 4063" cx="1.412" cy="1.412" r="1.412" transform="translate(57.597 60.232)" fill="#2d54fe"/>
      <circle id="Elipse_4069" data-name="Elipse 4069" cx="1.412" cy="1.412" r="1.412" transform="translate(43.292 60.232)" fill="#2d54fe"/>
      <circle id="Elipse_4075" data-name="Elipse 4075" cx="1.412" cy="1.412" r="1.412" transform="translate(28.987 60.232)" fill="#2d54fe"/>
      <circle id="Elipse_4081" data-name="Elipse 4081" cx="1.412" cy="1.412" r="1.412" transform="translate(14.682 60.232)" fill="#2d54fe"/>
      <circle id="Elipse_4087" data-name="Elipse 4087" cx="1.412" cy="1.412" r="1.412" transform="translate(0 60.232)" fill="#2d54fe"/>
      <circle id="Elipse_4055" data-name="Elipse 4055" cx="1.412" cy="1.412" r="1.412" transform="translate(71.902 45.174)" fill="#2d54fe"/>
      <circle id="Elipse_4062" data-name="Elipse 4062" cx="1.412" cy="1.412" r="1.412" transform="translate(57.597 45.174)" fill="#2d54fe"/>
      <circle id="Elipse_4068" data-name="Elipse 4068" cx="1.412" cy="1.412" r="1.412" transform="translate(43.292 45.174)" fill="#2d54fe"/>
      <circle id="Elipse_4074" data-name="Elipse 4074" cx="1.412" cy="1.412" r="1.412" transform="translate(28.987 45.174)" fill="#2d54fe"/>
      <circle id="Elipse_4080" data-name="Elipse 4080" cx="1.412" cy="1.412" r="1.412" transform="translate(14.682 45.174)" fill="#2d54fe"/>
      <circle id="Elipse_4086" data-name="Elipse 4086" cx="1.412" cy="1.412" r="1.412" transform="translate(0 45.174)" fill="#2d54fe"/>
      <circle id="Elipse_4056" data-name="Elipse 4056" cx="1.412" cy="1.412" r="1.412" transform="translate(71.902 30.116)" fill="#2d54fe"/>
      <circle id="Elipse_4061" data-name="Elipse 4061" cx="1.412" cy="1.412" r="1.412" transform="translate(57.597 30.116)" fill="#2d54fe"/>
      <circle id="Elipse_4067" data-name="Elipse 4067" cx="1.412" cy="1.412" r="1.412" transform="translate(43.292 30.116)" fill="#2d54fe"/>
      <circle id="Elipse_4073" data-name="Elipse 4073" cx="1.412" cy="1.412" r="1.412" transform="translate(28.987 30.116)" fill="#2d54fe"/>
      <circle id="Elipse_4079" data-name="Elipse 4079" cx="1.412" cy="1.412" r="1.412" transform="translate(14.682 30.116)" fill="#2d54fe"/>
      <circle id="Elipse_4085" data-name="Elipse 4085" cx="1.412" cy="1.412" r="1.412" transform="translate(0 30.116)" fill="#2d54fe"/>
      <circle id="Elipse_4057" data-name="Elipse 4057" cx="1.412" cy="1.412" r="1.412" transform="translate(71.902 15.058)" fill="#2d54fe"/>
      <circle id="Elipse_4060" data-name="Elipse 4060" cx="1.412" cy="1.412" r="1.412" transform="translate(57.597 15.058)" fill="#2d54fe"/>
      <circle id="Elipse_4066" data-name="Elipse 4066" cx="1.412" cy="1.412" r="1.412" transform="translate(43.292 15.058)" fill="#2d54fe"/>
      <circle id="Elipse_4072" data-name="Elipse 4072" cx="1.412" cy="1.412" r="1.412" transform="translate(28.987 15.058)" fill="#2d54fe"/>
      <circle id="Elipse_4078" data-name="Elipse 4078" cx="1.412" cy="1.412" r="1.412" transform="translate(14.682 15.058)" fill="#2d54fe"/>
      <circle id="Elipse_4084" data-name="Elipse 4084" cx="1.412" cy="1.412" r="1.412" transform="translate(0 15.058)" fill="#2d54fe"/>
      <circle id="Elipse_4058" data-name="Elipse 4058" cx="1.412" cy="1.412" r="1.412" transform="translate(71.902 0)" fill="#2d54fe"/>
      <circle id="Elipse_4059" data-name="Elipse 4059" cx="1.412" cy="1.412" r="1.412" transform="translate(57.597 0)" fill="#2d54fe"/>
      <circle id="Elipse_4065" data-name="Elipse 4065" cx="1.412" cy="1.412" r="1.412" transform="translate(43.292 0)" fill="#2d54fe"/>
      <circle id="Elipse_4071" data-name="Elipse 4071" cx="1.412" cy="1.412" r="1.412" transform="translate(28.987 0)" fill="#2d54fe"/>
      <circle id="Elipse_4077" data-name="Elipse 4077" cx="1.412" cy="1.412" r="1.412" transform="translate(14.682 0)" fill="#2d54fe"/>
      <circle id="Elipse_4083" data-name="Elipse 4083" cx="1.412" cy="1.412" r="1.412" transform="translate(0 0)" fill="#2d54fe"/>
    </g>
    <g id="Grupo_1027979" data-name="Grupo 1027979" transform="translate(586 2832.32) rotate(-90)">
      <circle id="Elipse_4053-2" data-name="Elipse 4053" cx="1.412" cy="1.412" r="1.412" transform="translate(71.902 75.29)" fill="#0d2380"/>
      <circle id="Elipse_4064-2" data-name="Elipse 4064" cx="1.412" cy="1.412" r="1.412" transform="translate(57.597 75.29)" fill="#0d2380"/>
      <circle id="Elipse_4070-2" data-name="Elipse 4070" cx="1.412" cy="1.412" r="1.412" transform="translate(43.292 75.29)" fill="#0d2380"/>
      <circle id="Elipse_4076-2" data-name="Elipse 4076" cx="1.412" cy="1.412" r="1.412" transform="translate(28.987 75.29)" fill="#0d2380"/>
      <circle id="Elipse_4082-2" data-name="Elipse 4082" cx="1.412" cy="1.412" r="1.412" transform="translate(14.682 75.29)" fill="#0d2380"/>
      <circle id="Elipse_4088-2" data-name="Elipse 4088" cx="1.412" cy="1.412" r="1.412" transform="translate(0 75.29)" fill="#0d2380"/>
      <circle id="Elipse_4054-2" data-name="Elipse 4054" cx="1.412" cy="1.412" r="1.412" transform="translate(71.902 60.232)" fill="#0d2380"/>
      <circle id="Elipse_4063-2" data-name="Elipse 4063" cx="1.412" cy="1.412" r="1.412" transform="translate(57.597 60.232)" fill="#0d2380"/>
      <circle id="Elipse_4069-2" data-name="Elipse 4069" cx="1.412" cy="1.412" r="1.412" transform="translate(43.292 60.232)" fill="#0d2380"/>
      <circle id="Elipse_4075-2" data-name="Elipse 4075" cx="1.412" cy="1.412" r="1.412" transform="translate(28.987 60.232)" fill="#0d2380"/>
      <circle id="Elipse_4081-2" data-name="Elipse 4081" cx="1.412" cy="1.412" r="1.412" transform="translate(14.682 60.232)" fill="#0d2380"/>
      <circle id="Elipse_4087-2" data-name="Elipse 4087" cx="1.412" cy="1.412" r="1.412" transform="translate(0 60.232)" fill="#0d2380"/>
      <circle id="Elipse_4055-2" data-name="Elipse 4055" cx="1.412" cy="1.412" r="1.412" transform="translate(71.902 45.174)" fill="#0d2380"/>
      <circle id="Elipse_4062-2" data-name="Elipse 4062" cx="1.412" cy="1.412" r="1.412" transform="translate(57.597 45.174)" fill="#0d2380"/>
      <circle id="Elipse_4068-2" data-name="Elipse 4068" cx="1.412" cy="1.412" r="1.412" transform="translate(43.292 45.174)" fill="#0d2380"/>
      <circle id="Elipse_4074-2" data-name="Elipse 4074" cx="1.412" cy="1.412" r="1.412" transform="translate(28.987 45.174)" fill="#0d2380"/>
      <circle id="Elipse_4080-2" data-name="Elipse 4080" cx="1.412" cy="1.412" r="1.412" transform="translate(14.682 45.174)" fill="#0d2380"/>
      <circle id="Elipse_4086-2" data-name="Elipse 4086" cx="1.412" cy="1.412" r="1.412" transform="translate(0 45.174)" fill="#0d2380"/>
      <circle id="Elipse_4056-2" data-name="Elipse 4056" cx="1.412" cy="1.412" r="1.412" transform="translate(71.902 30.116)" fill="#0d2380"/>
      <circle id="Elipse_4061-2" data-name="Elipse 4061" cx="1.412" cy="1.412" r="1.412" transform="translate(57.597 30.116)" fill="#0d2380"/>
      <circle id="Elipse_4067-2" data-name="Elipse 4067" cx="1.412" cy="1.412" r="1.412" transform="translate(43.292 30.116)" fill="#0d2380"/>
      <circle id="Elipse_4073-2" data-name="Elipse 4073" cx="1.412" cy="1.412" r="1.412" transform="translate(28.987 30.116)" fill="#0d2380"/>
      <circle id="Elipse_4079-2" data-name="Elipse 4079" cx="1.412" cy="1.412" r="1.412" transform="translate(14.682 30.116)" fill="#0d2380"/>
      <circle id="Elipse_4085-2" data-name="Elipse 4085" cx="1.412" cy="1.412" r="1.412" transform="translate(0 30.116)" fill="#0d2380"/>
      <circle id="Elipse_4057-2" data-name="Elipse 4057" cx="1.412" cy="1.412" r="1.412" transform="translate(71.902 15.058)" fill="#0d2380"/>
      <circle id="Elipse_4060-2" data-name="Elipse 4060" cx="1.412" cy="1.412" r="1.412" transform="translate(57.597 15.058)" fill="#0d2380"/>
      <circle id="Elipse_4066-2" data-name="Elipse 4066" cx="1.412" cy="1.412" r="1.412" transform="translate(43.292 15.058)" fill="#0d2380"/>
      <circle id="Elipse_4072-2" data-name="Elipse 4072" cx="1.412" cy="1.412" r="1.412" transform="translate(28.987 15.058)" fill="#0d2380"/>
      <circle id="Elipse_4078-2" data-name="Elipse 4078" cx="1.412" cy="1.412" r="1.412" transform="translate(14.682 15.058)" fill="#0d2380"/>
      <circle id="Elipse_4084-2" data-name="Elipse 4084" cx="1.412" cy="1.412" r="1.412" transform="translate(0 15.058)" fill="#0d2380"/>
      <circle id="Elipse_4058-2" data-name="Elipse 4058" cx="1.412" cy="1.412" r="1.412" transform="translate(71.902 0)" fill="#0d2380"/>
      <circle id="Elipse_4059-2" data-name="Elipse 4059" cx="1.412" cy="1.412" r="1.412" transform="translate(57.597 0)" fill="#0d2380"/>
      <circle id="Elipse_4065-2" data-name="Elipse 4065" cx="1.412" cy="1.412" r="1.412" transform="translate(43.292 0)" fill="#0d2380"/>
      <circle id="Elipse_4071-2" data-name="Elipse 4071" cx="1.412" cy="1.412" r="1.412" transform="translate(28.987 0)" fill="#0d2380"/>
      <circle id="Elipse_4077-2" data-name="Elipse 4077" cx="1.412" cy="1.412" r="1.412" transform="translate(14.682 0)" fill="#0d2380"/>
      <circle id="Elipse_4083-2" data-name="Elipse 4083" cx="1.412" cy="1.412" r="1.412" transform="translate(0 0)" fill="#0d2380"/>
    </g>
    <g transform="matrix(1, 0, 0, 1, 265, 2549.44)" filter="url(#Trazado_787587)">
      <path id="Trazado_787587-2" data-name="Trazado 787587" d="M15,0H136.877a15,15,0,0,1,15,15V44.178a15,15,0,0,1-15,15H15a15,15,0,0,1-15-15V15A15,15,0,0,1,15,0Z" transform="translate(58.12 24.01)" fill="#ffca00"/>
    </g>
    <g transform="matrix(1, 0, 0, 1, 265, 2549.44)" filter="url(#Trazado_787593)">
      <path id="Trazado_787593-2" data-name="Trazado 787593" d="M15,0H136.877a15,15,0,0,1,15,15V44.178a15,15,0,0,1-15,15H15a15,15,0,0,1-15-15V15A15,15,0,0,1,15,0Z" transform="translate(230 180.83)" fill="#ffca00"/>
    </g>
    <g transform="matrix(1, 0, 0, 1, 265, 2549.44)" filter="url(#Trazado_787588)">
      <path id="Trazado_787588-2" data-name="Trazado 787588" d="M15,0H136.877a15,15,0,0,1,15,15V126.806a15,15,0,0,1-15,15H15a15,15,0,0,1-15-15V15A15,15,0,0,1,15,0Z" transform="translate(58.12 99.52)" fill="#2d54fe"/>
    </g>
    <path id="Trazado_787589" data-name="Trazado 787589" d="M34.228,9.474H30.185v2.549H34.96V14H27.614V3.336h7.361V5.321h-4.79V7.569h4.043Zm5.815,2.3a.57.57,0,0,0-.33-.505,5.013,5.013,0,0,0-1.252-.4,5.711,5.711,0,0,1-1.523-.538,2.552,2.552,0,0,1-.916-.809,1.933,1.933,0,0,1-.315-1.091,2.19,2.19,0,0,1,.9-1.8,3.711,3.711,0,0,1,2.358-.707,4.112,4.112,0,0,1,2.52.71,2.222,2.222,0,0,1,.952,1.868H39.962q0-.952-1-.952a1,1,0,0,0-.652.216.669.669,0,0,0-.264.538.614.614,0,0,0,.322.535,3.045,3.045,0,0,0,1.029.337,8.893,8.893,0,0,1,1.241.315,2.255,2.255,0,0,1,1.787,2.2,2.075,2.075,0,0,1-.963,1.765,4.224,4.224,0,0,1-2.494.681,4.31,4.31,0,0,1-1.816-.366,3.037,3.037,0,0,1-1.245-1,2.256,2.256,0,0,1-.447-1.326h2.307a.954.954,0,0,0,.366.8,1.506,1.506,0,0,0,.9.253,1.185,1.185,0,0,0,.758-.205A.656.656,0,0,0,40.043,11.773ZM46.452,4.1v1.97h1.3V7.789h-1.3v3.625a.926.926,0,0,0,.161.623.864.864,0,0,0,.637.176,3.621,3.621,0,0,0,.615-.044v1.765a4.555,4.555,0,0,1-1.392.212,2.586,2.586,0,0,1-1.882-.6,2.462,2.462,0,0,1-.608-1.824V7.789H42.973V6.075h1.011V4.1ZM53.19,14a2.787,2.787,0,0,1-.234-.71,2.3,2.3,0,0,1-1.9.857,2.812,2.812,0,0,1-1.9-.677,2.156,2.156,0,0,1-.784-1.7,2.216,2.216,0,0,1,.952-1.948,4.851,4.851,0,0,1,2.769-.659h.762v-.42q0-1.1-.945-1.1a.772.772,0,0,0-.879.868H48.554a2.213,2.213,0,0,1,.978-1.865,4.109,4.109,0,0,1,2.494-.717,3.6,3.6,0,0,1,2.4.74,2.572,2.572,0,0,1,.9,2.029v3.508a3.593,3.593,0,0,0,.337,1.67V14Zm-1.545-1.611a1.377,1.377,0,0,0,.765-.2,1.239,1.239,0,0,0,.436-.447V10.477h-.718q-1.289,0-1.289,1.157a.707.707,0,0,0,.227.546A.822.822,0,0,0,51.645,12.389ZM52.26,2.75h2.607l-2.036,2.3-2.014,0Zm6.694,3.325.081.93A2.687,2.687,0,0,1,61.3,5.929a2.261,2.261,0,0,1,1.849.74A3.522,3.522,0,0,1,63.781,8.9V14H61.305V9a1.337,1.337,0,0,0-.242-.883,1.118,1.118,0,0,0-.879-.282,1.177,1.177,0,0,0-1.077.571V14H56.64V6.075Zm5.881,3.9a4.841,4.841,0,0,1,.813-2.966,2.676,2.676,0,0,1,2.271-1.084,2.276,2.276,0,0,1,1.787.835V2.75h2.476V14H69.962l-.125-.85a2.337,2.337,0,0,1-1.934,1,2.671,2.671,0,0,1-2.241-1.084A4.994,4.994,0,0,1,64.836,9.979Zm2.468.154q0,2.109,1.23,2.109a1.215,1.215,0,0,0,1.172-.688V8.536a1.182,1.182,0,0,0-1.157-.7q-1.143,0-1.238,1.846ZM78.048,14a2.787,2.787,0,0,1-.234-.71,2.3,2.3,0,0,1-1.9.857,2.812,2.812,0,0,1-1.9-.677,2.156,2.156,0,0,1-.784-1.7,2.216,2.216,0,0,1,.952-1.948,4.851,4.851,0,0,1,2.769-.659H77.7v-.42q0-1.1-.945-1.1a.772.772,0,0,0-.879.868H73.412a2.213,2.213,0,0,1,.978-1.865,4.109,4.109,0,0,1,2.494-.717,3.6,3.6,0,0,1,2.4.74,2.572,2.572,0,0,1,.9,2.029v3.508a3.593,3.593,0,0,0,.337,1.67V14ZM76.5,12.389a1.377,1.377,0,0,0,.765-.2,1.239,1.239,0,0,0,.436-.447V10.477h-.718q-1.289,0-1.289,1.157a.707.707,0,0,0,.227.546A.822.822,0,0,0,76.5,12.389Zm9.836-4.08-.813-.059a1.46,1.46,0,0,0-1.494.732V14H81.564V6.075h2.314l.081,1.018a1.911,1.911,0,0,1,1.736-1.165,2.407,2.407,0,0,1,.688.088Zm4.585,5.837a4.074,4.074,0,0,1-2.952-1.088,3.756,3.756,0,0,1-1.128-2.831v-.205a4.867,4.867,0,0,1,.45-2.146A3.3,3.3,0,0,1,88.61,6.438a3.969,3.969,0,0,1,2.051-.509A3.43,3.43,0,0,1,93.3,6.965a4.073,4.073,0,0,1,.967,2.889v.959H89.357a1.779,1.779,0,0,0,.579,1.047,1.722,1.722,0,0,0,1.157.381,2.218,2.218,0,0,0,1.831-.82l1.128,1.333a3.153,3.153,0,0,1-1.307,1.014A4.418,4.418,0,0,1,90.924,14.146Zm-.278-6.313q-1.084,0-1.289,1.436h2.49v-.19a1.223,1.223,0,0,0-.3-.919A1.2,1.2,0,0,0,90.646,7.833Zm8.76,3.94a.57.57,0,0,0-.33-.505,5.013,5.013,0,0,0-1.252-.4,5.711,5.711,0,0,1-1.523-.538,2.552,2.552,0,0,1-.916-.809,1.933,1.933,0,0,1-.315-1.091,2.19,2.19,0,0,1,.9-1.8,3.711,3.711,0,0,1,2.358-.707,4.112,4.112,0,0,1,2.52.71,2.222,2.222,0,0,1,.952,1.868H99.325q0-.952-1-.952a1,1,0,0,0-.652.216.669.669,0,0,0-.264.538.614.614,0,0,0,.322.535,3.045,3.045,0,0,0,1.029.337A8.893,8.893,0,0,1,100,9.5a2.255,2.255,0,0,1,1.787,2.2,2.075,2.075,0,0,1-.963,1.765,4.224,4.224,0,0,1-2.494.681,4.31,4.31,0,0,1-1.816-.366,3.037,3.037,0,0,1-1.245-1,2.256,2.256,0,0,1-.447-1.326h2.307a.954.954,0,0,0,.366.8,1.506,1.506,0,0,0,.9.253,1.185,1.185,0,0,0,.758-.205A.656.656,0,0,0,99.406,11.773ZM39.3,24.1v1.97h1.3v1.714H39.3v3.625a.926.926,0,0,0,.161.623.864.864,0,0,0,.637.176,3.621,3.621,0,0,0,.615-.044v1.765a4.555,4.555,0,0,1-1.392.212,2.586,2.586,0,0,1-1.882-.6,2.462,2.462,0,0,1-.608-1.824V27.789H35.821V26.075h1.011V24.1Zm6.108,10.042a4.074,4.074,0,0,1-2.952-1.088,3.756,3.756,0,0,1-1.128-2.831v-.205a4.867,4.867,0,0,1,.45-2.146,3.3,3.3,0,0,1,1.315-1.439,3.969,3.969,0,0,1,2.051-.509,3.43,3.43,0,0,1,2.637,1.036,4.073,4.073,0,0,1,.967,2.889v.959H43.841a1.779,1.779,0,0,0,.579,1.047,1.722,1.722,0,0,0,1.157.381,2.218,2.218,0,0,0,1.831-.82l1.128,1.333a3.153,3.153,0,0,1-1.307,1.014A4.418,4.418,0,0,1,45.408,34.146Zm-.278-6.313q-1.084,0-1.289,1.436h2.49v-.19a1.223,1.223,0,0,0-.3-.919A1.2,1.2,0,0,0,45.13,27.833Zm-.029-5.09h2.607l-2.036,2.3-2.014,0Zm7.991,9.5a1.1,1.1,0,0,0,.806-.282,1.034,1.034,0,0,0,.278-.787H56.49a2.74,2.74,0,0,1-.934,2.139,3.474,3.474,0,0,1-2.406.835,3.517,3.517,0,0,1-2.725-1.084,4.271,4.271,0,0,1-1-3v-.1a4.827,4.827,0,0,1,.443-2.12,3.226,3.226,0,0,1,1.278-1.414,3.811,3.811,0,0,1,1.978-.494,3.43,3.43,0,0,1,2.454.857,3.039,3.039,0,0,1,.908,2.322H54.175a1.355,1.355,0,0,0-.3-.945,1.037,1.037,0,0,0-.806-.33q-.959,0-1.121,1.223a8.631,8.631,0,0,0-.051,1.069,3.39,3.39,0,0,0,.286,1.655A.989.989,0,0,0,53.091,32.242ZM59.8,26.075l.081.93a2.687,2.687,0,0,1,2.263-1.077,2.261,2.261,0,0,1,1.849.74,3.522,3.522,0,0,1,.634,2.227V34H62.151V29a1.337,1.337,0,0,0-.242-.883,1.118,1.118,0,0,0-.879-.282,1.177,1.177,0,0,0-1.077.571V34H57.486V26.075ZM68.6,34H66.121V26.075H68.6Zm-2.622-9.976a1.111,1.111,0,0,1,.381-.87,1.612,1.612,0,0,1,1.978,0,1.183,1.183,0,0,1,0,1.739,1.612,1.612,0,0,1-1.978,0A1.111,1.111,0,0,1,65.974,24.024Zm7.493,8.218a1.1,1.1,0,0,0,.806-.282,1.034,1.034,0,0,0,.278-.787h2.314a2.74,2.74,0,0,1-.934,2.139,3.474,3.474,0,0,1-2.406.835A3.517,3.517,0,0,1,70.8,33.063a4.271,4.271,0,0,1-1-3v-.1a4.827,4.827,0,0,1,.443-2.12,3.226,3.226,0,0,1,1.278-1.414,3.811,3.811,0,0,1,1.978-.494,3.43,3.43,0,0,1,2.454.857,3.039,3.039,0,0,1,.908,2.322H74.551a1.355,1.355,0,0,0-.3-.945,1.037,1.037,0,0,0-.806-.33q-.959,0-1.121,1.223a8.631,8.631,0,0,0-.051,1.069,3.39,3.39,0,0,0,.286,1.655A.989.989,0,0,0,73.467,32.242ZM77.6,29.964a4.677,4.677,0,0,1,.461-2.113,3.3,3.3,0,0,1,1.326-1.425,3.993,3.993,0,0,1,2.029-.5,3.644,3.644,0,0,1,2.805,1.1,4.23,4.23,0,0,1,1.025,3v.088a4.1,4.1,0,0,1-1.029,2.941,3.654,3.654,0,0,1-2.787,1.088,3.7,3.7,0,0,1-2.717-1.014,3.968,3.968,0,0,1-1.106-2.75Zm2.468.154a2.949,2.949,0,0,0,.344,1.611,1.147,1.147,0,0,0,1.018.513q1.318,0,1.348-2.029v-.249q0-2.131-1.362-2.131-1.238,0-1.34,1.838Zm10.415,1.655a.57.57,0,0,0-.33-.505,5.013,5.013,0,0,0-1.252-.4,5.711,5.711,0,0,1-1.523-.538,2.552,2.552,0,0,1-.916-.809,1.933,1.933,0,0,1-.315-1.091,2.19,2.19,0,0,1,.9-1.8,3.711,3.711,0,0,1,2.358-.707,4.112,4.112,0,0,1,2.52.71,2.222,2.222,0,0,1,.952,1.868H90.4q0-.952-1-.952a1,1,0,0,0-.652.216.669.669,0,0,0-.264.538.614.614,0,0,0,.322.535,3.045,3.045,0,0,0,1.029.337,8.893,8.893,0,0,1,1.241.315,2.255,2.255,0,0,1,1.787,2.2,2.075,2.075,0,0,1-.963,1.765,4.224,4.224,0,0,1-2.494.681,4.31,4.31,0,0,1-1.816-.366,3.037,3.037,0,0,1-1.245-1,2.256,2.256,0,0,1-.447-1.326H88.2a.954.954,0,0,0,.366.8,1.506,1.506,0,0,0,.9.253,1.185,1.185,0,0,0,.758-.205A.656.656,0,0,0,90.481,31.773Z" transform="translate(334.533 2583.035)" fill="#fff"/>
    <path id="Trazado_787590" data-name="Trazado 787590" d="M41.31,14H38.754L34.975,7.364V14H32.4V3.336h2.571l3.772,6.636V3.336H41.31Zm1.2-4.036a4.677,4.677,0,0,1,.461-2.113A3.3,3.3,0,0,1,44.3,6.427a3.993,3.993,0,0,1,2.029-.5,3.644,3.644,0,0,1,2.805,1.1,4.23,4.23,0,0,1,1.025,3v.088a4.1,4.1,0,0,1-1.029,2.941,3.654,3.654,0,0,1-2.787,1.088,3.7,3.7,0,0,1-2.717-1.014,3.968,3.968,0,0,1-1.106-2.75Zm2.468.154a2.949,2.949,0,0,0,.344,1.611,1.147,1.147,0,0,0,1.018.513q1.318,0,1.348-2.029V9.964q0-2.131-1.362-2.131-1.238,0-1.34,1.838Zm11.06-1.809-.813-.059a1.46,1.46,0,0,0-1.494.732V14H51.264V6.075h2.314l.081,1.018a1.911,1.911,0,0,1,1.736-1.165,2.407,2.407,0,0,1,.688.088Zm3.223-2.234.081.93a2.725,2.725,0,0,1,2.263-1.077,2.006,2.006,0,0,1,2.029,1.194,2.637,2.637,0,0,1,2.329-1.194q2.41,0,2.476,2.915V14H65.963V9a1.511,1.511,0,0,0-.205-.886.873.873,0,0,0-.747-.278,1.169,1.169,0,0,0-1.091.652l.007.1V14H61.452V9.012a1.588,1.588,0,0,0-.2-.9.87.87,0,0,0-.754-.278,1.184,1.184,0,0,0-1.084.652V14H56.947V6.075ZM74.313,14a2.787,2.787,0,0,1-.234-.71,2.3,2.3,0,0,1-1.9.857,2.812,2.812,0,0,1-1.9-.677,2.156,2.156,0,0,1-.784-1.7,2.216,2.216,0,0,1,.952-1.948,4.851,4.851,0,0,1,2.769-.659h.762v-.42q0-1.1-.945-1.1a.772.772,0,0,0-.879.868H69.677a2.213,2.213,0,0,1,.978-1.865,4.109,4.109,0,0,1,2.494-.717,3.6,3.6,0,0,1,2.4.74,2.572,2.572,0,0,1,.9,2.029v3.508a3.593,3.593,0,0,0,.337,1.67V14Zm-1.545-1.611a1.377,1.377,0,0,0,.765-.2,1.239,1.239,0,0,0,.436-.447V10.477h-.718q-1.289,0-1.289,1.157a.707.707,0,0,0,.227.546A.822.822,0,0,0,72.768,12.389Zm8.467-2.41a4.841,4.841,0,0,1,.813-2.966,2.676,2.676,0,0,1,2.271-1.084,2.276,2.276,0,0,1,1.787.835V2.75h2.476V14H86.361l-.125-.85a2.337,2.337,0,0,1-1.934,1,2.671,2.671,0,0,1-2.241-1.084A4.994,4.994,0,0,1,81.234,9.979Zm2.468.154q0,2.109,1.23,2.109a1.215,1.215,0,0,0,1.172-.688V8.536a1.182,1.182,0,0,0-1.157-.7q-1.143,0-1.238,1.846Zm10.115,4.014a4.074,4.074,0,0,1-2.952-1.088,3.756,3.756,0,0,1-1.128-2.831v-.205a4.867,4.867,0,0,1,.45-2.146A3.3,3.3,0,0,1,91.5,6.438a3.969,3.969,0,0,1,2.051-.509A3.43,3.43,0,0,1,96.19,6.965a4.073,4.073,0,0,1,.967,2.889v.959H92.25a1.779,1.779,0,0,0,.579,1.047,1.722,1.722,0,0,0,1.157.381,2.218,2.218,0,0,0,1.831-.82l1.128,1.333a3.153,3.153,0,0,1-1.307,1.014A4.418,4.418,0,0,1,93.817,14.146Zm-.278-6.313q-1.084,0-1.289,1.436h2.49v-.19a1.223,1.223,0,0,0-.3-.919A1.2,1.2,0,0,0,93.539,7.833ZM26.922,34H24.446V26.075h2.476ZM24.3,24.024a1.111,1.111,0,0,1,.381-.87,1.612,1.612,0,0,1,1.978,0,1.183,1.183,0,0,1,0,1.739,1.612,1.612,0,0,1-1.978,0A1.111,1.111,0,0,1,24.3,24.024Zm6.409,2.051.081.93a2.687,2.687,0,0,1,2.263-1.077,2.261,2.261,0,0,1,1.849.74,3.522,3.522,0,0,1,.634,2.227V34H33.059V29a1.337,1.337,0,0,0-.242-.883,1.118,1.118,0,0,0-.879-.282,1.177,1.177,0,0,0-1.077.571V34H28.394V26.075ZM37.447,34V27.789H36.3V26.075h1.15v-.63a2.738,2.738,0,0,1,.8-2.1,3.154,3.154,0,0,1,2.241-.747,4.908,4.908,0,0,1,1.157.154l.007,1.816a2.255,2.255,0,0,0-.608-.066q-1.121,0-1.121.967v.608h1.545v1.714H39.922V34Zm4.578-4.036a4.677,4.677,0,0,1,.461-2.113,3.3,3.3,0,0,1,1.326-1.425,3.993,3.993,0,0,1,2.029-.5,3.644,3.644,0,0,1,2.805,1.1,4.23,4.23,0,0,1,1.025,3v.088a4.1,4.1,0,0,1-1.029,2.941,3.654,3.654,0,0,1-2.787,1.088,3.7,3.7,0,0,1-2.717-1.014,3.968,3.968,0,0,1-1.106-2.75Zm2.468.154a2.949,2.949,0,0,0,.344,1.611,1.147,1.147,0,0,0,1.018.513q1.318,0,1.348-2.029v-.249q0-2.131-1.362-2.131-1.238,0-1.34,1.838Zm11.06-1.809-.813-.059a1.46,1.46,0,0,0-1.494.732V34H50.777V26.075h2.314l.081,1.018a1.911,1.911,0,0,1,1.736-1.165,2.407,2.407,0,0,1,.688.088Zm3.223-2.234.081.93a2.725,2.725,0,0,1,2.263-1.077,2.006,2.006,0,0,1,2.029,1.194,2.637,2.637,0,0,1,2.329-1.194q2.41,0,2.476,2.915V34H65.476V29a1.511,1.511,0,0,0-.205-.886.873.873,0,0,0-.747-.278,1.169,1.169,0,0,0-1.091.652l.007.1V34H60.965V29.012a1.588,1.588,0,0,0-.2-.9.87.87,0,0,0-.754-.278,1.184,1.184,0,0,0-1.084.652V34H56.46V26.075ZM73.826,34a2.787,2.787,0,0,1-.234-.71,2.3,2.3,0,0,1-1.9.857,2.812,2.812,0,0,1-1.9-.677,2.156,2.156,0,0,1-.784-1.7,2.216,2.216,0,0,1,.952-1.948,4.851,4.851,0,0,1,2.769-.659h.762v-.42q0-1.1-.945-1.1a.772.772,0,0,0-.879.868H69.19a2.213,2.213,0,0,1,.978-1.865,4.109,4.109,0,0,1,2.494-.717,3.6,3.6,0,0,1,2.4.74,2.572,2.572,0,0,1,.9,2.029v3.508a3.593,3.593,0,0,0,.337,1.67V34Zm-1.545-1.611a1.377,1.377,0,0,0,.765-.2,1.239,1.239,0,0,0,.436-.447V30.477h-.718q-1.289,0-1.289,1.157a.707.707,0,0,0,.227.546A.822.822,0,0,0,72.281,32.389Zm8.394-.146a1.1,1.1,0,0,0,.806-.282,1.034,1.034,0,0,0,.278-.787h2.314a2.74,2.74,0,0,1-.934,2.139,3.474,3.474,0,0,1-2.406.835,3.517,3.517,0,0,1-2.725-1.084,4.271,4.271,0,0,1-1-3v-.1a4.827,4.827,0,0,1,.443-2.12,3.226,3.226,0,0,1,1.278-1.414,3.811,3.811,0,0,1,1.978-.494,3.43,3.43,0,0,1,2.454.857,3.039,3.039,0,0,1,.908,2.322H81.758a1.355,1.355,0,0,0-.3-.945,1.037,1.037,0,0,0-.806-.33q-.959,0-1.121,1.223a8.631,8.631,0,0,0-.051,1.069,3.39,3.39,0,0,0,.286,1.655A.989.989,0,0,0,80.674,32.242ZM87.72,34H85.244V26.075H87.72ZM85.1,24.024a1.111,1.111,0,0,1,.381-.87,1.612,1.612,0,0,1,1.978,0,1.183,1.183,0,0,1,0,1.739,1.612,1.612,0,0,1-1.978,0A1.111,1.111,0,0,1,85.1,24.024Zm3.831,5.94a4.677,4.677,0,0,1,.461-2.113,3.3,3.3,0,0,1,1.326-1.425,3.993,3.993,0,0,1,2.029-.5,3.644,3.644,0,0,1,2.805,1.1,4.23,4.23,0,0,1,1.025,3v.088a4.1,4.1,0,0,1-1.029,2.941,3.654,3.654,0,0,1-2.787,1.088,3.7,3.7,0,0,1-2.717-1.014,3.968,3.968,0,0,1-1.106-2.75Zm2.468.154a2.949,2.949,0,0,0,.344,1.611,1.147,1.147,0,0,0,1.018.513q1.318,0,1.348-2.029v-.249q0-2.131-1.362-2.131-1.238,0-1.34,1.838Zm1.685-7.368h2.607l-2.036,2.3-2.014,0Zm6.848,3.325.081.93a2.687,2.687,0,0,1,2.263-1.077,2.261,2.261,0,0,1,1.849.74,3.522,3.522,0,0,1,.634,2.227V34h-2.476V29a1.337,1.337,0,0,0-.242-.883,1.118,1.118,0,0,0-.879-.282,1.177,1.177,0,0,0-1.077.571V34H97.615V26.075ZM21.652,54V47.789H20.5V46.075h1.15v-.264a3.026,3.026,0,0,1,1.04-2.424,4.156,4.156,0,0,1,2.7-.791,9.591,9.591,0,0,1,2.578.425l-.337,1.948-.41-.11a6.527,6.527,0,0,0-1.685-.212q-1.414,0-1.414,1.289v.139H25.68v1.714H24.127V54Zm7.456,0H26.625V46.075h2.483Zm3.772-7.925.081.93a2.687,2.687,0,0,1,2.263-1.077,2.261,2.261,0,0,1,1.849.74,3.522,3.522,0,0,1,.634,2.227V54H35.231V49a1.337,1.337,0,0,0-.242-.883,1.118,1.118,0,0,0-.879-.282,1.177,1.177,0,0,0-1.077.571V54H30.565V46.075ZM43.537,54a2.787,2.787,0,0,1-.234-.71,2.3,2.3,0,0,1-1.9.857,2.812,2.812,0,0,1-1.9-.677,2.156,2.156,0,0,1-.784-1.7,2.216,2.216,0,0,1,.952-1.948,4.851,4.851,0,0,1,2.769-.659h.762v-.42q0-1.1-.945-1.1a.772.772,0,0,0-.879.868H38.9a2.213,2.213,0,0,1,.978-1.865,4.109,4.109,0,0,1,2.494-.717,3.6,3.6,0,0,1,2.4.74,2.572,2.572,0,0,1,.9,2.029v3.508A3.593,3.593,0,0,0,46,53.875V54Zm-1.545-1.611a1.377,1.377,0,0,0,.765-.2,1.239,1.239,0,0,0,.436-.447V50.477h-.718q-1.289,0-1.289,1.157a.707.707,0,0,0,.227.546A.822.822,0,0,0,41.991,52.389Zm7.31-6.313.081.93a2.687,2.687,0,0,1,2.263-1.077,2.261,2.261,0,0,1,1.849.74,3.522,3.522,0,0,1,.634,2.227V54H51.652V49a1.337,1.337,0,0,0-.242-.883,1.118,1.118,0,0,0-.879-.282,1.177,1.177,0,0,0-1.077.571V54H46.986V46.075Zm9.543,6.167a1.1,1.1,0,0,0,.806-.282,1.034,1.034,0,0,0,.278-.787h2.314a2.74,2.74,0,0,1-.934,2.139,3.474,3.474,0,0,1-2.406.835,3.517,3.517,0,0,1-2.725-1.084,4.271,4.271,0,0,1-1-3v-.1a4.827,4.827,0,0,1,.443-2.12A3.226,3.226,0,0,1,56.9,46.423a3.811,3.811,0,0,1,1.978-.494,3.43,3.43,0,0,1,2.454.857,3.039,3.039,0,0,1,.908,2.322H59.928a1.355,1.355,0,0,0-.3-.945,1.037,1.037,0,0,0-.806-.33q-.959,0-1.121,1.223a8.631,8.631,0,0,0-.051,1.069,3.39,3.39,0,0,0,.286,1.655A.989.989,0,0,0,58.844,52.242ZM65.89,54H63.415V46.075H65.89Zm-2.622-9.976a1.111,1.111,0,0,1,.381-.87,1.612,1.612,0,0,1,1.978,0,1.183,1.183,0,0,1,0,1.739,1.612,1.612,0,0,1-1.978,0A1.111,1.111,0,0,1,63.268,44.024Zm7.976,10.122a4.074,4.074,0,0,1-2.952-1.088,3.756,3.756,0,0,1-1.128-2.831v-.205a4.867,4.867,0,0,1,.45-2.146,3.3,3.3,0,0,1,1.315-1.439,3.969,3.969,0,0,1,2.051-.509,3.43,3.43,0,0,1,2.637,1.036,4.073,4.073,0,0,1,.967,2.889v.959H69.677a1.779,1.779,0,0,0,.579,1.047,1.722,1.722,0,0,0,1.157.381,2.218,2.218,0,0,0,1.831-.82l1.128,1.333a3.153,3.153,0,0,1-1.307,1.014A4.418,4.418,0,0,1,71.244,54.146Zm-.278-6.313q-1.084,0-1.289,1.436h2.49v-.19a1.223,1.223,0,0,0-.3-.919A1.2,1.2,0,0,0,70.966,47.833Zm9.4.476-.813-.059a1.46,1.46,0,0,0-1.494.732V54H75.595V46.075h2.314l.081,1.018a1.911,1.911,0,0,1,1.736-1.165,2.407,2.407,0,0,1,.688.088ZM85.5,54a2.787,2.787,0,0,1-.234-.71,2.3,2.3,0,0,1-1.9.857,2.812,2.812,0,0,1-1.9-.677,2.156,2.156,0,0,1-.784-1.7,2.216,2.216,0,0,1,.952-1.948,4.851,4.851,0,0,1,2.769-.659h.762v-.42q0-1.1-.945-1.1a.772.772,0,0,0-.879.868H80.868a2.213,2.213,0,0,1,.978-1.865,4.109,4.109,0,0,1,2.494-.717,3.6,3.6,0,0,1,2.4.74,2.572,2.572,0,0,1,.9,2.029v3.508a3.593,3.593,0,0,0,.337,1.67V54Zm-1.545-1.611a1.377,1.377,0,0,0,.765-.2,1.239,1.239,0,0,0,.436-.447V50.477h-.718q-1.289,0-1.289,1.157a.707.707,0,0,0,.227.546A.822.822,0,0,0,83.959,52.389Zm12.612,1.758a4.074,4.074,0,0,1-2.952-1.088,3.756,3.756,0,0,1-1.128-2.831v-.205a4.867,4.867,0,0,1,.45-2.146,3.3,3.3,0,0,1,1.315-1.439,3.969,3.969,0,0,1,2.051-.509,3.43,3.43,0,0,1,2.637,1.036,4.073,4.073,0,0,1,.967,2.889v.959H95a1.779,1.779,0,0,0,.579,1.047,1.722,1.722,0,0,0,1.157.381,2.218,2.218,0,0,0,1.831-.82L99.7,52.755a3.153,3.153,0,0,1-1.307,1.014A4.418,4.418,0,0,1,96.571,54.146Zm-.278-6.313q-1.084,0-1.289,1.436h2.49v-.19a1.223,1.223,0,0,0-.3-.919A1.2,1.2,0,0,0,96.293,47.833Zm6.877-1.758.081.93a2.687,2.687,0,0,1,2.263-1.077,2.261,2.261,0,0,1,1.849.74A3.522,3.522,0,0,1,108,48.9V54h-2.476V49a1.337,1.337,0,0,0-.242-.883,1.118,1.118,0,0,0-.879-.282,1.177,1.177,0,0,0-1.077.571V54h-2.468V46.075ZM41.83,70.389a3.9,3.9,0,0,1-.6,1.967,3.625,3.625,0,0,1-1.542,1.322,5.248,5.248,0,0,1-2.267.469,4.188,4.188,0,0,1-3.311-1.37A5.655,5.655,0,0,1,32.9,68.91v-.527a6.455,6.455,0,0,1,.546-2.743,4.134,4.134,0,0,1,1.571-1.816,4.383,4.383,0,0,1,2.373-.641,4.6,4.6,0,0,1,3.12,1.022,4.037,4.037,0,0,1,1.34,2.816H39.289a1.91,1.91,0,0,0-.491-1.4,2.018,2.018,0,0,0-1.406-.425,1.536,1.536,0,0,0-1.406.718,4.613,4.613,0,0,0-.469,2.292v.754a5.1,5.1,0,0,0,.428,2.439,1.568,1.568,0,0,0,1.476.732,1.974,1.974,0,0,0,1.355-.417,1.772,1.772,0,0,0,.5-1.326Zm.791-.425a4.677,4.677,0,0,1,.461-2.113,3.3,3.3,0,0,1,1.326-1.425,3.993,3.993,0,0,1,2.029-.5,3.644,3.644,0,0,1,2.805,1.1,4.23,4.23,0,0,1,1.025,3v.088a4.1,4.1,0,0,1-1.029,2.941,3.654,3.654,0,0,1-2.787,1.088,3.7,3.7,0,0,1-2.717-1.014,3.968,3.968,0,0,1-1.106-2.75Zm2.468.154a2.949,2.949,0,0,0,.344,1.611,1.147,1.147,0,0,0,1.018.513q1.318,0,1.348-2.029v-.249q0-2.131-1.362-2.131-1.238,0-1.34,1.838ZM53.959,74H51.483V62.75h2.476Zm1.208-4.036a4.677,4.677,0,0,1,.461-2.113,3.3,3.3,0,0,1,1.326-1.425,3.993,3.993,0,0,1,2.029-.5,3.644,3.644,0,0,1,2.805,1.1,4.23,4.23,0,0,1,1.025,3v.088a4.1,4.1,0,0,1-1.029,2.941A3.654,3.654,0,0,1,59,74.146a3.7,3.7,0,0,1-2.717-1.014,3.968,3.968,0,0,1-1.106-2.75Zm2.468.154a2.949,2.949,0,0,0,.344,1.611A1.147,1.147,0,0,0,59,72.242q1.318,0,1.348-2.029v-.249q0-2.131-1.362-2.131-1.238,0-1.34,1.838Zm8.6-4.043.081.93a2.725,2.725,0,0,1,2.263-1.077,2.006,2.006,0,0,1,2.029,1.194,2.637,2.637,0,0,1,2.329-1.194q2.41,0,2.476,2.915V74H72.936V69a1.511,1.511,0,0,0-.205-.886.873.873,0,0,0-.747-.278,1.169,1.169,0,0,0-1.091.652l.007.1V74H68.424V69.012a1.588,1.588,0,0,0-.2-.9.87.87,0,0,0-.754-.278,1.184,1.184,0,0,0-1.084.652V74H63.92V66.075ZM84.179,70.1a4.83,4.83,0,0,1-.806,3A2.7,2.7,0,0,1,81.1,74.146a2.342,2.342,0,0,1-1.948-.959l-.1.813H76.84V62.75h2.468v3.962a2.259,2.259,0,0,1,1.78-.784,2.7,2.7,0,0,1,2.285,1.062,4.855,4.855,0,0,1,.806,2.988ZM81.7,69.946a3.222,3.222,0,0,0-.3-1.627,1.025,1.025,0,0,0-.934-.486,1.182,1.182,0,0,0-1.157.636v3.144a1.188,1.188,0,0,0,1.172.629,1.048,1.048,0,0,0,1.106-.848A6.091,6.091,0,0,0,81.7,69.946ZM87.87,74H85.395V66.075H87.87Zm-2.622-9.976a1.111,1.111,0,0,1,.381-.87,1.612,1.612,0,0,1,1.978,0,1.183,1.183,0,0,1,0,1.739,1.612,1.612,0,0,1-1.978,0A1.111,1.111,0,0,1,85.248,64.024ZM93.854,74a2.787,2.787,0,0,1-.234-.71,2.3,2.3,0,0,1-1.9.857,2.812,2.812,0,0,1-1.9-.677,2.156,2.156,0,0,1-.784-1.7,2.216,2.216,0,0,1,.952-1.948,4.851,4.851,0,0,1,2.769-.659h.762v-.42q0-1.1-.945-1.1a.772.772,0,0,0-.879.868H89.218a2.213,2.213,0,0,1,.978-1.865,4.109,4.109,0,0,1,2.494-.717,3.6,3.6,0,0,1,2.4.74,2.572,2.572,0,0,1,.9,2.029v3.508a3.593,3.593,0,0,0,.337,1.67V74Zm-1.545-1.611a1.377,1.377,0,0,0,.765-.2,1.239,1.239,0,0,0,.436-.447V70.477h-.718q-1.289,0-1.289,1.157a.707.707,0,0,0,.227.546A.822.822,0,0,0,92.309,72.389Z" transform="translate(334.533 2679.86)" fill="#fff"/>
    <path id="Trazado_787595" data-name="Trazado 787595" d="M45.082,9.474H41.039v2.549h4.775V14H38.468V3.336h7.361V5.321h-4.79V7.569h4.043Zm5.815,2.3a.57.57,0,0,0-.33-.505,5.013,5.013,0,0,0-1.252-.4,5.711,5.711,0,0,1-1.523-.538,2.552,2.552,0,0,1-.916-.809,1.933,1.933,0,0,1-.315-1.091,2.19,2.19,0,0,1,.9-1.8,3.711,3.711,0,0,1,2.358-.707,4.112,4.112,0,0,1,2.52.71,2.222,2.222,0,0,1,.952,1.868H50.817q0-.952-1-.952a1,1,0,0,0-.652.216.669.669,0,0,0-.264.538.614.614,0,0,0,.322.535,3.045,3.045,0,0,0,1.029.337,8.893,8.893,0,0,1,1.241.315,2.255,2.255,0,0,1,1.787,2.2,2.075,2.075,0,0,1-.963,1.765,4.224,4.224,0,0,1-2.494.681A4.31,4.31,0,0,1,48,13.78a3.037,3.037,0,0,1-1.245-1,2.256,2.256,0,0,1-.447-1.326H48.62a.954.954,0,0,0,.366.8,1.506,1.506,0,0,0,.9.253,1.185,1.185,0,0,0,.758-.205A.656.656,0,0,0,50.9,11.773ZM57.306,4.1v1.97h1.3V7.789h-1.3v3.625a.926.926,0,0,0,.161.623.864.864,0,0,0,.637.176,3.621,3.621,0,0,0,.615-.044v1.765a4.555,4.555,0,0,1-1.392.212,2.586,2.586,0,0,1-1.882-.6,2.462,2.462,0,0,1-.608-1.824V7.789H53.827V6.075h1.011V4.1ZM64.044,14a2.787,2.787,0,0,1-.234-.71,2.3,2.3,0,0,1-1.9.857,2.812,2.812,0,0,1-1.9-.677,2.156,2.156,0,0,1-.784-1.7,2.216,2.216,0,0,1,.952-1.948,4.851,4.851,0,0,1,2.769-.659H63.7v-.42q0-1.1-.945-1.1a.772.772,0,0,0-.879.868H59.408a2.213,2.213,0,0,1,.978-1.865,4.109,4.109,0,0,1,2.494-.717,3.6,3.6,0,0,1,2.4.74,2.572,2.572,0,0,1,.9,2.029v3.508a3.593,3.593,0,0,0,.337,1.67V14ZM62.5,12.389a1.377,1.377,0,0,0,.765-.2,1.239,1.239,0,0,0,.436-.447V10.477h-.718q-1.289,0-1.289,1.157a.707.707,0,0,0,.227.546A.822.822,0,0,0,62.5,12.389Zm4.731-2.41a4.841,4.841,0,0,1,.813-2.966,2.676,2.676,0,0,1,2.271-1.084,2.276,2.276,0,0,1,1.787.835V2.75h2.476V14H72.357l-.125-.85a2.337,2.337,0,0,1-1.934,1,2.671,2.671,0,0,1-2.241-1.084A4.994,4.994,0,0,1,67.231,9.979Zm2.468.154q0,2.109,1.23,2.109a1.215,1.215,0,0,0,1.172-.688V8.536a1.182,1.182,0,0,0-1.157-.7q-1.143,0-1.238,1.846Zm5.969-.168a4.677,4.677,0,0,1,.461-2.113,3.3,3.3,0,0,1,1.326-1.425,3.993,3.993,0,0,1,2.029-.5,3.644,3.644,0,0,1,2.805,1.1,4.23,4.23,0,0,1,1.025,3v.088a4.1,4.1,0,0,1-1.029,2.941A3.654,3.654,0,0,1,79.5,14.146a3.7,3.7,0,0,1-2.717-1.014,3.968,3.968,0,0,1-1.106-2.75Zm2.468.154a2.949,2.949,0,0,0,.344,1.611,1.147,1.147,0,0,0,1.018.513q1.318,0,1.348-2.029V9.964q0-2.131-1.362-2.131-1.238,0-1.34,1.838Zm10.415,1.655a.57.57,0,0,0-.33-.505,5.013,5.013,0,0,0-1.252-.4,5.711,5.711,0,0,1-1.523-.538,2.552,2.552,0,0,1-.916-.809,1.933,1.933,0,0,1-.315-1.091,2.19,2.19,0,0,1,.9-1.8,3.711,3.711,0,0,1,2.358-.707,4.112,4.112,0,0,1,2.52.71,2.222,2.222,0,0,1,.952,1.868H88.471q0-.952-1-.952a1,1,0,0,0-.652.216.669.669,0,0,0-.264.538.614.614,0,0,0,.322.535,3.045,3.045,0,0,0,1.029.337,8.893,8.893,0,0,1,1.241.315,2.255,2.255,0,0,1,1.787,2.2,2.075,2.075,0,0,1-.963,1.765,4.224,4.224,0,0,1-2.494.681,4.31,4.31,0,0,1-1.816-.366,3.037,3.037,0,0,1-1.245-1,2.256,2.256,0,0,1-.447-1.326h2.307a.954.954,0,0,0,.366.8,1.506,1.506,0,0,0,.9.253,1.185,1.185,0,0,0,.758-.205A.656.656,0,0,0,88.551,11.773ZM27.782,34V27.789h-1.15V26.075h1.15v-.264a3.026,3.026,0,0,1,1.04-2.424,4.156,4.156,0,0,1,2.7-.791,9.591,9.591,0,0,1,2.578.425l-.337,1.948-.41-.11a6.527,6.527,0,0,0-1.685-.212q-1.414,0-1.414,1.289v.139h1.553v1.714H30.258V34Zm7.456,0H32.755V26.075h2.483Zm3.772-7.925.081.93a2.687,2.687,0,0,1,2.263-1.077,2.261,2.261,0,0,1,1.849.74,3.522,3.522,0,0,1,.634,2.227V34H41.361V29a1.337,1.337,0,0,0-.242-.883,1.118,1.118,0,0,0-.879-.282,1.177,1.177,0,0,0-1.077.571V34H36.7V26.075ZM49.667,34a2.787,2.787,0,0,1-.234-.71,2.3,2.3,0,0,1-1.9.857,2.812,2.812,0,0,1-1.9-.677,2.156,2.156,0,0,1-.784-1.7,2.216,2.216,0,0,1,.952-1.948,4.851,4.851,0,0,1,2.769-.659h.762v-.42q0-1.1-.945-1.1a.772.772,0,0,0-.879.868H45.031a2.213,2.213,0,0,1,.978-1.865,4.109,4.109,0,0,1,2.494-.717,3.6,3.6,0,0,1,2.4.74,2.572,2.572,0,0,1,.9,2.029v3.508a3.593,3.593,0,0,0,.337,1.67V34Zm-1.545-1.611a1.377,1.377,0,0,0,.765-.2,1.239,1.239,0,0,0,.436-.447V30.477h-.718q-1.289,0-1.289,1.157a.707.707,0,0,0,.227.546A.822.822,0,0,0,48.122,32.389Zm7.31-6.313.081.93a2.687,2.687,0,0,1,2.263-1.077,2.261,2.261,0,0,1,1.849.74,3.522,3.522,0,0,1,.634,2.227V34H57.782V29a1.337,1.337,0,0,0-.242-.883,1.118,1.118,0,0,0-.879-.282,1.177,1.177,0,0,0-1.077.571V34H53.117V26.075Zm9.543,6.167a1.1,1.1,0,0,0,.806-.282,1.034,1.034,0,0,0,.278-.787h2.314a2.74,2.74,0,0,1-.934,2.139,3.474,3.474,0,0,1-2.406.835,3.517,3.517,0,0,1-2.725-1.084,4.271,4.271,0,0,1-1-3v-.1a4.827,4.827,0,0,1,.443-2.12,3.226,3.226,0,0,1,1.278-1.414,3.811,3.811,0,0,1,1.978-.494,3.43,3.43,0,0,1,2.454.857,3.039,3.039,0,0,1,.908,2.322H66.059a1.355,1.355,0,0,0-.3-.945,1.037,1.037,0,0,0-.806-.33q-.959,0-1.121,1.223a8.631,8.631,0,0,0-.051,1.069,3.39,3.39,0,0,0,.286,1.655A.989.989,0,0,0,64.975,32.242ZM72.021,34H69.545V26.075h2.476ZM69.4,24.024a1.111,1.111,0,0,1,.381-.87,1.612,1.612,0,0,1,1.978,0,1.183,1.183,0,0,1,0,1.739,1.612,1.612,0,0,1-1.978,0A1.111,1.111,0,0,1,69.4,24.024Zm7.976,10.122a4.074,4.074,0,0,1-2.952-1.088,3.756,3.756,0,0,1-1.128-2.831v-.205a4.867,4.867,0,0,1,.45-2.146,3.3,3.3,0,0,1,1.315-1.439,3.969,3.969,0,0,1,2.051-.509,3.43,3.43,0,0,1,2.637,1.036,4.073,4.073,0,0,1,.967,2.889v.959H75.807a1.779,1.779,0,0,0,.579,1.047,1.722,1.722,0,0,0,1.157.381,2.218,2.218,0,0,0,1.831-.82L80.5,32.755a3.153,3.153,0,0,1-1.307,1.014A4.418,4.418,0,0,1,77.375,34.146ZM77.1,27.833q-1.084,0-1.289,1.436H78.3v-.19a1.223,1.223,0,0,0-.3-.919A1.2,1.2,0,0,0,77.1,27.833Zm9.4.476-.813-.059a1.46,1.46,0,0,0-1.494.732V34H81.725V26.075H84.04l.081,1.018a1.911,1.911,0,0,1,1.736-1.165,2.407,2.407,0,0,1,.688.088Zm.315,1.655a4.677,4.677,0,0,1,.461-2.113A3.3,3.3,0,0,1,88.6,26.427a3.993,3.993,0,0,1,2.029-.5,3.644,3.644,0,0,1,2.805,1.1,4.23,4.23,0,0,1,1.025,3v.088a4.1,4.1,0,0,1-1.029,2.941,3.654,3.654,0,0,1-2.787,1.088,3.7,3.7,0,0,1-2.717-1.014,3.968,3.968,0,0,1-1.106-2.75Zm2.468.154a2.949,2.949,0,0,0,.344,1.611,1.147,1.147,0,0,0,1.018.513q1.318,0,1.348-2.029v-.249q0-2.131-1.362-2.131-1.238,0-1.34,1.838ZM99.7,31.773a.57.57,0,0,0-.33-.505,5.013,5.013,0,0,0-1.252-.4,5.711,5.711,0,0,1-1.523-.538,2.552,2.552,0,0,1-.916-.809,1.933,1.933,0,0,1-.315-1.091,2.19,2.19,0,0,1,.9-1.8,3.711,3.711,0,0,1,2.358-.707,4.112,4.112,0,0,1,2.52.71,2.222,2.222,0,0,1,.952,1.868H99.618q0-.952-1-.952a1,1,0,0,0-.652.216.669.669,0,0,0-.264.538.614.614,0,0,0,.322.535,3.045,3.045,0,0,0,1.029.337,8.893,8.893,0,0,1,1.241.315,2.255,2.255,0,0,1,1.787,2.2,2.075,2.075,0,0,1-.963,1.765,4.224,4.224,0,0,1-2.494.681,4.31,4.31,0,0,1-1.816-.366,3.037,3.037,0,0,1-1.245-1,2.256,2.256,0,0,1-.447-1.326h2.307a.954.954,0,0,0,.366.8,1.506,1.506,0,0,0,.9.253,1.185,1.185,0,0,0,.758-.205A.656.656,0,0,0,99.7,31.773Z" transform="translate(506.438 2739.861)" fill="#fff"/>
    <g id="Grupo_117246" data-name="Grupo 117246" transform="translate(265 2549.439)">
      <path id="Trazado_100597" data-name="Trazado 100597" d="M0,26.4l3.308,3.308L14.857,18.165l3.308-3.308-3.308-3.308L3.308,0,0,3.308,11.548,14.857Z" transform="translate(60.265)" fill="#0d2380"/>
      <path id="Trazado_100598" data-name="Trazado 100598" d="M0,26.4l3.308,3.308L14.857,18.165l3.308-3.308-3.308-3.308L3.308,0,0,3.308,11.548,14.857Z" transform="translate(45.199)" fill="#0d2380"/>
      <path id="Trazado_100599" data-name="Trazado 100599" d="M0,26.4l3.308,3.308L14.857,18.165l3.308-3.308-3.308-3.308L3.308,0,0,3.308,11.548,14.857Z" transform="translate(30.133)" fill="#0d2380"/>
      <path id="Trazado_100600" data-name="Trazado 100600" d="M0,26.4l3.308,3.308L14.857,18.165l3.308-3.308-3.308-3.308L3.308,0,0,3.308,11.548,14.857Z" transform="translate(15.066)" fill="#0d2380"/>
      <path id="Trazado_100601" data-name="Trazado 100601" d="M11.548,14.857,0,26.4l3.308,3.308L14.857,18.165l3.308-3.308-3.308-3.308L3.308,0,0,3.308Z" fill="#0d2380"/>
    </g>
    <g transform="matrix(1, 0, 0, 1, 265, 2549.44)" filter="url(#Trazado_787594)">
      <path id="Trazado_787594-2" data-name="Trazado 787594" d="M15,0H136.877a15,15,0,0,1,15,15V126.806a15,15,0,0,1-15,15H15a15,15,0,0,1-15-15V15A15,15,0,0,1,15,0Z" transform="translate(230 25.69)" fill="#fe502d"/>
    </g>
    <path id="Trazado_787596" data-name="Trazado 787596" d="M47.638,14H45.082L41.3,7.364V14H38.732V3.336H41.3l3.772,6.636V3.336h2.563Zm1.2-4.036A4.677,4.677,0,0,1,49.3,7.851a3.3,3.3,0,0,1,1.326-1.425,3.993,3.993,0,0,1,2.029-.5,3.644,3.644,0,0,1,2.805,1.1,4.23,4.23,0,0,1,1.025,3v.088a4.1,4.1,0,0,1-1.029,2.941,3.654,3.654,0,0,1-2.787,1.088,3.7,3.7,0,0,1-2.717-1.014,3.968,3.968,0,0,1-1.106-2.75Zm2.468.154a2.949,2.949,0,0,0,.344,1.611,1.147,1.147,0,0,0,1.018.513q1.318,0,1.348-2.029V9.964q0-2.131-1.362-2.131-1.238,0-1.34,1.838Zm11.06-1.809-.813-.059a1.46,1.46,0,0,0-1.494.732V14H57.592V6.075h2.314l.081,1.018a1.911,1.911,0,0,1,1.736-1.165,2.407,2.407,0,0,1,.688.088ZM65.59,6.075l.081.93a2.725,2.725,0,0,1,2.263-1.077,2.006,2.006,0,0,1,2.029,1.194,2.637,2.637,0,0,1,2.329-1.194q2.41,0,2.476,2.915V14H72.292V9a1.511,1.511,0,0,0-.205-.886.873.873,0,0,0-.747-.278,1.169,1.169,0,0,0-1.091.652l.007.1V14H67.78V9.012a1.588,1.588,0,0,0-.2-.9.87.87,0,0,0-.754-.278,1.184,1.184,0,0,0-1.084.652V14H63.275V6.075ZM80.641,14a2.787,2.787,0,0,1-.234-.71,2.3,2.3,0,0,1-1.9.857,2.812,2.812,0,0,1-1.9-.677,2.156,2.156,0,0,1-.784-1.7,2.216,2.216,0,0,1,.952-1.948,4.851,4.851,0,0,1,2.769-.659H80.3v-.42q0-1.1-.945-1.1a.772.772,0,0,0-.879.868H76a2.213,2.213,0,0,1,.978-1.865,4.109,4.109,0,0,1,2.494-.717,3.6,3.6,0,0,1,2.4.74,2.572,2.572,0,0,1,.9,2.029v3.508a3.593,3.593,0,0,0,.337,1.67V14ZM79.1,12.389a1.377,1.377,0,0,0,.765-.2,1.239,1.239,0,0,0,.436-.447V10.477h-.718q-1.289,0-1.289,1.157a.707.707,0,0,0,.227.546A.822.822,0,0,0,79.1,12.389Zm9.192-.615a.57.57,0,0,0-.33-.505,5.013,5.013,0,0,0-1.252-.4,5.711,5.711,0,0,1-1.523-.538,2.552,2.552,0,0,1-.916-.809,1.933,1.933,0,0,1-.315-1.091,2.19,2.19,0,0,1,.9-1.8,3.711,3.711,0,0,1,2.358-.707,4.112,4.112,0,0,1,2.52.71,2.222,2.222,0,0,1,.952,1.868H88.207q0-.952-1-.952a1,1,0,0,0-.652.216.669.669,0,0,0-.264.538.614.614,0,0,0,.322.535,3.045,3.045,0,0,0,1.029.337,8.893,8.893,0,0,1,1.241.315,2.255,2.255,0,0,1,1.787,2.2,2.075,2.075,0,0,1-.963,1.765,4.224,4.224,0,0,1-2.494.681,4.31,4.31,0,0,1-1.816-.366,3.037,3.037,0,0,1-1.245-1,2.256,2.256,0,0,1-.447-1.326H86.01a.954.954,0,0,0,.366.8,1.506,1.506,0,0,0,.9.253,1.185,1.185,0,0,0,.758-.205A.656.656,0,0,0,88.288,11.773ZM5.286,34H2.81V26.075H5.286ZM2.664,24.024a1.111,1.111,0,0,1,.381-.87,1.432,1.432,0,0,1,.989-.339,1.432,1.432,0,0,1,.989.339,1.183,1.183,0,0,1,0,1.739,1.432,1.432,0,0,1-.989.339,1.432,1.432,0,0,1-.989-.339A1.111,1.111,0,0,1,2.664,24.024Zm6.409,2.051.081.93a2.687,2.687,0,0,1,2.263-1.077,2.261,2.261,0,0,1,1.849.74A3.522,3.522,0,0,1,13.9,28.9V34H11.424V29a1.337,1.337,0,0,0-.242-.883,1.118,1.118,0,0,0-.879-.282,1.177,1.177,0,0,0-1.077.571V34H6.758V26.075ZM18.14,24.1v1.97h1.3v1.714h-1.3v3.625a.926.926,0,0,0,.161.623.864.864,0,0,0,.637.176,3.621,3.621,0,0,0,.615-.044v1.765a4.555,4.555,0,0,1-1.392.212,2.586,2.586,0,0,1-1.882-.6,2.462,2.462,0,0,1-.608-1.824V27.789H14.661V26.075h1.011V24.1Zm6.108,10.042A4.074,4.074,0,0,1,21.3,33.059a3.756,3.756,0,0,1-1.128-2.831v-.205a4.867,4.867,0,0,1,.45-2.146,3.3,3.3,0,0,1,1.315-1.439,3.969,3.969,0,0,1,2.051-.509,3.43,3.43,0,0,1,2.637,1.036,4.073,4.073,0,0,1,.967,2.889v.959H22.681a1.779,1.779,0,0,0,.579,1.047,1.722,1.722,0,0,0,1.157.381,2.218,2.218,0,0,0,1.831-.82l1.128,1.333a3.153,3.153,0,0,1-1.307,1.014A4.418,4.418,0,0,1,24.248,34.146Zm-.278-6.313q-1.084,0-1.289,1.436h2.49v-.19a1.223,1.223,0,0,0-.3-.919A1.2,1.2,0,0,0,23.97,27.833Zm9.4.476-.813-.059a1.46,1.46,0,0,0-1.494.732V34H28.6V26.075h2.314l.081,1.018a1.911,1.911,0,0,1,1.736-1.165,2.407,2.407,0,0,1,.688.088Zm3.157-2.234.081.93a2.687,2.687,0,0,1,2.263-1.077,2.261,2.261,0,0,1,1.849.74,3.522,3.522,0,0,1,.634,2.227V34H38.882V29a1.337,1.337,0,0,0-.242-.883,1.118,1.118,0,0,0-.879-.282,1.177,1.177,0,0,0-1.077.571V34H34.217V26.075ZM47.188,34a2.787,2.787,0,0,1-.234-.71,2.3,2.3,0,0,1-1.9.857,2.812,2.812,0,0,1-1.9-.677,2.156,2.156,0,0,1-.784-1.7,2.216,2.216,0,0,1,.952-1.948,4.851,4.851,0,0,1,2.769-.659h.762v-.42q0-1.1-.945-1.1a.772.772,0,0,0-.879.868H42.552a2.213,2.213,0,0,1,.978-1.865,4.109,4.109,0,0,1,2.494-.717,3.6,3.6,0,0,1,2.4.74,2.572,2.572,0,0,1,.9,2.029v3.508a3.593,3.593,0,0,0,.337,1.67V34Zm-1.545-1.611a1.377,1.377,0,0,0,.765-.2,1.239,1.239,0,0,0,.436-.447V30.477h-.718q-1.289,0-1.289,1.157a.707.707,0,0,0,.227.546A.822.822,0,0,0,45.642,32.389Zm8.394-.146a1.1,1.1,0,0,0,.806-.282,1.034,1.034,0,0,0,.278-.787h2.314a2.74,2.74,0,0,1-.934,2.139,3.474,3.474,0,0,1-2.406.835,3.517,3.517,0,0,1-2.725-1.084,4.271,4.271,0,0,1-1-3v-.1a4.827,4.827,0,0,1,.443-2.12A3.226,3.226,0,0,1,52.1,26.423a3.811,3.811,0,0,1,1.978-.494,3.43,3.43,0,0,1,2.454.857,3.039,3.039,0,0,1,.908,2.322H55.12a1.355,1.355,0,0,0-.3-.945,1.037,1.037,0,0,0-.806-.33q-.959,0-1.121,1.223a8.631,8.631,0,0,0-.051,1.069,3.39,3.39,0,0,0,.286,1.655A.989.989,0,0,0,54.036,32.242ZM61.082,34H58.606V26.075h2.476ZM58.46,24.024a1.111,1.111,0,0,1,.381-.87,1.612,1.612,0,0,1,1.978,0,1.183,1.183,0,0,1,0,1.739,1.612,1.612,0,0,1-1.978,0A1.111,1.111,0,0,1,58.46,24.024Zm3.831,5.94a4.677,4.677,0,0,1,.461-2.113,3.3,3.3,0,0,1,1.326-1.425,3.993,3.993,0,0,1,2.029-.5,3.644,3.644,0,0,1,2.805,1.1,4.23,4.23,0,0,1,1.025,3v.088a4.1,4.1,0,0,1-1.029,2.941,3.654,3.654,0,0,1-2.787,1.088A3.7,3.7,0,0,1,63.4,33.132a3.968,3.968,0,0,1-1.106-2.75Zm2.468.154a2.949,2.949,0,0,0,.344,1.611,1.147,1.147,0,0,0,1.018.513q1.318,0,1.348-2.029v-.249q0-2.131-1.362-2.131-1.238,0-1.34,1.838Zm8.533-4.043.081.93a2.687,2.687,0,0,1,2.263-1.077,2.261,2.261,0,0,1,1.849.74,3.522,3.522,0,0,1,.634,2.227V34H75.642V29a1.337,1.337,0,0,0-.242-.883,1.118,1.118,0,0,0-.879-.282,1.177,1.177,0,0,0-1.077.571V34H70.977V26.075ZM83.948,34a2.787,2.787,0,0,1-.234-.71,2.3,2.3,0,0,1-1.9.857,2.812,2.812,0,0,1-1.9-.677,2.156,2.156,0,0,1-.784-1.7,2.216,2.216,0,0,1,.952-1.948,4.851,4.851,0,0,1,2.769-.659H83.6v-.42q0-1.1-.945-1.1a.772.772,0,0,0-.879.868H79.312a2.213,2.213,0,0,1,.978-1.865,4.109,4.109,0,0,1,2.494-.717,3.6,3.6,0,0,1,2.4.74,2.572,2.572,0,0,1,.9,2.029v3.508a3.593,3.593,0,0,0,.337,1.67V34ZM82.4,32.389a1.377,1.377,0,0,0,.765-.2,1.239,1.239,0,0,0,.436-.447V30.477h-.718q-1.289,0-1.289,1.157a.707.707,0,0,0,.227.546A.822.822,0,0,0,82.4,32.389ZM90.049,34H87.574V22.75h2.476Zm5.354.146a4.074,4.074,0,0,1-2.952-1.088,3.756,3.756,0,0,1-1.128-2.831v-.205a4.867,4.867,0,0,1,.45-2.146,3.3,3.3,0,0,1,1.315-1.439,3.969,3.969,0,0,1,2.051-.509,3.43,3.43,0,0,1,2.637,1.036,4.073,4.073,0,0,1,.967,2.889v.959H93.836a1.779,1.779,0,0,0,.579,1.047,1.722,1.722,0,0,0,1.157.381,2.218,2.218,0,0,0,1.831-.82l1.128,1.333a3.153,3.153,0,0,1-1.307,1.014A4.418,4.418,0,0,1,95.4,34.146Zm-.278-6.313q-1.084,0-1.289,1.436h2.49v-.19a1.223,1.223,0,0,0-.3-.919A1.2,1.2,0,0,0,95.125,27.833Zm8.76,3.94a.57.57,0,0,0-.33-.505,5.013,5.013,0,0,0-1.252-.4,5.711,5.711,0,0,1-1.523-.538,2.552,2.552,0,0,1-.916-.809,1.933,1.933,0,0,1-.315-1.091,2.19,2.19,0,0,1,.9-1.8,3.711,3.711,0,0,1,2.358-.707,4.112,4.112,0,0,1,2.52.71,2.222,2.222,0,0,1,.952,1.868H103.8q0-.952-1-.952a1,1,0,0,0-.652.216.669.669,0,0,0-.264.538.614.614,0,0,0,.322.535,3.045,3.045,0,0,0,1.029.337,8.893,8.893,0,0,1,1.241.315,2.255,2.255,0,0,1,1.787,2.2,2.075,2.075,0,0,1-.963,1.765,4.224,4.224,0,0,1-2.494.681,4.31,4.31,0,0,1-1.816-.366,3.037,3.037,0,0,1-1.245-1,2.256,2.256,0,0,1-.447-1.326h2.307a.954.954,0,0,0,.366.8,1.506,1.506,0,0,0,.9.253,1.185,1.185,0,0,0,.758-.205A.656.656,0,0,0,103.885,31.773Zm6.958-1.794a4.841,4.841,0,0,1,.813-2.966,2.676,2.676,0,0,1,2.271-1.084,2.276,2.276,0,0,1,1.787.835V22.75h2.476V34H115.97l-.125-.85a2.337,2.337,0,0,1-1.934,1,2.671,2.671,0,0,1-2.241-1.084A4.994,4.994,0,0,1,110.843,29.979Zm2.468.154q0,2.109,1.23,2.109a1.215,1.215,0,0,0,1.172-.688V28.536a1.182,1.182,0,0,0-1.157-.7q-1.143,0-1.238,1.846Zm10.115,4.014a4.074,4.074,0,0,1-2.952-1.088,3.756,3.756,0,0,1-1.128-2.831v-.205a4.867,4.867,0,0,1,.45-2.146,3.3,3.3,0,0,1,1.315-1.439,3.969,3.969,0,0,1,2.051-.509,3.43,3.43,0,0,1,2.637,1.036,4.073,4.073,0,0,1,.967,2.889v.959h-4.907a1.779,1.779,0,0,0,.579,1.047,1.722,1.722,0,0,0,1.157.381,2.218,2.218,0,0,0,1.831-.82l1.128,1.333a3.153,3.153,0,0,1-1.307,1.014A4.418,4.418,0,0,1,123.426,34.146Zm-.278-6.313q-1.084,0-1.289,1.436h2.49v-.19a1.223,1.223,0,0,0-.3-.919A1.2,1.2,0,0,0,123.147,27.833ZM26.922,54H24.446V46.075h2.476ZM24.3,44.024a1.111,1.111,0,0,1,.381-.87,1.612,1.612,0,0,1,1.978,0,1.183,1.183,0,0,1,0,1.739,1.612,1.612,0,0,1-1.978,0A1.111,1.111,0,0,1,24.3,44.024Zm6.409,2.051.081.93a2.687,2.687,0,0,1,2.263-1.077,2.261,2.261,0,0,1,1.849.74,3.522,3.522,0,0,1,.634,2.227V54H33.059V49a1.337,1.337,0,0,0-.242-.883,1.118,1.118,0,0,0-.879-.282,1.177,1.177,0,0,0-1.077.571V54H28.394V46.075ZM37.447,54V47.789H36.3V46.075h1.15v-.63a2.738,2.738,0,0,1,.8-2.1,3.154,3.154,0,0,1,2.241-.747,4.908,4.908,0,0,1,1.157.154l.007,1.816a2.255,2.255,0,0,0-.608-.066q-1.121,0-1.121.967v.608h1.545v1.714H39.922V54Zm4.578-4.036a4.677,4.677,0,0,1,.461-2.113,3.3,3.3,0,0,1,1.326-1.425,3.993,3.993,0,0,1,2.029-.5,3.644,3.644,0,0,1,2.805,1.1,4.23,4.23,0,0,1,1.025,3v.088a4.1,4.1,0,0,1-1.029,2.941,3.654,3.654,0,0,1-2.787,1.088,3.7,3.7,0,0,1-2.717-1.014,3.968,3.968,0,0,1-1.106-2.75Zm2.468.154a2.949,2.949,0,0,0,.344,1.611,1.147,1.147,0,0,0,1.018.513q1.318,0,1.348-2.029v-.249q0-2.131-1.362-2.131-1.238,0-1.34,1.838Zm11.06-1.809-.813-.059a1.46,1.46,0,0,0-1.494.732V54H50.777V46.075h2.314l.081,1.018a1.911,1.911,0,0,1,1.736-1.165,2.407,2.407,0,0,1,.688.088Zm3.223-2.234.081.93a2.725,2.725,0,0,1,2.263-1.077,2.006,2.006,0,0,1,2.029,1.194,2.637,2.637,0,0,1,2.329-1.194q2.41,0,2.476,2.915V54H65.476V49a1.511,1.511,0,0,0-.205-.886.873.873,0,0,0-.747-.278,1.169,1.169,0,0,0-1.091.652l.007.1V54H60.965V49.012a1.588,1.588,0,0,0-.2-.9.87.87,0,0,0-.754-.278,1.184,1.184,0,0,0-1.084.652V54H56.46V46.075ZM73.826,54a2.787,2.787,0,0,1-.234-.71,2.3,2.3,0,0,1-1.9.857,2.812,2.812,0,0,1-1.9-.677,2.156,2.156,0,0,1-.784-1.7,2.216,2.216,0,0,1,.952-1.948,4.851,4.851,0,0,1,2.769-.659h.762v-.42q0-1.1-.945-1.1a.772.772,0,0,0-.879.868H69.19a2.213,2.213,0,0,1,.978-1.865,4.109,4.109,0,0,1,2.494-.717,3.6,3.6,0,0,1,2.4.74,2.572,2.572,0,0,1,.9,2.029v3.508a3.593,3.593,0,0,0,.337,1.67V54Zm-1.545-1.611a1.377,1.377,0,0,0,.765-.2,1.239,1.239,0,0,0,.436-.447V50.477h-.718q-1.289,0-1.289,1.157a.707.707,0,0,0,.227.546A.822.822,0,0,0,72.281,52.389Zm8.394-.146a1.1,1.1,0,0,0,.806-.282,1.034,1.034,0,0,0,.278-.787h2.314a2.74,2.74,0,0,1-.934,2.139,3.474,3.474,0,0,1-2.406.835,3.517,3.517,0,0,1-2.725-1.084,4.271,4.271,0,0,1-1-3v-.1a4.827,4.827,0,0,1,.443-2.12,3.226,3.226,0,0,1,1.278-1.414,3.811,3.811,0,0,1,1.978-.494,3.43,3.43,0,0,1,2.454.857,3.039,3.039,0,0,1,.908,2.322H81.758a1.355,1.355,0,0,0-.3-.945,1.037,1.037,0,0,0-.806-.33q-.959,0-1.121,1.223a8.631,8.631,0,0,0-.051,1.069,3.39,3.39,0,0,0,.286,1.655A.989.989,0,0,0,80.674,52.242ZM87.72,54H85.244V46.075H87.72ZM85.1,44.024a1.111,1.111,0,0,1,.381-.87,1.612,1.612,0,0,1,1.978,0,1.183,1.183,0,0,1,0,1.739,1.612,1.612,0,0,1-1.978,0A1.111,1.111,0,0,1,85.1,44.024Zm3.831,5.94a4.677,4.677,0,0,1,.461-2.113,3.3,3.3,0,0,1,1.326-1.425,3.993,3.993,0,0,1,2.029-.5,3.644,3.644,0,0,1,2.805,1.1,4.23,4.23,0,0,1,1.025,3v.088a4.1,4.1,0,0,1-1.029,2.941,3.654,3.654,0,0,1-2.787,1.088,3.7,3.7,0,0,1-2.717-1.014,3.968,3.968,0,0,1-1.106-2.75Zm2.468.154a2.949,2.949,0,0,0,.344,1.611,1.147,1.147,0,0,0,1.018.513q1.318,0,1.348-2.029v-.249q0-2.131-1.362-2.131-1.238,0-1.34,1.838Zm1.685-7.368h2.607l-2.036,2.3-2.014,0Zm6.848,3.325.081.93a2.687,2.687,0,0,1,2.263-1.077,2.261,2.261,0,0,1,1.849.74,3.522,3.522,0,0,1,.634,2.227V54h-2.476V49a1.337,1.337,0,0,0-.242-.883,1.118,1.118,0,0,0-.879-.282,1.177,1.177,0,0,0-1.077.571V54H97.615V46.075ZM31.833,74V67.789h-1.15V66.075h1.15v-.264a3.026,3.026,0,0,1,1.04-2.424,4.156,4.156,0,0,1,2.7-.791,9.591,9.591,0,0,1,2.578.425l-.337,1.948-.41-.11a6.527,6.527,0,0,0-1.685-.212q-1.414,0-1.414,1.289v.139h1.553v1.714H34.308V74Zm7.456,0H36.806V66.075h2.483Zm3.772-7.925.081.93A2.687,2.687,0,0,1,45.4,65.929a2.261,2.261,0,0,1,1.849.74,3.522,3.522,0,0,1,.634,2.227V74H45.412V69a1.337,1.337,0,0,0-.242-.883,1.118,1.118,0,0,0-.879-.282,1.177,1.177,0,0,0-1.077.571V74H40.746V66.075ZM53.717,74a2.787,2.787,0,0,1-.234-.71,2.3,2.3,0,0,1-1.9.857,2.812,2.812,0,0,1-1.9-.677,2.156,2.156,0,0,1-.784-1.7,2.216,2.216,0,0,1,.952-1.948,4.851,4.851,0,0,1,2.769-.659h.762v-.42q0-1.1-.945-1.1a.772.772,0,0,0-.879.868H49.081a2.213,2.213,0,0,1,.978-1.865,4.109,4.109,0,0,1,2.494-.717,3.6,3.6,0,0,1,2.4.74,2.572,2.572,0,0,1,.9,2.029v3.508a3.593,3.593,0,0,0,.337,1.67V74Zm-1.545-1.611a1.377,1.377,0,0,0,.765-.2,1.239,1.239,0,0,0,.436-.447V70.477h-.718q-1.289,0-1.289,1.157a.707.707,0,0,0,.227.546A.822.822,0,0,0,52.172,72.389Zm7.31-6.313.081.93a2.687,2.687,0,0,1,2.263-1.077,2.261,2.261,0,0,1,1.849.74,3.522,3.522,0,0,1,.634,2.227V74H61.833V69a1.337,1.337,0,0,0-.242-.883,1.118,1.118,0,0,0-.879-.282,1.177,1.177,0,0,0-1.077.571V74H57.167V66.075Zm9.543,6.167a1.1,1.1,0,0,0,.806-.282,1.034,1.034,0,0,0,.278-.787h2.314a2.74,2.74,0,0,1-.934,2.139,3.474,3.474,0,0,1-2.406.835,3.517,3.517,0,0,1-2.725-1.084,4.271,4.271,0,0,1-1-3v-.1a4.827,4.827,0,0,1,.443-2.12,3.226,3.226,0,0,1,1.278-1.414,3.811,3.811,0,0,1,1.978-.494,3.43,3.43,0,0,1,2.454.857,3.039,3.039,0,0,1,.908,2.322H70.109a1.355,1.355,0,0,0-.3-.945,1.037,1.037,0,0,0-.806-.33q-.959,0-1.121,1.223a8.631,8.631,0,0,0-.051,1.069,3.39,3.39,0,0,0,.286,1.655A.989.989,0,0,0,69.025,72.242ZM76.071,74H73.6V66.075h2.476Zm-2.622-9.976a1.111,1.111,0,0,1,.381-.87,1.612,1.612,0,0,1,1.978,0,1.183,1.183,0,0,1,0,1.739,1.612,1.612,0,0,1-1.978,0A1.111,1.111,0,0,1,73.449,64.024Zm7.976,10.122a4.074,4.074,0,0,1-2.952-1.088,3.756,3.756,0,0,1-1.128-2.831v-.205a4.867,4.867,0,0,1,.45-2.146,3.3,3.3,0,0,1,1.315-1.439,3.969,3.969,0,0,1,2.051-.509A3.43,3.43,0,0,1,83.8,66.965a4.073,4.073,0,0,1,.967,2.889v.959H79.857a1.779,1.779,0,0,0,.579,1.047,1.722,1.722,0,0,0,1.157.381,2.218,2.218,0,0,0,1.831-.82l1.128,1.333a3.153,3.153,0,0,1-1.307,1.014A4.418,4.418,0,0,1,81.425,74.146Zm-.278-6.313q-1.084,0-1.289,1.436h2.49v-.19a1.223,1.223,0,0,0-.3-.919A1.2,1.2,0,0,0,81.147,67.833Zm9.4.476-.813-.059a1.46,1.46,0,0,0-1.494.732V74H85.775V66.075H88.09l.081,1.018a1.911,1.911,0,0,1,1.736-1.165,2.407,2.407,0,0,1,.688.088ZM95.685,74a2.787,2.787,0,0,1-.234-.71,2.3,2.3,0,0,1-1.9.857,2.812,2.812,0,0,1-1.9-.677,2.156,2.156,0,0,1-.784-1.7,2.216,2.216,0,0,1,.952-1.948,4.851,4.851,0,0,1,2.769-.659h.762v-.42q0-1.1-.945-1.1a.772.772,0,0,0-.879.868H91.049a2.213,2.213,0,0,1,.978-1.865,4.109,4.109,0,0,1,2.494-.717,3.6,3.6,0,0,1,2.4.74,2.572,2.572,0,0,1,.9,2.029v3.508a3.593,3.593,0,0,0,.337,1.67V74ZM94.14,72.389a1.377,1.377,0,0,0,.765-.2,1.239,1.239,0,0,0,.436-.447V70.477h-.718q-1.289,0-1.289,1.157a.707.707,0,0,0,.227.546A.822.822,0,0,0,94.14,72.389Z" transform="translate(505.23 2606.027)" fill="#fff"/>
    <g transform="matrix(1, 0, 0, 1, 265, 2549.44)" filter="url(#Trazado_787591)">
      <path id="Trazado_787591-2" data-name="Trazado 787591" d="M15,0H134.516a15,15,0,0,1,15,15V26a15,15,0,0,1-15,15H15A15,15,0,0,1,0,26V15A15,15,0,0,1,15,0Z" transform="translate(144.99 258.32)" fill="#fe502d"/>
    </g>
    <path id="Trazado_787592" data-name="Trazado 787592" d="M12.01,11.166a1.056,1.056,0,0,0-.4-.879,4.961,4.961,0,0,0-1.4-.652,13.456,13.456,0,0,1-1.641-.652,3.107,3.107,0,0,1-2.073-2.8,2.509,2.509,0,0,1,.516-1.564A3.34,3.34,0,0,1,8.472,3.567,5.686,5.686,0,0,1,10.6,3.189a4.974,4.974,0,0,1,2.062.41,3.264,3.264,0,0,1,1.417,1.168A3.051,3.051,0,0,1,14.58,6.5H12.017a1.289,1.289,0,0,0-.4-1.011,1.556,1.556,0,0,0-1.08-.359,1.755,1.755,0,0,0-1.088.3A.9.9,0,0,0,9.49,6.95a5.542,5.542,0,0,0,1.545.688,9.467,9.467,0,0,1,1.816.765,3.052,3.052,0,0,1,1.729,2.747,2.6,2.6,0,0,1-1.055,2.2,4.691,4.691,0,0,1-2.893.8,5.74,5.74,0,0,1-2.347-.465A3.539,3.539,0,0,1,6.7,12.407a3.321,3.321,0,0,1-.531-1.864H8.75a1.635,1.635,0,0,0,.443,1.263,2.094,2.094,0,0,0,1.439.406,1.655,1.655,0,0,0,1.007-.275A.907.907,0,0,0,12.01,11.166ZM18.389,14H15.913V6.075h2.476ZM15.767,4.024a1.111,1.111,0,0,1,.381-.87,1.612,1.612,0,0,1,1.978,0,1.111,1.111,0,0,1,.381.87,1.111,1.111,0,0,1-.381.87,1.612,1.612,0,0,1-1.978,0A1.111,1.111,0,0,1,15.767,4.024Zm8.291,7.749a.57.57,0,0,0-.33-.505,5.013,5.013,0,0,0-1.252-.4,5.711,5.711,0,0,1-1.523-.538,2.552,2.552,0,0,1-.916-.809,1.933,1.933,0,0,1-.315-1.091,2.19,2.19,0,0,1,.9-1.8,3.711,3.711,0,0,1,2.358-.707,4.112,4.112,0,0,1,2.52.71,2.222,2.222,0,0,1,.952,1.868H23.977q0-.952-1-.952a1,1,0,0,0-.652.216.669.669,0,0,0-.264.538.614.614,0,0,0,.322.535,3.045,3.045,0,0,0,1.029.337,8.893,8.893,0,0,1,1.241.315,2.255,2.255,0,0,1,1.787,2.2,2.075,2.075,0,0,1-.963,1.765,4.224,4.224,0,0,1-2.494.681,4.31,4.31,0,0,1-1.816-.366,3.037,3.037,0,0,1-1.245-1,2.256,2.256,0,0,1-.447-1.326H21.78a.954.954,0,0,0,.366.8,1.506,1.506,0,0,0,.9.253,1.185,1.185,0,0,0,.758-.205A.656.656,0,0,0,24.058,11.773ZM30.467,4.1v1.97h1.3V7.789h-1.3v3.625a.926.926,0,0,0,.161.623.864.864,0,0,0,.637.176,3.621,3.621,0,0,0,.615-.044v1.765a4.555,4.555,0,0,1-1.392.212,2.586,2.586,0,0,1-1.882-.6A2.462,2.462,0,0,1,28,11.722V7.789H26.988V6.075H28V4.1Zm6.108,10.042a4.074,4.074,0,0,1-2.952-1.088A3.756,3.756,0,0,1,32.5,10.228v-.205a4.867,4.867,0,0,1,.45-2.146,3.3,3.3,0,0,1,1.315-1.439,3.969,3.969,0,0,1,2.051-.509,3.43,3.43,0,0,1,2.637,1.036,4.073,4.073,0,0,1,.967,2.889v.959H35.008a1.779,1.779,0,0,0,.579,1.047,1.722,1.722,0,0,0,1.157.381,2.218,2.218,0,0,0,1.831-.82L39.7,12.755A3.153,3.153,0,0,1,38.4,13.769,4.418,4.418,0,0,1,36.575,14.146ZM36.3,7.833q-1.084,0-1.289,1.436H37.5v-.19a1.223,1.223,0,0,0-.3-.919A1.2,1.2,0,0,0,36.3,7.833ZM43.24,6.075l.081.93a2.725,2.725,0,0,1,2.263-1.077,2.006,2.006,0,0,1,2.029,1.194,2.637,2.637,0,0,1,2.329-1.194q2.41,0,2.476,2.915V14H49.942V9a1.511,1.511,0,0,0-.205-.886.873.873,0,0,0-.747-.278,1.169,1.169,0,0,0-1.091.652l.007.1V14H45.43V9.012a1.588,1.588,0,0,0-.2-.9.87.87,0,0,0-.754-.278,1.184,1.184,0,0,0-1.084.652V14H40.926V6.075ZM58.291,14a2.787,2.787,0,0,1-.234-.71,2.3,2.3,0,0,1-1.9.857,2.812,2.812,0,0,1-1.9-.677,2.156,2.156,0,0,1-.784-1.7,2.216,2.216,0,0,1,.952-1.948,4.851,4.851,0,0,1,2.769-.659h.762v-.42q0-1.1-.945-1.1a.772.772,0,0,0-.879.868H53.655a2.213,2.213,0,0,1,.978-1.865,4.109,4.109,0,0,1,2.494-.717,3.6,3.6,0,0,1,2.4.74,2.572,2.572,0,0,1,.9,2.029v3.508a3.593,3.593,0,0,0,.337,1.67V14Zm-1.545-1.611a1.377,1.377,0,0,0,.765-.2,1.239,1.239,0,0,0,.436-.447V10.477h-.718q-1.289,0-1.289,1.157a.707.707,0,0,0,.227.546A.822.822,0,0,0,56.746,12.389Zm12.129-.146a1.1,1.1,0,0,0,.806-.282,1.034,1.034,0,0,0,.278-.787h2.314a2.74,2.74,0,0,1-.934,2.139,3.474,3.474,0,0,1-2.406.835,3.517,3.517,0,0,1-2.725-1.084,4.271,4.271,0,0,1-1-3v-.1a4.827,4.827,0,0,1,.443-2.12,3.226,3.226,0,0,1,1.278-1.414,3.811,3.811,0,0,1,1.978-.494,3.43,3.43,0,0,1,2.454.857,3.039,3.039,0,0,1,.908,2.322H69.959a1.355,1.355,0,0,0-.3-.945,1.037,1.037,0,0,0-.806-.33q-.959,0-1.121,1.223a8.631,8.631,0,0,0-.051,1.069,3.39,3.39,0,0,0,.286,1.655A.989.989,0,0,0,68.875,12.242Zm4.131-2.278a4.677,4.677,0,0,1,.461-2.113,3.3,3.3,0,0,1,1.326-1.425,3.993,3.993,0,0,1,2.029-.5,3.644,3.644,0,0,1,2.805,1.1,4.23,4.23,0,0,1,1.025,3v.088a4.1,4.1,0,0,1-1.029,2.941,3.654,3.654,0,0,1-2.787,1.088,3.7,3.7,0,0,1-2.717-1.014,3.968,3.968,0,0,1-1.106-2.75Zm2.468.154a2.949,2.949,0,0,0,.344,1.611,1.147,1.147,0,0,0,1.018.513q1.318,0,1.348-2.029V9.964q0-2.131-1.362-2.131-1.238,0-1.34,1.838Zm8.533-4.043.081.93A2.687,2.687,0,0,1,86.35,5.929a2.261,2.261,0,0,1,1.849.74A3.522,3.522,0,0,1,88.833,8.9V14H86.358V9a1.337,1.337,0,0,0-.242-.883,1.118,1.118,0,0,0-.879-.282A1.177,1.177,0,0,0,84.16,8.4V14H81.692V6.075ZM93.074,4.1v1.97h1.3V7.789h-1.3v3.625a.926.926,0,0,0,.161.623.864.864,0,0,0,.637.176,3.621,3.621,0,0,0,.615-.044v1.765a4.555,4.555,0,0,1-1.392.212,2.586,2.586,0,0,1-1.882-.6,2.462,2.462,0,0,1-.608-1.824V7.789H89.6V6.075h1.011V4.1ZM99.812,14a2.787,2.787,0,0,1-.234-.71,2.3,2.3,0,0,1-1.9.857,2.812,2.812,0,0,1-1.9-.677,2.156,2.156,0,0,1-.784-1.7,2.216,2.216,0,0,1,.952-1.948,4.851,4.851,0,0,1,2.769-.659h.762v-.42q0-1.1-.945-1.1a.772.772,0,0,0-.879.868H95.176a2.213,2.213,0,0,1,.978-1.865,4.109,4.109,0,0,1,2.494-.717,3.6,3.6,0,0,1,2.4.74,2.572,2.572,0,0,1,.9,2.029v3.508a3.593,3.593,0,0,0,.337,1.67V14Zm-1.545-1.611a1.377,1.377,0,0,0,.765-.2,1.239,1.239,0,0,0,.436-.447V10.477H98.75q-1.289,0-1.289,1.157a.707.707,0,0,0,.227.546A.822.822,0,0,0,98.267,12.389Zm12.4-2.285a4.83,4.83,0,0,1-.806,3,2.7,2.7,0,0,1-2.271,1.047,2.342,2.342,0,0,1-1.948-.959l-.1.813h-2.212V2.75H105.8V6.712a2.259,2.259,0,0,1,1.78-.784,2.7,2.7,0,0,1,2.285,1.062,4.855,4.855,0,0,1,.806,2.988Zm-2.476-.157a3.222,3.222,0,0,0-.3-1.627,1.025,1.025,0,0,0-.934-.486,1.182,1.182,0,0,0-1.157.636v3.144a1.188,1.188,0,0,0,1.172.629,1.048,1.048,0,0,0,1.106-.848A6.091,6.091,0,0,0,108.191,9.946ZM114.358,14h-2.476V2.75h2.476Zm5.354.146a4.074,4.074,0,0,1-2.952-1.088,3.756,3.756,0,0,1-1.128-2.831v-.205a4.867,4.867,0,0,1,.45-2.146A3.3,3.3,0,0,1,117.4,6.438a3.969,3.969,0,0,1,2.051-.509,3.43,3.43,0,0,1,2.637,1.036,4.073,4.073,0,0,1,.967,2.889v.959h-4.907a1.779,1.779,0,0,0,.579,1.047,1.722,1.722,0,0,0,1.157.381,2.218,2.218,0,0,0,1.831-.82l1.128,1.333a3.153,3.153,0,0,1-1.307,1.014A4.418,4.418,0,0,1,119.712,14.146Zm-.278-6.313q-1.084,0-1.289,1.436h2.49v-.19a1.223,1.223,0,0,0-.3-.919A1.2,1.2,0,0,0,119.434,7.833Z" transform="translate(420.218 2818.814)" fill="#fff"/>
  </g>
</svg>
