<svg xmlns="http://www.w3.org/2000/svg" width="57.103" height="57.104" viewBox="0 0 57.103 57.104">
  <path id="monetization_on_FILL0_wght200_GRAD0_opsz24" d="M137.766-801.992a12.448,12.448,0,0,0,3.633,5.079,13.619,13.619,0,0,0,5.518,2.572v2.324a1.493,1.493,0,0,0,.467,1.089,1.493,1.493,0,0,0,1.089.467,1.493,1.493,0,0,0,1.089-.467,1.493,1.493,0,0,0,.467-1.089v-2.166a13.357,13.357,0,0,0,6.546-2.453q3.13-2.166,3.13-6.723a8.4,8.4,0,0,0-2.025-5.68q-2.025-2.349-7.736-4.411-5.247-1.83-6.7-3.142a4.771,4.771,0,0,1-1.458-3.74,5.1,5.1,0,0,1,1.894-4.045,7.494,7.494,0,0,1,5.036-1.617,6.943,6.943,0,0,1,4.027,1.107,8.741,8.741,0,0,1,2.611,2.809l2.758-1.086a10.121,10.121,0,0,0-3.273-3.831,8.956,8.956,0,0,0-4.646-1.72v-2.166a1.493,1.493,0,0,0-.467-1.089,1.493,1.493,0,0,0-1.089-.467,1.493,1.493,0,0,0-1.089.467,1.493,1.493,0,0,0-.467,1.089v2.166a10.326,10.326,0,0,0-6.278,3.093,7.805,7.805,0,0,0-2.129,5.289,7.226,7.226,0,0,0,2.15,5.479,21.159,21.159,0,0,0,7.257,3.9q5.119,1.885,6.879,3.4a5.237,5.237,0,0,1,1.76,4.185,5.194,5.194,0,0,1-2.443,4.823,9.927,9.927,0,0,1-5.213,1.473,8.28,8.28,0,0,1-4.975-1.6,10.97,10.97,0,0,1-3.523-4.542Zm10.8,19.1a27.828,27.828,0,0,1-11.136-2.248,28.851,28.851,0,0,1-9.07-6.1,28.822,28.822,0,0,1-6.106-9.062A27.77,27.77,0,0,1,120-811.438a27.827,27.827,0,0,1,2.248-11.136,28.851,28.851,0,0,1,6.1-9.07,28.82,28.82,0,0,1,9.062-6.106A27.769,27.769,0,0,1,148.541-840a27.828,27.828,0,0,1,11.136,2.248,28.853,28.853,0,0,1,9.07,6.1,28.822,28.822,0,0,1,6.106,9.062,27.77,27.77,0,0,1,2.25,11.131,27.827,27.827,0,0,1-2.248,11.136,28.852,28.852,0,0,1-6.1,9.07,28.822,28.822,0,0,1-9.062,6.106A27.77,27.77,0,0,1,148.562-782.9Zm-.011-3.172a24.494,24.494,0,0,0,18-7.376,24.494,24.494,0,0,0,7.376-18,24.494,24.494,0,0,0-7.376-18,24.494,24.494,0,0,0-18-7.376,24.494,24.494,0,0,0-18,7.376,24.494,24.494,0,0,0-7.376,18,24.494,24.494,0,0,0,7.376,18A24.494,24.494,0,0,0,148.552-786.069ZM148.552-811.448Z" transform="translate(-120 840)" fill="#fe502d"/>
</svg>
