<svg xmlns="http://www.w3.org/2000/svg" width="57.103" height="51.491" viewBox="0 0 57.103 51.491">
  <path id="card_travel_FILL0_wght200_GRAD0_opsz24" d="M123.172-768.6v5.735a1.866,1.866,0,0,0,.61,1.342,1.866,1.866,0,0,0,1.342.61h46.854a1.866,1.866,0,0,0,1.342-.61,1.866,1.866,0,0,0,.61-1.342V-768.6Zm12.69-30.382v-5.125a4.964,4.964,0,0,1,1.467-3.657,4.964,4.964,0,0,1,3.657-1.467h15.13a4.964,4.964,0,0,1,3.657,1.467,4.964,4.964,0,0,1,1.467,3.657v5.125h10.737a4.964,4.964,0,0,1,3.657,1.467,4.964,4.964,0,0,1,1.467,3.657v30.992a4.964,4.964,0,0,1-1.467,3.657,4.964,4.964,0,0,1-3.657,1.467H125.125a4.964,4.964,0,0,1-3.657-1.467A4.964,4.964,0,0,1,120-762.865v-30.992a4.964,4.964,0,0,1,1.467-3.657,4.964,4.964,0,0,1,3.657-1.467Zm-12.69,23.549h50.759v-18.424a1.866,1.866,0,0,0-.61-1.342,1.866,1.866,0,0,0-1.342-.61H161.241v3.538a1.536,1.536,0,0,1-.455,1.132,1.536,1.536,0,0,1-1.132.454,1.536,1.536,0,0,1-1.132-.454,1.536,1.536,0,0,1-.455-1.132v-3.538H139.034v3.538a1.536,1.536,0,0,1-.455,1.132,1.536,1.536,0,0,1-1.132.454,1.536,1.536,0,0,1-1.132-.454,1.536,1.536,0,0,1-.455-1.132v-3.538H125.125a1.866,1.866,0,0,0-1.342.61,1.866,1.866,0,0,0-.61,1.342Zm15.862-23.549h19.034v-5.125a1.866,1.866,0,0,0-.61-1.342,1.866,1.866,0,0,0-1.342-.61h-15.13a1.866,1.866,0,0,0-1.342.61,1.866,1.866,0,0,0-.61,1.342Zm-15.862,36.117v-32.944h1.952a1.866,1.866,0,0,0-1.342.61,1.866,1.866,0,0,0-.61,1.342v30.992a1.866,1.866,0,0,0,.61,1.342,1.866,1.866,0,0,0,1.342.61h-1.952Z" transform="translate(-120 809.231)" fill="#fe502d"/>
</svg>
